%TF.GenerationSoftware,KiCad,Pcbnew,9.0.7-9.0.7~ubuntu24.04.1*%
%TF.CreationDate,2026-01-07T11:41:24+01:00*%
%TF.ProjectId,motherboard,6d6f7468-6572-4626-9f61-72642e6b6963,rev?*%
%TF.SameCoordinates,Original*%
%TF.FileFunction,Soldermask,Top*%
%TF.FilePolarity,Negative*%
%FSLAX46Y46*%
G04 Gerber Fmt 4.6, Leading zero omitted, Abs format (unit mm)*
G04 Created by KiCad (PCBNEW 9.0.7-9.0.7~ubuntu24.04.1) date 2026-01-07 11:41:24*
%MOMM*%
%LPD*%
G01*
G04 APERTURE LIST*
G04 Aperture macros list*
%AMRoundRect*
0 Rectangle with rounded corners*
0 $1 Rounding radius*
0 $2 $3 $4 $5 $6 $7 $8 $9 X,Y pos of 4 corners*
0 Add a 4 corners polygon primitive as box body*
4,1,4,$2,$3,$4,$5,$6,$7,$8,$9,$2,$3,0*
0 Add four circle primitives for the rounded corners*
1,1,$1+$1,$2,$3*
1,1,$1+$1,$4,$5*
1,1,$1+$1,$6,$7*
1,1,$1+$1,$8,$9*
0 Add four rect primitives between the rounded corners*
20,1,$1+$1,$2,$3,$4,$5,0*
20,1,$1+$1,$4,$5,$6,$7,0*
20,1,$1+$1,$6,$7,$8,$9,0*
20,1,$1+$1,$8,$9,$2,$3,0*%
G04 Aperture macros list end*
%ADD10C,0.010000*%
%ADD11RoundRect,0.100000X-0.100000X0.130000X-0.100000X-0.130000X0.100000X-0.130000X0.100000X0.130000X0*%
%ADD12C,0.700000*%
%ADD13RoundRect,0.102000X-0.750000X-0.750000X0.750000X-0.750000X0.750000X0.750000X-0.750000X0.750000X0*%
%ADD14RoundRect,0.100000X0.100000X-0.130000X0.100000X0.130000X-0.100000X0.130000X-0.100000X-0.130000X0*%
%ADD15RoundRect,0.100000X-0.130000X-0.100000X0.130000X-0.100000X0.130000X0.100000X-0.130000X0.100000X0*%
%ADD16RoundRect,0.150500X0.451500X0.711500X-0.451500X0.711500X-0.451500X-0.711500X0.451500X-0.711500X0*%
%ADD17R,0.850000X0.850000*%
%ADD18C,0.850000*%
%ADD19RoundRect,0.150000X0.150000X-0.512500X0.150000X0.512500X-0.150000X0.512500X-0.150000X-0.512500X0*%
%ADD20RoundRect,0.100000X0.130000X0.100000X-0.130000X0.100000X-0.130000X-0.100000X0.130000X-0.100000X0*%
%ADD21RoundRect,0.050000X-0.387500X-0.050000X0.387500X-0.050000X0.387500X0.050000X-0.387500X0.050000X0*%
%ADD22RoundRect,0.050000X-0.050000X-0.387500X0.050000X-0.387500X0.050000X0.387500X-0.050000X0.387500X0*%
%ADD23R,3.200000X3.200000*%
%ADD24R,1.500000X0.900000*%
%ADD25C,0.600000*%
%ADD26R,2.900000X2.900000*%
%ADD27RoundRect,0.060300X0.341700X-0.716700X0.341700X0.716700X-0.341700X0.716700X-0.341700X-0.716700X0*%
%ADD28R,1.397000X3.200400*%
G04 APERTURE END LIST*
D10*
%TO.C,J2*%
X131770000Y-134550000D02*
X131070000Y-134550000D01*
X131070000Y-133300000D01*
X131770000Y-133300000D01*
X131770000Y-134550000D01*
G36*
X131770000Y-134550000D02*
G01*
X131070000Y-134550000D01*
X131070000Y-133300000D01*
X131770000Y-133300000D01*
X131770000Y-134550000D01*
G37*
X132570000Y-134550000D02*
X131870000Y-134550000D01*
X131870000Y-133300000D01*
X132570000Y-133300000D01*
X132570000Y-134550000D01*
G36*
X132570000Y-134550000D02*
G01*
X131870000Y-134550000D01*
X131870000Y-133300000D01*
X132570000Y-133300000D01*
X132570000Y-134550000D01*
G37*
X133070000Y-134550000D02*
X132670000Y-134550000D01*
X132670000Y-133300000D01*
X133070000Y-133300000D01*
X133070000Y-134550000D01*
G36*
X133070000Y-134550000D02*
G01*
X132670000Y-134550000D01*
X132670000Y-133300000D01*
X133070000Y-133300000D01*
X133070000Y-134550000D01*
G37*
X133570000Y-134550000D02*
X133170000Y-134550000D01*
X133170000Y-133300000D01*
X133570000Y-133300000D01*
X133570000Y-134550000D01*
G36*
X133570000Y-134550000D02*
G01*
X133170000Y-134550000D01*
X133170000Y-133300000D01*
X133570000Y-133300000D01*
X133570000Y-134550000D01*
G37*
X134070000Y-134550000D02*
X133670000Y-134550000D01*
X133670000Y-133300000D01*
X134070000Y-133300000D01*
X134070000Y-134550000D01*
G36*
X134070000Y-134550000D02*
G01*
X133670000Y-134550000D01*
X133670000Y-133300000D01*
X134070000Y-133300000D01*
X134070000Y-134550000D01*
G37*
X134570000Y-134550000D02*
X134170000Y-134550000D01*
X134170000Y-133300000D01*
X134570000Y-133300000D01*
X134570000Y-134550000D01*
G36*
X134570000Y-134550000D02*
G01*
X134170000Y-134550000D01*
X134170000Y-133300000D01*
X134570000Y-133300000D01*
X134570000Y-134550000D01*
G37*
X135070000Y-134550000D02*
X134670000Y-134550000D01*
X134670000Y-133300000D01*
X135070000Y-133300000D01*
X135070000Y-134550000D01*
G36*
X135070000Y-134550000D02*
G01*
X134670000Y-134550000D01*
X134670000Y-133300000D01*
X135070000Y-133300000D01*
X135070000Y-134550000D01*
G37*
X135570000Y-134550000D02*
X135170000Y-134550000D01*
X135170000Y-133300000D01*
X135570000Y-133300000D01*
X135570000Y-134550000D01*
G36*
X135570000Y-134550000D02*
G01*
X135170000Y-134550000D01*
X135170000Y-133300000D01*
X135570000Y-133300000D01*
X135570000Y-134550000D01*
G37*
X136070000Y-134550000D02*
X135670000Y-134550000D01*
X135670000Y-133300000D01*
X136070000Y-133300000D01*
X136070000Y-134550000D01*
G36*
X136070000Y-134550000D02*
G01*
X135670000Y-134550000D01*
X135670000Y-133300000D01*
X136070000Y-133300000D01*
X136070000Y-134550000D01*
G37*
X136570000Y-134550000D02*
X136170000Y-134550000D01*
X136170000Y-133300000D01*
X136570000Y-133300000D01*
X136570000Y-134550000D01*
G36*
X136570000Y-134550000D02*
G01*
X136170000Y-134550000D01*
X136170000Y-133300000D01*
X136570000Y-133300000D01*
X136570000Y-134550000D01*
G37*
X137370000Y-134550000D02*
X136670000Y-134550000D01*
X136670000Y-133300000D01*
X137370000Y-133300000D01*
X137370000Y-134550000D01*
G36*
X137370000Y-134550000D02*
G01*
X136670000Y-134550000D01*
X136670000Y-133300000D01*
X137370000Y-133300000D01*
X137370000Y-134550000D01*
G37*
X138170000Y-134550000D02*
X137470000Y-134550000D01*
X137470000Y-133300000D01*
X138170000Y-133300000D01*
X138170000Y-134550000D01*
G36*
X138170000Y-134550000D02*
G01*
X137470000Y-134550000D01*
X137470000Y-133300000D01*
X138170000Y-133300000D01*
X138170000Y-134550000D01*
G37*
%TO.C,J4*%
X147376200Y-105192867D02*
X145623800Y-105192867D01*
X145623800Y-104240467D01*
X147376200Y-104240467D01*
X147376200Y-105192867D01*
G36*
X147376200Y-105192867D02*
G01*
X145623800Y-105192867D01*
X145623800Y-104240467D01*
X147376200Y-104240467D01*
X147376200Y-105192867D01*
G37*
X147376200Y-106442867D02*
X145623800Y-106442867D01*
X145623800Y-105490467D01*
X147376200Y-105490467D01*
X147376200Y-106442867D01*
G36*
X147376200Y-106442867D02*
G01*
X145623800Y-106442867D01*
X145623800Y-105490467D01*
X147376200Y-105490467D01*
X147376200Y-106442867D01*
G37*
X147376200Y-107692867D02*
X145623800Y-107692867D01*
X145623800Y-106740467D01*
X147376200Y-106740467D01*
X147376200Y-107692867D01*
G36*
X147376200Y-107692867D02*
G01*
X145623800Y-107692867D01*
X145623800Y-106740467D01*
X147376200Y-106740467D01*
X147376200Y-107692867D01*
G37*
X147376200Y-108942867D02*
X145623800Y-108942867D01*
X145623800Y-107990467D01*
X147376200Y-107990467D01*
X147376200Y-108942867D01*
G36*
X147376200Y-108942867D02*
G01*
X145623800Y-108942867D01*
X145623800Y-107990467D01*
X147376200Y-107990467D01*
X147376200Y-108942867D01*
G37*
X150976200Y-103292867D02*
X147823800Y-103292867D01*
X147823800Y-101040467D01*
X150976200Y-101040467D01*
X150976200Y-103292867D01*
G36*
X150976200Y-103292867D02*
G01*
X147823800Y-103292867D01*
X147823800Y-101040467D01*
X150976200Y-101040467D01*
X150976200Y-103292867D01*
G37*
X150976200Y-112142867D02*
X147823800Y-112142867D01*
X147823800Y-109890467D01*
X150976200Y-109890467D01*
X150976200Y-112142867D01*
G36*
X150976200Y-112142867D02*
G01*
X147823800Y-112142867D01*
X147823800Y-109890467D01*
X150976200Y-109890467D01*
X150976200Y-112142867D01*
G37*
%TO.C,J3*%
X147376200Y-91176200D02*
X145623800Y-91176200D01*
X145623800Y-90223800D01*
X147376200Y-90223800D01*
X147376200Y-91176200D01*
G36*
X147376200Y-91176200D02*
G01*
X145623800Y-91176200D01*
X145623800Y-90223800D01*
X147376200Y-90223800D01*
X147376200Y-91176200D01*
G37*
X147376200Y-92426200D02*
X145623800Y-92426200D01*
X145623800Y-91473800D01*
X147376200Y-91473800D01*
X147376200Y-92426200D01*
G36*
X147376200Y-92426200D02*
G01*
X145623800Y-92426200D01*
X145623800Y-91473800D01*
X147376200Y-91473800D01*
X147376200Y-92426200D01*
G37*
X147376200Y-93676200D02*
X145623800Y-93676200D01*
X145623800Y-92723800D01*
X147376200Y-92723800D01*
X147376200Y-93676200D01*
G36*
X147376200Y-93676200D02*
G01*
X145623800Y-93676200D01*
X145623800Y-92723800D01*
X147376200Y-92723800D01*
X147376200Y-93676200D01*
G37*
X147376200Y-94926200D02*
X145623800Y-94926200D01*
X145623800Y-93973800D01*
X147376200Y-93973800D01*
X147376200Y-94926200D01*
G36*
X147376200Y-94926200D02*
G01*
X145623800Y-94926200D01*
X145623800Y-93973800D01*
X147376200Y-93973800D01*
X147376200Y-94926200D01*
G37*
X150976200Y-89276200D02*
X147823800Y-89276200D01*
X147823800Y-87023800D01*
X150976200Y-87023800D01*
X150976200Y-89276200D01*
G36*
X150976200Y-89276200D02*
G01*
X147823800Y-89276200D01*
X147823800Y-87023800D01*
X150976200Y-87023800D01*
X150976200Y-89276200D01*
G37*
X150976200Y-98126200D02*
X147823800Y-98126200D01*
X147823800Y-95873800D01*
X150976200Y-95873800D01*
X150976200Y-98126200D01*
G36*
X150976200Y-98126200D02*
G01*
X147823800Y-98126200D01*
X147823800Y-95873800D01*
X150976200Y-95873800D01*
X150976200Y-98126200D01*
G37*
%TO.C,J1*%
X147376200Y-119209533D02*
X145623800Y-119209533D01*
X145623800Y-118257133D01*
X147376200Y-118257133D01*
X147376200Y-119209533D01*
G36*
X147376200Y-119209533D02*
G01*
X145623800Y-119209533D01*
X145623800Y-118257133D01*
X147376200Y-118257133D01*
X147376200Y-119209533D01*
G37*
X147376200Y-120459533D02*
X145623800Y-120459533D01*
X145623800Y-119507133D01*
X147376200Y-119507133D01*
X147376200Y-120459533D01*
G36*
X147376200Y-120459533D02*
G01*
X145623800Y-120459533D01*
X145623800Y-119507133D01*
X147376200Y-119507133D01*
X147376200Y-120459533D01*
G37*
X147376200Y-121709533D02*
X145623800Y-121709533D01*
X145623800Y-120757133D01*
X147376200Y-120757133D01*
X147376200Y-121709533D01*
G36*
X147376200Y-121709533D02*
G01*
X145623800Y-121709533D01*
X145623800Y-120757133D01*
X147376200Y-120757133D01*
X147376200Y-121709533D01*
G37*
X147376200Y-122959533D02*
X145623800Y-122959533D01*
X145623800Y-122007133D01*
X147376200Y-122007133D01*
X147376200Y-122959533D01*
G36*
X147376200Y-122959533D02*
G01*
X145623800Y-122959533D01*
X145623800Y-122007133D01*
X147376200Y-122007133D01*
X147376200Y-122959533D01*
G37*
X150976200Y-117309533D02*
X147823800Y-117309533D01*
X147823800Y-115057133D01*
X150976200Y-115057133D01*
X150976200Y-117309533D01*
G36*
X150976200Y-117309533D02*
G01*
X147823800Y-117309533D01*
X147823800Y-115057133D01*
X150976200Y-115057133D01*
X150976200Y-117309533D01*
G37*
X150976200Y-126159533D02*
X147823800Y-126159533D01*
X147823800Y-123907133D01*
X150976200Y-123907133D01*
X150976200Y-126159533D01*
G36*
X150976200Y-126159533D02*
G01*
X147823800Y-126159533D01*
X147823800Y-123907133D01*
X150976200Y-123907133D01*
X150976200Y-126159533D01*
G37*
%TO.C,J5*%
X147376200Y-133226200D02*
X145623800Y-133226200D01*
X145623800Y-132273800D01*
X147376200Y-132273800D01*
X147376200Y-133226200D01*
G36*
X147376200Y-133226200D02*
G01*
X145623800Y-133226200D01*
X145623800Y-132273800D01*
X147376200Y-132273800D01*
X147376200Y-133226200D01*
G37*
X147376200Y-134476200D02*
X145623800Y-134476200D01*
X145623800Y-133523800D01*
X147376200Y-133523800D01*
X147376200Y-134476200D01*
G36*
X147376200Y-134476200D02*
G01*
X145623800Y-134476200D01*
X145623800Y-133523800D01*
X147376200Y-133523800D01*
X147376200Y-134476200D01*
G37*
X147376200Y-135726200D02*
X145623800Y-135726200D01*
X145623800Y-134773800D01*
X147376200Y-134773800D01*
X147376200Y-135726200D01*
G36*
X147376200Y-135726200D02*
G01*
X145623800Y-135726200D01*
X145623800Y-134773800D01*
X147376200Y-134773800D01*
X147376200Y-135726200D01*
G37*
X147376200Y-136976200D02*
X145623800Y-136976200D01*
X145623800Y-136023800D01*
X147376200Y-136023800D01*
X147376200Y-136976200D01*
G36*
X147376200Y-136976200D02*
G01*
X145623800Y-136976200D01*
X145623800Y-136023800D01*
X147376200Y-136023800D01*
X147376200Y-136976200D01*
G37*
X150976200Y-131326200D02*
X147823800Y-131326200D01*
X147823800Y-129073800D01*
X150976200Y-129073800D01*
X150976200Y-131326200D01*
G36*
X150976200Y-131326200D02*
G01*
X147823800Y-131326200D01*
X147823800Y-129073800D01*
X150976200Y-129073800D01*
X150976200Y-131326200D01*
G37*
X150976200Y-140176200D02*
X147823800Y-140176200D01*
X147823800Y-137923800D01*
X150976200Y-137923800D01*
X150976200Y-140176200D01*
G36*
X150976200Y-140176200D02*
G01*
X147823800Y-140176200D01*
X147823800Y-137923800D01*
X150976200Y-137923800D01*
X150976200Y-140176200D01*
G37*
%TD*%
D11*
%TO.C,C4*%
X132500000Y-112025000D03*
X132500000Y-112665000D03*
%TD*%
D12*
%TO.C,J2*%
X131730000Y-135000000D03*
X137510000Y-135000000D03*
D13*
X129500000Y-134500000D03*
X139740000Y-134500000D03*
X129500000Y-138430000D03*
X139740000Y-138430000D03*
%TD*%
D14*
%TO.C,R2*%
X132000000Y-128140000D03*
X132000000Y-127500000D03*
%TD*%
D15*
%TO.C,R5*%
X132180000Y-131000000D03*
X132820000Y-131000000D03*
%TD*%
D16*
%TO.C,F1*%
X140510000Y-120500000D03*
X138490000Y-120500000D03*
%TD*%
D17*
%TO.C,J6*%
X128500000Y-107500000D03*
D18*
X129500000Y-107500000D03*
X130500000Y-107500000D03*
X131500000Y-107500000D03*
%TD*%
D19*
%TO.C,U3*%
X131000000Y-125500000D03*
X131950000Y-125500000D03*
X132900000Y-125500000D03*
X132900000Y-123225000D03*
X131950000Y-123225000D03*
X131000000Y-123225000D03*
%TD*%
D20*
%TO.C,C2*%
X130820000Y-131155000D03*
X130180000Y-131155000D03*
%TD*%
D15*
%TO.C,C3*%
X131180000Y-121500000D03*
X131820000Y-121500000D03*
%TD*%
D21*
%TO.C,U1*%
X134462500Y-110337500D03*
X134462500Y-110737500D03*
X134462500Y-111137500D03*
X134462500Y-111537500D03*
X134462500Y-111937500D03*
X134462500Y-112337500D03*
X134462500Y-112737500D03*
X134462500Y-113137500D03*
X134462500Y-113537500D03*
X134462500Y-113937500D03*
X134462500Y-114337500D03*
X134462500Y-114737500D03*
X134462500Y-115137500D03*
X134462500Y-115537500D03*
D22*
X135300000Y-116375000D03*
X135700000Y-116375000D03*
X136100000Y-116375000D03*
X136500000Y-116375000D03*
X136900000Y-116375000D03*
X137300000Y-116375000D03*
X137700000Y-116375000D03*
X138100000Y-116375000D03*
X138500000Y-116375000D03*
X138900000Y-116375000D03*
X139300000Y-116375000D03*
X139700000Y-116375000D03*
X140100000Y-116375000D03*
X140500000Y-116375000D03*
D21*
X141337500Y-115537500D03*
X141337500Y-115137500D03*
X141337500Y-114737500D03*
X141337500Y-114337500D03*
X141337500Y-113937500D03*
X141337500Y-113537500D03*
X141337500Y-113137500D03*
X141337500Y-112737500D03*
X141337500Y-112337500D03*
X141337500Y-111937500D03*
X141337500Y-111537500D03*
X141337500Y-111137500D03*
X141337500Y-110737500D03*
X141337500Y-110337500D03*
D22*
X140500000Y-109500000D03*
X140100000Y-109500000D03*
X139700000Y-109500000D03*
X139300000Y-109500000D03*
X138900000Y-109500000D03*
X138500000Y-109500000D03*
X138100000Y-109500000D03*
X137700000Y-109500000D03*
X137300000Y-109500000D03*
X136900000Y-109500000D03*
X136500000Y-109500000D03*
X136100000Y-109500000D03*
X135700000Y-109500000D03*
X135300000Y-109500000D03*
D23*
X137900000Y-112937500D03*
%TD*%
D14*
%TO.C,R3*%
X132000000Y-117475000D03*
X132000000Y-116835000D03*
%TD*%
D24*
%TO.C,U2*%
X124326000Y-92880000D03*
X124326000Y-94380000D03*
X124326000Y-95880000D03*
X124326000Y-97380000D03*
X124326000Y-98880000D03*
X124326000Y-100380000D03*
X124326000Y-101880000D03*
X124326000Y-103380000D03*
X124326000Y-104880000D03*
X141826000Y-104880000D03*
X141826000Y-103380000D03*
X141826000Y-101880000D03*
X141826000Y-100380000D03*
X141826000Y-98880000D03*
X141826000Y-97380000D03*
X141826000Y-95880000D03*
X141826000Y-94380000D03*
X141826000Y-92880000D03*
D25*
X132936000Y-98530000D03*
X132936000Y-99630000D03*
X133486000Y-97980000D03*
X133486000Y-99080000D03*
X133486000Y-100180000D03*
X134036000Y-98530000D03*
D26*
X134036000Y-99080000D03*
D25*
X134036000Y-99630000D03*
X134586000Y-97980000D03*
X134586000Y-99080000D03*
X134586000Y-100180000D03*
X135136000Y-98530000D03*
X135136000Y-99630000D03*
%TD*%
D11*
%TO.C,R1*%
X131000000Y-127525000D03*
X131000000Y-128165000D03*
%TD*%
D14*
%TO.C,R4*%
X136000000Y-129975000D03*
X136000000Y-129335000D03*
%TD*%
%TO.C,C1*%
X137000000Y-129975000D03*
X137000000Y-129335000D03*
%TD*%
D27*
%TO.C,U4*%
X138235000Y-125735000D03*
X139185000Y-125735000D03*
X140135000Y-125735000D03*
X140135000Y-123365000D03*
X138235000Y-123365000D03*
%TD*%
D28*
%TO.C,XTAL1*%
X129000000Y-111540900D03*
X129000000Y-117459100D03*
%TD*%
M02*
