%TF.GenerationSoftware,KiCad,Pcbnew,9.0.7-9.0.7~ubuntu24.04.1*%
%TF.CreationDate,2026-01-07T11:41:25+01:00*%
%TF.ProjectId,motherboard,6d6f7468-6572-4626-9f61-72642e6b6963,rev?*%
%TF.SameCoordinates,Original*%
%TF.FileFunction,Profile,NP*%
%FSLAX46Y46*%
G04 Gerber Fmt 4.6, Leading zero omitted, Abs format (unit mm)*
G04 Created by KiCad (PCBNEW 9.0.7-9.0.7~ubuntu24.04.1) date 2026-01-07 11:41:25*
%MOMM*%
%LPD*%
G01*
G04 APERTURE LIST*
%TA.AperFunction,Profile*%
%ADD10C,0.050000*%
%TD*%
%ADD11C,0.150000*%
G04 APERTURE END LIST*
D10*
X122500000Y-86000000D02*
X154500000Y-86000000D01*
X154500000Y-141000000D01*
X122500000Y-141000000D01*
X122500000Y-86000000D01*
D11*
X137690476Y-75304819D02*
X138309523Y-75304819D01*
X138309523Y-75304819D02*
X137976190Y-75685771D01*
X137976190Y-75685771D02*
X138119047Y-75685771D01*
X138119047Y-75685771D02*
X138214285Y-75733390D01*
X138214285Y-75733390D02*
X138261904Y-75781009D01*
X138261904Y-75781009D02*
X138309523Y-75876247D01*
X138309523Y-75876247D02*
X138309523Y-76114342D01*
X138309523Y-76114342D02*
X138261904Y-76209580D01*
X138261904Y-76209580D02*
X138214285Y-76257200D01*
X138214285Y-76257200D02*
X138119047Y-76304819D01*
X138119047Y-76304819D02*
X137833333Y-76304819D01*
X137833333Y-76304819D02*
X137738095Y-76257200D01*
X137738095Y-76257200D02*
X137690476Y-76209580D01*
X138690476Y-75400057D02*
X138738095Y-75352438D01*
X138738095Y-75352438D02*
X138833333Y-75304819D01*
X138833333Y-75304819D02*
X139071428Y-75304819D01*
X139071428Y-75304819D02*
X139166666Y-75352438D01*
X139166666Y-75352438D02*
X139214285Y-75400057D01*
X139214285Y-75400057D02*
X139261904Y-75495295D01*
X139261904Y-75495295D02*
X139261904Y-75590533D01*
X139261904Y-75590533D02*
X139214285Y-75733390D01*
X139214285Y-75733390D02*
X138642857Y-76304819D01*
X138642857Y-76304819D02*
X139261904Y-76304819D01*
D10*
X122500000Y-85500000D02*
X122500000Y-76413580D01*
X154500000Y-76413580D02*
X154500000Y-85500000D01*
X122500000Y-77000000D02*
X154500000Y-77000000D01*
X122500000Y-77000000D02*
X123626504Y-76413579D01*
X122500000Y-77000000D02*
X123626504Y-77586421D01*
X154500000Y-77000000D02*
X153373496Y-77586421D01*
X154500000Y-77000000D02*
X153373496Y-76413579D01*
D11*
X161804819Y-113738095D02*
X161804819Y-114214285D01*
X161804819Y-114214285D02*
X162281009Y-114261904D01*
X162281009Y-114261904D02*
X162233390Y-114214285D01*
X162233390Y-114214285D02*
X162185771Y-114119047D01*
X162185771Y-114119047D02*
X162185771Y-113880952D01*
X162185771Y-113880952D02*
X162233390Y-113785714D01*
X162233390Y-113785714D02*
X162281009Y-113738095D01*
X162281009Y-113738095D02*
X162376247Y-113690476D01*
X162376247Y-113690476D02*
X162614342Y-113690476D01*
X162614342Y-113690476D02*
X162709580Y-113738095D01*
X162709580Y-113738095D02*
X162757200Y-113785714D01*
X162757200Y-113785714D02*
X162804819Y-113880952D01*
X162804819Y-113880952D02*
X162804819Y-114119047D01*
X162804819Y-114119047D02*
X162757200Y-114214285D01*
X162757200Y-114214285D02*
X162709580Y-114261904D01*
X161804819Y-112785714D02*
X161804819Y-113261904D01*
X161804819Y-113261904D02*
X162281009Y-113309523D01*
X162281009Y-113309523D02*
X162233390Y-113261904D01*
X162233390Y-113261904D02*
X162185771Y-113166666D01*
X162185771Y-113166666D02*
X162185771Y-112928571D01*
X162185771Y-112928571D02*
X162233390Y-112833333D01*
X162233390Y-112833333D02*
X162281009Y-112785714D01*
X162281009Y-112785714D02*
X162376247Y-112738095D01*
X162376247Y-112738095D02*
X162614342Y-112738095D01*
X162614342Y-112738095D02*
X162709580Y-112785714D01*
X162709580Y-112785714D02*
X162757200Y-112833333D01*
X162757200Y-112833333D02*
X162804819Y-112928571D01*
X162804819Y-112928571D02*
X162804819Y-113166666D01*
X162804819Y-113166666D02*
X162757200Y-113261904D01*
X162757200Y-113261904D02*
X162709580Y-113309523D01*
D10*
X155000000Y-141000000D02*
X164086420Y-141000000D01*
X164086420Y-86000000D02*
X155000000Y-86000000D01*
X163500000Y-141000000D02*
X163500000Y-86000000D01*
X163500000Y-141000000D02*
X162913579Y-139873496D01*
X163500000Y-141000000D02*
X164086421Y-139873496D01*
X163500000Y-86000000D02*
X164086421Y-87126504D01*
X163500000Y-86000000D02*
X162913579Y-87126504D01*
M02*
