%TF.GenerationSoftware,KiCad,Pcbnew,9.0.7-9.0.7~ubuntu24.04.1*%
%TF.CreationDate,2026-01-07T11:41:24+01:00*%
%TF.ProjectId,motherboard,6d6f7468-6572-4626-9f61-72642e6b6963,rev?*%
%TF.SameCoordinates,Original*%
%TF.FileFunction,Copper,L1,Top*%
%TF.FilePolarity,Positive*%
%FSLAX46Y46*%
G04 Gerber Fmt 4.6, Leading zero omitted, Abs format (unit mm)*
G04 Created by KiCad (PCBNEW 9.0.7-9.0.7~ubuntu24.04.1) date 2026-01-07 11:41:24*
%MOMM*%
%LPD*%
G01*
G04 APERTURE LIST*
G04 Aperture macros list*
%AMRoundRect*
0 Rectangle with rounded corners*
0 $1 Rounding radius*
0 $2 $3 $4 $5 $6 $7 $8 $9 X,Y pos of 4 corners*
0 Add a 4 corners polygon primitive as box body*
4,1,4,$2,$3,$4,$5,$6,$7,$8,$9,$2,$3,0*
0 Add four circle primitives for the rounded corners*
1,1,$1+$1,$2,$3*
1,1,$1+$1,$4,$5*
1,1,$1+$1,$6,$7*
1,1,$1+$1,$8,$9*
0 Add four rect primitives between the rounded corners*
20,1,$1+$1,$2,$3,$4,$5,0*
20,1,$1+$1,$4,$5,$6,$7,0*
20,1,$1+$1,$6,$7,$8,$9,0*
20,1,$1+$1,$8,$9,$2,$3,0*%
G04 Aperture macros list end*
%TA.AperFunction,SMDPad,CuDef*%
%ADD10RoundRect,0.100000X-0.100000X0.130000X-0.100000X-0.130000X0.100000X-0.130000X0.100000X0.130000X0*%
%TD*%
%TA.AperFunction,SMDPad,CuDef*%
%ADD11R,0.600000X1.150000*%
%TD*%
%TA.AperFunction,SMDPad,CuDef*%
%ADD12R,0.300000X1.150000*%
%TD*%
%TA.AperFunction,SMDPad,CuDef*%
%ADD13R,1.500000X1.500000*%
%TD*%
%TA.AperFunction,SMDPad,CuDef*%
%ADD14RoundRect,0.100000X0.100000X-0.130000X0.100000X0.130000X-0.100000X0.130000X-0.100000X-0.130000X0*%
%TD*%
%TA.AperFunction,SMDPad,CuDef*%
%ADD15RoundRect,0.100000X-0.130000X-0.100000X0.130000X-0.100000X0.130000X0.100000X-0.130000X0.100000X0*%
%TD*%
%TA.AperFunction,SMDPad,CuDef*%
%ADD16RoundRect,0.125000X0.375000X0.635000X-0.375000X0.635000X-0.375000X-0.635000X0.375000X-0.635000X0*%
%TD*%
%TA.AperFunction,ComponentPad*%
%ADD17R,0.850000X0.850000*%
%TD*%
%TA.AperFunction,ComponentPad*%
%ADD18C,0.850000*%
%TD*%
%TA.AperFunction,SMDPad,CuDef*%
%ADD19RoundRect,0.150000X0.150000X-0.512500X0.150000X0.512500X-0.150000X0.512500X-0.150000X-0.512500X0*%
%TD*%
%TA.AperFunction,SMDPad,CuDef*%
%ADD20RoundRect,0.100000X0.130000X0.100000X-0.130000X0.100000X-0.130000X-0.100000X0.130000X-0.100000X0*%
%TD*%
%TA.AperFunction,SMDPad,CuDef*%
%ADD21RoundRect,0.050000X-0.387500X-0.050000X0.387500X-0.050000X0.387500X0.050000X-0.387500X0.050000X0*%
%TD*%
%TA.AperFunction,SMDPad,CuDef*%
%ADD22RoundRect,0.050000X-0.050000X-0.387500X0.050000X-0.387500X0.050000X0.387500X-0.050000X0.387500X0*%
%TD*%
%TA.AperFunction,HeatsinkPad*%
%ADD23R,3.200000X3.200000*%
%TD*%
%TA.AperFunction,SMDPad,CuDef*%
%ADD24R,1.600000X0.800000*%
%TD*%
%TA.AperFunction,SMDPad,CuDef*%
%ADD25R,3.000000X2.100000*%
%TD*%
%TA.AperFunction,SMDPad,CuDef*%
%ADD26R,1.500000X0.900000*%
%TD*%
%TA.AperFunction,HeatsinkPad*%
%ADD27C,0.600000*%
%TD*%
%TA.AperFunction,HeatsinkPad*%
%ADD28R,2.900000X2.900000*%
%TD*%
%TA.AperFunction,SMDPad,CuDef*%
%ADD29RoundRect,0.045000X0.255000X-0.630000X0.255000X0.630000X-0.255000X0.630000X-0.255000X-0.630000X0*%
%TD*%
%TA.AperFunction,SMDPad,CuDef*%
%ADD30R,1.397000X3.200400*%
%TD*%
%TA.AperFunction,ViaPad*%
%ADD31C,0.600000*%
%TD*%
%TA.AperFunction,Conductor*%
%ADD32C,0.200000*%
%TD*%
G04 APERTURE END LIST*
D10*
%TO.P,C4,1*%
%TO.N,Net-(U1-XOUT)*%
X132500000Y-112025000D03*
%TO.P,C4,2*%
%TO.N,GND*%
X132500000Y-112665000D03*
%TD*%
D11*
%TO.P,J2,A1_B12,GND_A*%
%TO.N,unconnected-(J2-GND_A-PadA1_B12)*%
X131420000Y-133925000D03*
%TO.P,J2,A4_B9,VBUS_A*%
%TO.N,Net-(J2-VBUS_A)*%
X132220000Y-133925000D03*
D12*
%TO.P,J2,A5,CC1*%
%TO.N,Net-(J2-CC1)*%
X133370000Y-133925000D03*
%TO.P,J2,A6,DP1*%
%TO.N,Net-(J2-DP1)*%
X134370000Y-133925000D03*
%TO.P,J2,A7,DN1*%
%TO.N,/D-*%
X134870000Y-133925000D03*
%TO.P,J2,A8,SBU1*%
%TO.N,unconnected-(J2-SBU1-PadA8)*%
X135870000Y-133925000D03*
D11*
%TO.P,J2,B1_A12,GND_B*%
%TO.N,GND*%
X137820000Y-133925000D03*
%TO.P,J2,B4_A9,VBUS_B*%
%TO.N,Net-(J2-VBUS_A)*%
X137020000Y-133925000D03*
D12*
%TO.P,J2,B5,CC2*%
%TO.N,Net-(J2-CC2)*%
X136370000Y-133925000D03*
%TO.P,J2,B6,DP2*%
%TO.N,Net-(J2-DP2)*%
X135370000Y-133925000D03*
%TO.P,J2,B7,DN2*%
%TO.N,/D-*%
X133870000Y-133925000D03*
%TO.P,J2,B8,SBU2*%
%TO.N,unconnected-(J2-SBU2-PadB8)*%
X132870000Y-133925000D03*
D13*
%TO.P,J2,SH1,SHIELD*%
%TO.N,Net-(J2-SHIELD-PadSH1)*%
X129500000Y-134500000D03*
%TO.P,J2,SH2,SHIELD*%
X139740000Y-134500000D03*
%TO.P,J2,SH3,SHIELD*%
X129500000Y-138430000D03*
%TO.P,J2,SH4,SHIELD*%
X139740000Y-138430000D03*
%TD*%
D14*
%TO.P,R2,1*%
%TO.N,Net-(J2-DP2)*%
X132000000Y-128140000D03*
%TO.P,R2,2*%
%TO.N,/D+*%
X132000000Y-127500000D03*
%TD*%
D15*
%TO.P,R5,1*%
%TO.N,GND*%
X132180000Y-131000000D03*
%TO.P,R5,2*%
%TO.N,Net-(J2-CC1)*%
X132820000Y-131000000D03*
%TD*%
D16*
%TO.P,F1,1*%
%TO.N,Net-(U1-VREG_IN)*%
X140510000Y-120500000D03*
%TO.P,F1,2*%
%TO.N,Net-(U4-VOUT)*%
X138490000Y-120500000D03*
%TD*%
D17*
%TO.P,J6,1,Pin_1*%
%TO.N,unconnected-(J6-Pin_1-Pad1)*%
X128500000Y-107500000D03*
D18*
%TO.P,J6,2,Pin_2*%
%TO.N,unconnected-(J6-Pin_2-Pad2)*%
X129500000Y-107500000D03*
%TO.P,J6,3,Pin_3*%
%TO.N,unconnected-(J6-Pin_3-Pad3)*%
X130500000Y-107500000D03*
%TO.P,J6,4,Pin_4*%
%TO.N,unconnected-(J6-Pin_4-Pad4)*%
X131500000Y-107500000D03*
%TD*%
D19*
%TO.P,U3,1,I/O1*%
%TO.N,/D+*%
X131000000Y-125500000D03*
%TO.P,U3,2,GND*%
%TO.N,GND*%
X131950000Y-125500000D03*
%TO.P,U3,3,I/O2*%
%TO.N,/D-*%
X132900000Y-125500000D03*
%TO.P,U3,4,I/O2*%
%TO.N,Net-(U1-USB_DP)*%
X132900000Y-123225000D03*
%TO.P,U3,5,VBUS*%
%TO.N,Net-(J2-VBUS_A)*%
X131950000Y-123225000D03*
%TO.P,U3,6,I/O1*%
%TO.N,Net-(U1-USB_DM)*%
X131000000Y-123225000D03*
%TD*%
D20*
%TO.P,C2,1*%
%TO.N,Net-(J2-VBUS_A)*%
X130820000Y-131155000D03*
%TO.P,C2,2*%
%TO.N,GND*%
X130180000Y-131155000D03*
%TD*%
D15*
%TO.P,C3,1*%
%TO.N,GND*%
X131180000Y-121500000D03*
%TO.P,C3,2*%
%TO.N,Net-(J2-VBUS_A)*%
X131820000Y-121500000D03*
%TD*%
D21*
%TO.P,U1,1,IOVDD*%
%TO.N,Net-(U1-IOVDD-Pad1)*%
X134462500Y-110337500D03*
%TO.P,U1,2,GPIO0*%
%TO.N,unconnected-(U1-GPIO0-Pad2)*%
X134462500Y-110737500D03*
%TO.P,U1,3,GPIO1*%
%TO.N,unconnected-(U1-GPIO1-Pad3)*%
X134462500Y-111137500D03*
%TO.P,U1,4,GPIO2*%
%TO.N,unconnected-(U1-GPIO2-Pad4)*%
X134462500Y-111537500D03*
%TO.P,U1,5,GPIO3*%
%TO.N,unconnected-(U1-GPIO3-Pad5)*%
X134462500Y-111937500D03*
%TO.P,U1,6,GPIO4*%
%TO.N,/TX*%
X134462500Y-112337500D03*
%TO.P,U1,7,GPIO5*%
%TO.N,/RX*%
X134462500Y-112737500D03*
%TO.P,U1,8,GPIO6*%
%TO.N,unconnected-(U1-GPIO6-Pad8)*%
X134462500Y-113137500D03*
%TO.P,U1,9,GPIO7*%
%TO.N,unconnected-(U1-GPIO7-Pad9)*%
X134462500Y-113537500D03*
%TO.P,U1,10,IOVDD*%
%TO.N,Net-(U1-IOVDD-Pad1)*%
X134462500Y-113937500D03*
%TO.P,U1,11,GPIO8*%
%TO.N,unconnected-(U1-GPIO8-Pad11)*%
X134462500Y-114337500D03*
%TO.P,U1,12,GPIO9*%
%TO.N,unconnected-(U1-GPIO9-Pad12)*%
X134462500Y-114737500D03*
%TO.P,U1,13,GPIO10*%
%TO.N,unconnected-(U1-GPIO10-Pad13)*%
X134462500Y-115137500D03*
%TO.P,U1,14,GPIO11*%
%TO.N,unconnected-(U1-GPIO11-Pad14)*%
X134462500Y-115537500D03*
D22*
%TO.P,U1,15,GPIO12*%
%TO.N,unconnected-(U1-GPIO12-Pad15)*%
X135300000Y-116375000D03*
%TO.P,U1,16,GPIO13*%
%TO.N,unconnected-(U1-GPIO13-Pad16)*%
X135700000Y-116375000D03*
%TO.P,U1,17,GPIO14*%
%TO.N,unconnected-(U1-GPIO14-Pad17)*%
X136100000Y-116375000D03*
%TO.P,U1,18,GPIO15*%
%TO.N,unconnected-(U1-GPIO15-Pad18)*%
X136500000Y-116375000D03*
%TO.P,U1,19,TESTEN*%
%TO.N,unconnected-(U1-TESTEN-Pad19)*%
X136900000Y-116375000D03*
%TO.P,U1,20,XIN*%
%TO.N,Net-(U1-XIN)*%
X137300000Y-116375000D03*
%TO.P,U1,21,XOUT*%
%TO.N,Net-(U1-XOUT)*%
X137700000Y-116375000D03*
%TO.P,U1,22,IOVDD*%
%TO.N,Net-(U1-IOVDD-Pad1)*%
X138100000Y-116375000D03*
%TO.P,U1,23,DVDD*%
%TO.N,Net-(U1-DVDD-Pad23)*%
X138500000Y-116375000D03*
%TO.P,U1,24,SWCLK*%
%TO.N,unconnected-(U1-SWCLK-Pad24)*%
X138900000Y-116375000D03*
%TO.P,U1,25,SWD*%
%TO.N,unconnected-(U1-SWD-Pad25)*%
X139300000Y-116375000D03*
%TO.P,U1,26,RUN*%
%TO.N,unconnected-(U1-RUN-Pad26)*%
X139700000Y-116375000D03*
%TO.P,U1,27,GPIO16*%
%TO.N,unconnected-(U1-GPIO16-Pad27)*%
X140100000Y-116375000D03*
%TO.P,U1,28,GPIO17*%
%TO.N,unconnected-(U1-GPIO17-Pad28)*%
X140500000Y-116375000D03*
D21*
%TO.P,U1,29,GPIO18*%
%TO.N,unconnected-(U1-GPIO18-Pad29)*%
X141337500Y-115537500D03*
%TO.P,U1,30,GPIO19*%
%TO.N,unconnected-(U1-GPIO19-Pad30)*%
X141337500Y-115137500D03*
%TO.P,U1,31,GPIO20*%
%TO.N,unconnected-(U1-GPIO20-Pad31)*%
X141337500Y-114737500D03*
%TO.P,U1,32,GPIO21*%
%TO.N,unconnected-(U1-GPIO21-Pad32)*%
X141337500Y-114337500D03*
%TO.P,U1,33,IOVDD*%
%TO.N,Net-(U1-IOVDD-Pad1)*%
X141337500Y-113937500D03*
%TO.P,U1,34,GPIO22*%
%TO.N,unconnected-(U1-GPIO22-Pad34)*%
X141337500Y-113537500D03*
%TO.P,U1,35,GPIO23*%
%TO.N,unconnected-(U1-GPIO23-Pad35)*%
X141337500Y-113137500D03*
%TO.P,U1,36,GPIO24*%
%TO.N,unconnected-(U1-GPIO24-Pad36)*%
X141337500Y-112737500D03*
%TO.P,U1,37,GPIO25*%
%TO.N,unconnected-(U1-GPIO25-Pad37)*%
X141337500Y-112337500D03*
%TO.P,U1,38,GPIO26_ADC0*%
%TO.N,unconnected-(U1-GPIO26_ADC0-Pad38)*%
X141337500Y-111937500D03*
%TO.P,U1,39,GPIO27_ADC1*%
%TO.N,unconnected-(U1-GPIO27_ADC1-Pad39)*%
X141337500Y-111537500D03*
%TO.P,U1,40,GPIO28_ADC2*%
%TO.N,unconnected-(U1-GPIO28_ADC2-Pad40)*%
X141337500Y-111137500D03*
%TO.P,U1,41,GPIO29_ADC3*%
%TO.N,unconnected-(U1-GPIO29_ADC3-Pad41)*%
X141337500Y-110737500D03*
%TO.P,U1,42,IOVDD*%
%TO.N,Net-(U1-IOVDD-Pad1)*%
X141337500Y-110337500D03*
D22*
%TO.P,U1,43,ADC_AVDD*%
%TO.N,unconnected-(U1-ADC_AVDD-Pad43)*%
X140500000Y-109500000D03*
%TO.P,U1,44,VREG_IN*%
%TO.N,Net-(U1-VREG_IN)*%
X140100000Y-109500000D03*
%TO.P,U1,45,VREG_VOUT*%
%TO.N,unconnected-(U1-VREG_VOUT-Pad45)*%
X139700000Y-109500000D03*
%TO.P,U1,46,USB_DM*%
%TO.N,Net-(U1-USB_DM)*%
X139300000Y-109500000D03*
%TO.P,U1,47,USB_DP*%
%TO.N,Net-(U1-USB_DP)*%
X138900000Y-109500000D03*
%TO.P,U1,48,USB_VDD*%
%TO.N,unconnected-(U1-USB_VDD-Pad48)*%
X138500000Y-109500000D03*
%TO.P,U1,49,IOVDD*%
%TO.N,Net-(U1-IOVDD-Pad1)*%
X138100000Y-109500000D03*
%TO.P,U1,50,DVDD*%
%TO.N,Net-(U1-DVDD-Pad23)*%
X137700000Y-109500000D03*
%TO.P,U1,51,QSPI_SD3*%
%TO.N,unconnected-(U1-QSPI_SD3-Pad51)*%
X137300000Y-109500000D03*
%TO.P,U1,52,QSPI_SCLK*%
%TO.N,unconnected-(U1-QSPI_SCLK-Pad52)*%
X136900000Y-109500000D03*
%TO.P,U1,53,QSPI_SD0*%
%TO.N,unconnected-(U1-QSPI_SD0-Pad53)*%
X136500000Y-109500000D03*
%TO.P,U1,54,QSPI_SD2*%
%TO.N,unconnected-(U1-QSPI_SD2-Pad54)*%
X136100000Y-109500000D03*
%TO.P,U1,55,QSPI_SD1*%
%TO.N,unconnected-(U1-QSPI_SD1-Pad55)*%
X135700000Y-109500000D03*
%TO.P,U1,56,QSPI_SS*%
%TO.N,unconnected-(U1-QSPI_SS-Pad56)*%
X135300000Y-109500000D03*
D23*
%TO.P,U1,57,GND*%
%TO.N,GND*%
X137900000Y-112937500D03*
%TD*%
D14*
%TO.P,R3,1*%
%TO.N,Net-(R3-Pad1)*%
X132000000Y-117475000D03*
%TO.P,R3,2*%
%TO.N,Net-(U1-XIN)*%
X132000000Y-116835000D03*
%TD*%
D24*
%TO.P,J4,1,1*%
%TO.N,unconnected-(J4-Pad1)*%
X146500000Y-108466667D03*
%TO.P,J4,2,2*%
%TO.N,unconnected-(J4-Pad2)*%
X146500000Y-107216667D03*
%TO.P,J4,3,3*%
%TO.N,unconnected-(J4-Pad3)*%
X146500000Y-105966667D03*
%TO.P,J4,4,4*%
%TO.N,unconnected-(J4-Pad4)*%
X146500000Y-104716667D03*
D25*
%TO.P,J4,S1,SHIELD1*%
%TO.N,unconnected-(J4-SHIELD1-PadS1)*%
X149400000Y-111016667D03*
%TO.P,J4,S2,SHIELD2*%
%TO.N,unconnected-(J4-SHIELD2-PadS2)*%
X149400000Y-102166667D03*
%TD*%
D24*
%TO.P,J3,1,1*%
%TO.N,unconnected-(J3-Pad1)*%
X146500000Y-94450000D03*
%TO.P,J3,2,2*%
%TO.N,unconnected-(J3-Pad2)*%
X146500000Y-93200000D03*
%TO.P,J3,3,3*%
%TO.N,unconnected-(J3-Pad3)*%
X146500000Y-91950000D03*
%TO.P,J3,4,4*%
%TO.N,unconnected-(J3-Pad4)*%
X146500000Y-90700000D03*
D25*
%TO.P,J3,S1,SHIELD1*%
%TO.N,unconnected-(J3-SHIELD1-PadS1)*%
X149400000Y-97000000D03*
%TO.P,J3,S2,SHIELD2*%
%TO.N,unconnected-(J3-SHIELD2-PadS2)*%
X149400000Y-88150000D03*
%TD*%
D26*
%TO.P,U2,1,3V3*%
%TO.N,Net-(U1-VREG_IN)*%
X124326000Y-92880000D03*
%TO.P,U2,2,EN*%
%TO.N,unconnected-(U2-EN-Pad2)*%
X124326000Y-94380000D03*
%TO.P,U2,3,IO4*%
%TO.N,unconnected-(U2-IO4-Pad3)*%
X124326000Y-95880000D03*
%TO.P,U2,4,IO5*%
%TO.N,unconnected-(U2-IO5-Pad4)*%
X124326000Y-97380000D03*
%TO.P,U2,5,IO6*%
%TO.N,unconnected-(U2-IO6-Pad5)*%
X124326000Y-98880000D03*
%TO.P,U2,6,IO7*%
%TO.N,unconnected-(U2-IO7-Pad6)*%
X124326000Y-100380000D03*
%TO.P,U2,7,IO8*%
%TO.N,unconnected-(U2-IO8-Pad7)*%
X124326000Y-101880000D03*
%TO.P,U2,8,IO9*%
%TO.N,unconnected-(U2-IO9-Pad8)*%
X124326000Y-103380000D03*
%TO.P,U2,9,GND*%
%TO.N,GND*%
X124326000Y-104880000D03*
%TO.P,U2,10,IO10*%
%TO.N,unconnected-(U2-IO10-Pad10)*%
X141826000Y-104880000D03*
%TO.P,U2,11,IO20/RXD*%
%TO.N,/TX*%
X141826000Y-103380000D03*
%TO.P,U2,12,IO21/TXD*%
%TO.N,/RX*%
X141826000Y-101880000D03*
%TO.P,U2,13,IO18*%
%TO.N,unconnected-(U2-IO18-Pad13)*%
X141826000Y-100380000D03*
%TO.P,U2,14,IO19*%
%TO.N,unconnected-(U2-IO19-Pad14)*%
X141826000Y-98880000D03*
%TO.P,U2,15,IO3*%
%TO.N,unconnected-(U2-IO3-Pad15)*%
X141826000Y-97380000D03*
%TO.P,U2,16,IO2*%
%TO.N,unconnected-(U2-IO2-Pad16)*%
X141826000Y-95880000D03*
%TO.P,U2,17,IO1*%
%TO.N,unconnected-(U2-IO1-Pad17)*%
X141826000Y-94380000D03*
%TO.P,U2,18,IO0*%
%TO.N,unconnected-(U2-IO0-Pad18)*%
X141826000Y-92880000D03*
D27*
%TO.P,U2,19,GND*%
%TO.N,GND*%
X132936000Y-98530000D03*
X132936000Y-99630000D03*
X133486000Y-97980000D03*
X133486000Y-99080000D03*
X133486000Y-100180000D03*
X134036000Y-98530000D03*
D28*
X134036000Y-99080000D03*
D27*
X134036000Y-99630000D03*
X134586000Y-97980000D03*
X134586000Y-99080000D03*
X134586000Y-100180000D03*
X135136000Y-98530000D03*
X135136000Y-99630000D03*
%TD*%
D10*
%TO.P,R1,1*%
%TO.N,/D+*%
X131000000Y-127525000D03*
%TO.P,R1,2*%
%TO.N,Net-(J2-DP1)*%
X131000000Y-128165000D03*
%TD*%
D24*
%TO.P,J1,1,1*%
%TO.N,unconnected-(J1-Pad1)*%
X146500000Y-122483333D03*
%TO.P,J1,2,2*%
%TO.N,unconnected-(J1-Pad2)*%
X146500000Y-121233333D03*
%TO.P,J1,3,3*%
%TO.N,unconnected-(J1-Pad3)*%
X146500000Y-119983333D03*
%TO.P,J1,4,4*%
%TO.N,unconnected-(J1-Pad4)*%
X146500000Y-118733333D03*
D25*
%TO.P,J1,S1,SHIELD1*%
%TO.N,unconnected-(J1-SHIELD1-PadS1)*%
X149400000Y-125033333D03*
%TO.P,J1,S2,SHIELD2*%
%TO.N,unconnected-(J1-SHIELD2-PadS2)*%
X149400000Y-116183333D03*
%TD*%
D14*
%TO.P,R4,1*%
%TO.N,Net-(J2-CC2)*%
X136000000Y-129975000D03*
%TO.P,R4,2*%
%TO.N,GND*%
X136000000Y-129335000D03*
%TD*%
%TO.P,C1,1*%
%TO.N,Net-(J2-VBUS_A)*%
X137000000Y-129975000D03*
%TO.P,C1,2*%
%TO.N,GND*%
X137000000Y-129335000D03*
%TD*%
D29*
%TO.P,U4,1,VIN*%
%TO.N,Net-(J2-VBUS_A)*%
X138235000Y-125735000D03*
%TO.P,U4,2,GND*%
%TO.N,GND*%
X139185000Y-125735000D03*
%TO.P,U4,3,EN*%
%TO.N,unconnected-(U4-EN-Pad3)*%
X140135000Y-125735000D03*
%TO.P,U4,4*%
%TO.N,N/C*%
X140135000Y-123365000D03*
%TO.P,U4,5,VOUT*%
%TO.N,Net-(U4-VOUT)*%
X138235000Y-123365000D03*
%TD*%
D24*
%TO.P,J5,1,1*%
%TO.N,unconnected-(J5-Pad1)*%
X146500000Y-136500000D03*
%TO.P,J5,2,2*%
%TO.N,unconnected-(J5-Pad2)*%
X146500000Y-135250000D03*
%TO.P,J5,3,3*%
%TO.N,unconnected-(J5-Pad3)*%
X146500000Y-134000000D03*
%TO.P,J5,4,4*%
%TO.N,unconnected-(J5-Pad4)*%
X146500000Y-132750000D03*
D25*
%TO.P,J5,S1,SHIELD1*%
%TO.N,unconnected-(J5-SHIELD1-PadS1)*%
X149400000Y-139050000D03*
%TO.P,J5,S2,SHIELD2*%
%TO.N,unconnected-(J5-SHIELD2-PadS2)*%
X149400000Y-130200000D03*
%TD*%
D30*
%TO.P,XTAL1,1,1*%
%TO.N,Net-(U1-XOUT)*%
X129000000Y-111540900D03*
%TO.P,XTAL1,2,2*%
%TO.N,Net-(R3-Pad1)*%
X129000000Y-117459100D03*
%TD*%
D31*
%TO.N,/RX*%
X132500000Y-113500000D03*
X132000000Y-110500000D03*
%TO.N,/D-*%
X133493235Y-131506765D03*
X133000000Y-127500000D03*
%TO.N,Net-(U1-USB_DP)*%
X138500000Y-110837498D03*
X135500000Y-120000000D03*
%TO.N,Net-(U1-VREG_IN)*%
X144000000Y-112500000D03*
X140250000Y-112250000D03*
%TO.N,Net-(J2-VBUS_A)*%
X132500000Y-132500000D03*
X138000000Y-132000000D03*
%TO.N,Net-(U1-XOUT)*%
X133000000Y-112000000D03*
X135399999Y-112600001D03*
%TD*%
D32*
%TO.N,/TX*%
X133601000Y-110263726D02*
X133601000Y-112011274D01*
X133601000Y-112011274D02*
X133927226Y-112337500D01*
X140484726Y-103380000D02*
X133601000Y-110263726D01*
X141826000Y-103380000D02*
X140484726Y-103380000D01*
X133927226Y-112337500D02*
X134462500Y-112337500D01*
%TO.N,Net-(U4-VOUT)*%
X138235000Y-123365000D02*
X138235000Y-120755000D01*
X138235000Y-120755000D02*
X138490000Y-120500000D01*
%TO.N,/RX*%
X141826000Y-101880000D02*
X140620000Y-101880000D01*
X133664726Y-113000000D02*
X133500000Y-113000000D01*
X140620000Y-101880000D02*
X132000000Y-110500000D01*
X133000000Y-113500000D02*
X132500000Y-113500000D01*
X134462500Y-112737500D02*
X133927226Y-112737500D01*
X133500000Y-113000000D02*
X133000000Y-113500000D01*
X133927226Y-112737500D02*
X133664726Y-113000000D01*
%TO.N,/D+*%
X131000000Y-126500000D02*
X131000000Y-125500000D01*
X132000000Y-127500000D02*
X131000000Y-126500000D01*
X131000000Y-127525000D02*
X131000000Y-126500000D01*
%TO.N,/D-*%
X133000000Y-127500000D02*
X132900000Y-127400000D01*
X133870000Y-131883530D02*
X133493235Y-131506765D01*
X133870000Y-133925000D02*
X133870000Y-131883530D01*
X132900000Y-127400000D02*
X132900000Y-125500000D01*
%TO.N,Net-(J2-DP1)*%
X131000000Y-128165000D02*
X134370000Y-131535000D01*
X134370000Y-131535000D02*
X134370000Y-133925000D01*
%TO.N,Net-(J2-DP2)*%
X135370000Y-131510000D02*
X135370000Y-133925000D01*
X132000000Y-128140000D02*
X135370000Y-131510000D01*
%TO.N,Net-(U1-USB_DP)*%
X138500000Y-110837498D02*
X138500000Y-110435274D01*
X132900000Y-123225000D02*
X135500000Y-120625000D01*
X138900000Y-109500000D02*
X138900000Y-110033274D01*
X138900000Y-110033274D02*
X138901000Y-110034274D01*
X138500000Y-110435274D02*
X138901000Y-110034274D01*
X135500000Y-120625000D02*
X135500000Y-120000000D01*
%TO.N,Net-(U1-USB_DM)*%
X143000000Y-117500000D02*
X143000000Y-110532363D01*
X130500000Y-120500000D02*
X132000000Y-119000000D01*
X131000000Y-123225000D02*
X130500000Y-122725000D01*
X141229137Y-108761500D02*
X139505226Y-108761500D01*
X143000000Y-110532363D02*
X141229137Y-108761500D01*
X130500000Y-122725000D02*
X130500000Y-120500000D01*
X141500000Y-119000000D02*
X143000000Y-117500000D01*
X139505226Y-108761500D02*
X139300000Y-108966726D01*
X139300000Y-108966726D02*
X139300000Y-109500000D01*
X132000000Y-119000000D02*
X141500000Y-119000000D01*
%TO.N,Net-(J2-CC1)*%
X133370000Y-132370000D02*
X132820000Y-131820000D01*
X132820000Y-131820000D02*
X132820000Y-131000000D01*
X133370000Y-133925000D02*
X133370000Y-132370000D01*
%TO.N,Net-(J2-CC2)*%
X136370000Y-130345000D02*
X136370000Y-133925000D01*
X136000000Y-129975000D02*
X136370000Y-130345000D01*
%TO.N,Net-(U1-VREG_IN)*%
X141500000Y-120500000D02*
X144000000Y-118000000D01*
X144000000Y-118000000D02*
X144000000Y-112500000D01*
X140100000Y-112100000D02*
X140250000Y-112250000D01*
X124326000Y-92880000D02*
X125077000Y-92129000D01*
X125077000Y-92129000D02*
X142877000Y-92129000D01*
X140510000Y-120500000D02*
X141500000Y-120500000D01*
X143500000Y-112000000D02*
X144000000Y-112500000D01*
X142877000Y-92129000D02*
X143500000Y-92752000D01*
X143500000Y-92752000D02*
X143500000Y-112000000D01*
X140100000Y-109500000D02*
X140100000Y-112100000D01*
%TO.N,Net-(J2-VBUS_A)*%
X130820000Y-131155000D02*
X132220000Y-132555000D01*
X131820000Y-121500000D02*
X131820000Y-123095000D01*
X131950000Y-123579468D02*
X132559032Y-124188500D01*
X138000000Y-132000000D02*
X138000000Y-129964870D01*
X132220000Y-132555000D02*
X132220000Y-133925000D01*
X132220000Y-132780000D02*
X132500000Y-132500000D01*
X137000000Y-130924870D02*
X137020000Y-130944870D01*
X137000000Y-127500000D02*
X138235000Y-128735000D01*
X132220000Y-133925000D02*
X132220000Y-132780000D01*
X137000000Y-129975000D02*
X137000000Y-130924870D01*
X138235000Y-129729870D02*
X138000000Y-129964870D01*
X131820000Y-123095000D02*
X131950000Y-123225000D01*
X132559032Y-124188500D02*
X136688500Y-124188500D01*
X136688500Y-124188500D02*
X137000000Y-124500000D01*
X138235000Y-128735000D02*
X138235000Y-129729870D01*
X137020000Y-130944870D02*
X137020000Y-133925000D01*
X138000000Y-129964870D02*
X137020000Y-130944870D01*
X137000000Y-124500000D02*
X137000000Y-127500000D01*
X131950000Y-123225000D02*
X131950000Y-123579468D01*
X138235000Y-125735000D02*
X138235000Y-128735000D01*
%TO.N,Net-(U1-XIN)*%
X134824726Y-116835000D02*
X135103226Y-117113500D01*
X135103226Y-117113500D02*
X137094774Y-117113500D01*
X137300000Y-116908274D02*
X137300000Y-116375000D01*
X132000000Y-116835000D02*
X134824726Y-116835000D01*
X137094774Y-117113500D02*
X137300000Y-116908274D01*
%TO.N,Net-(R3-Pad1)*%
X131943200Y-117418200D02*
X132000000Y-117475000D01*
X128500000Y-117418200D02*
X131943200Y-117418200D01*
%TO.N,Net-(U1-XOUT)*%
X132000000Y-112025000D02*
X129025000Y-112025000D01*
X137700000Y-115841726D02*
X137700000Y-116375000D01*
X135799998Y-114639498D02*
X136797000Y-115636500D01*
X135799998Y-113000000D02*
X135799998Y-114639498D01*
X132975000Y-112025000D02*
X133000000Y-112000000D01*
X137494774Y-115636500D02*
X137700000Y-115841726D01*
X132000000Y-112025000D02*
X132975000Y-112025000D01*
X129025000Y-112025000D02*
X128500000Y-111500000D01*
X136797000Y-115636500D02*
X137494774Y-115636500D01*
X135399999Y-112600001D02*
X135799998Y-113000000D01*
%TD*%
%TA.AperFunction,Conductor*%
%TO.N,GND*%
G36*
X136538283Y-124608685D02*
G01*
X136558915Y-124625308D01*
X136563171Y-124629563D01*
X136596663Y-124690883D01*
X136599500Y-124717255D01*
X136599500Y-127447273D01*
X136599500Y-127552727D01*
X136606555Y-127579056D01*
X136626793Y-127654589D01*
X136653156Y-127700250D01*
X136679520Y-127745913D01*
X136679521Y-127745914D01*
X136679522Y-127745915D01*
X137798181Y-128864573D01*
X137831666Y-128925896D01*
X137834500Y-128952254D01*
X137834500Y-129512615D01*
X137825855Y-129542055D01*
X137819332Y-129572042D01*
X137815577Y-129577057D01*
X137814815Y-129579654D01*
X137798181Y-129600296D01*
X137754087Y-129644390D01*
X137721334Y-129677143D01*
X137694203Y-129704274D01*
X137632879Y-129737758D01*
X137563187Y-129732773D01*
X137507254Y-129690902D01*
X137482838Y-129625437D01*
X137484049Y-129597194D01*
X137500000Y-129496486D01*
X137500000Y-129485000D01*
X137305407Y-129485000D01*
X137249112Y-129471485D01*
X137225301Y-129459352D01*
X137131524Y-129444500D01*
X136868482Y-129444500D01*
X136774696Y-129459354D01*
X136750886Y-129471486D01*
X136694593Y-129485000D01*
X136305407Y-129485000D01*
X136249112Y-129471485D01*
X136225301Y-129459352D01*
X136131524Y-129444500D01*
X135868482Y-129444500D01*
X135774696Y-129459354D01*
X135750886Y-129471486D01*
X135694593Y-129485000D01*
X135500001Y-129485000D01*
X135500001Y-129496479D01*
X135514835Y-129590150D01*
X135518915Y-129598157D01*
X135531810Y-129666827D01*
X135518917Y-129710738D01*
X135514354Y-129719693D01*
X135514353Y-129719697D01*
X135499500Y-129813475D01*
X135499500Y-130136517D01*
X135506724Y-130182125D01*
X135514354Y-130230304D01*
X135571950Y-130343342D01*
X135571952Y-130343344D01*
X135571954Y-130343347D01*
X135661652Y-130433045D01*
X135661654Y-130433046D01*
X135661658Y-130433050D01*
X135741136Y-130473546D01*
X135774698Y-130490647D01*
X135864898Y-130504933D01*
X135928032Y-130534862D01*
X135964964Y-130594173D01*
X135969500Y-130627406D01*
X135969500Y-131284589D01*
X135968639Y-131287518D01*
X135969360Y-131290488D01*
X135958857Y-131320834D01*
X135949815Y-131351628D01*
X135947507Y-131353627D01*
X135946508Y-131356515D01*
X135921266Y-131376365D01*
X135897011Y-131397383D01*
X135893988Y-131397817D01*
X135891587Y-131399706D01*
X135859632Y-131402757D01*
X135827853Y-131407327D01*
X135825073Y-131406057D01*
X135822034Y-131406348D01*
X135793503Y-131391640D01*
X135764297Y-131378302D01*
X135761826Y-131375310D01*
X135759931Y-131374333D01*
X135738113Y-131346590D01*
X135733351Y-131338342D01*
X135710104Y-131298077D01*
X135690480Y-131264087D01*
X135615913Y-131189520D01*
X135615912Y-131189519D01*
X135611582Y-131185189D01*
X135611571Y-131185179D01*
X133682721Y-129256328D01*
X133599906Y-129173513D01*
X135500000Y-129173513D01*
X135500000Y-129185000D01*
X135850000Y-129185000D01*
X135850000Y-128807932D01*
X136150000Y-128807932D01*
X136150000Y-129185000D01*
X136850000Y-129185000D01*
X137150000Y-129185000D01*
X137499999Y-129185000D01*
X137499999Y-129173520D01*
X137485164Y-129079850D01*
X137485162Y-129079844D01*
X137427643Y-128966958D01*
X137427636Y-128966949D01*
X137338050Y-128877363D01*
X137338046Y-128877360D01*
X137225144Y-128819833D01*
X137150000Y-128807932D01*
X137150000Y-129185000D01*
X136850000Y-129185000D01*
X136850000Y-128807932D01*
X136774855Y-128819833D01*
X136661953Y-128877360D01*
X136661949Y-128877363D01*
X136587681Y-128951632D01*
X136526358Y-128985117D01*
X136456666Y-128980133D01*
X136412319Y-128951632D01*
X136338050Y-128877363D01*
X136338046Y-128877360D01*
X136225144Y-128819833D01*
X136150000Y-128807932D01*
X135850000Y-128807932D01*
X135774855Y-128819833D01*
X135661953Y-128877360D01*
X135661949Y-128877363D01*
X135572363Y-128966949D01*
X135572360Y-128966953D01*
X135514833Y-129079855D01*
X135500000Y-129173513D01*
X133599906Y-129173513D01*
X132709890Y-128283497D01*
X132676405Y-128222174D01*
X132681389Y-128152482D01*
X132723261Y-128096549D01*
X132788725Y-128072132D01*
X132829658Y-128076040D01*
X132920943Y-128100500D01*
X132920946Y-128100500D01*
X133079055Y-128100500D01*
X133079057Y-128100500D01*
X133231784Y-128059577D01*
X133368716Y-127980520D01*
X133480520Y-127868716D01*
X133559577Y-127731784D01*
X133600500Y-127579057D01*
X133600500Y-127420943D01*
X133559577Y-127268216D01*
X133559573Y-127268209D01*
X133480524Y-127131290D01*
X133480518Y-127131282D01*
X133368718Y-127019482D01*
X133368716Y-127019480D01*
X133368713Y-127019478D01*
X133368709Y-127019475D01*
X133362499Y-127015890D01*
X133314284Y-126965323D01*
X133300500Y-126908504D01*
X133300500Y-126450128D01*
X133320185Y-126383089D01*
X133350866Y-126350357D01*
X133372150Y-126334650D01*
X133452793Y-126225382D01*
X133478007Y-126153324D01*
X133497646Y-126097201D01*
X133497646Y-126097199D01*
X133500500Y-126066769D01*
X133500500Y-124933230D01*
X133497646Y-124902800D01*
X133497646Y-124902798D01*
X133466119Y-124812702D01*
X133452793Y-124774618D01*
X133452787Y-124774610D01*
X133450847Y-124770937D01*
X133449935Y-124766451D01*
X133449724Y-124765848D01*
X133449806Y-124765819D01*
X133436928Y-124702468D01*
X133462236Y-124637342D01*
X133518735Y-124596238D01*
X133560480Y-124589000D01*
X136471244Y-124589000D01*
X136538283Y-124608685D01*
G37*
%TD.AperFunction*%
%TA.AperFunction,Conductor*%
G36*
X135017941Y-119420185D02*
G01*
X135063696Y-119472989D01*
X135073640Y-119542147D01*
X135044615Y-119605703D01*
X135038583Y-119612181D01*
X135019481Y-119631282D01*
X135019475Y-119631290D01*
X134940426Y-119768209D01*
X134940423Y-119768216D01*
X134899500Y-119920943D01*
X134899500Y-120079056D01*
X134940423Y-120231783D01*
X134940426Y-120231790D01*
X135019475Y-120368709D01*
X135024426Y-120375161D01*
X135022628Y-120376540D01*
X135050489Y-120427563D01*
X135045505Y-120497255D01*
X135017004Y-120541602D01*
X133307617Y-122250988D01*
X133246294Y-122284473D01*
X133178982Y-122280349D01*
X133134696Y-122264853D01*
X133104270Y-122262000D01*
X133104266Y-122262000D01*
X132695734Y-122262000D01*
X132695730Y-122262000D01*
X132665300Y-122264853D01*
X132665298Y-122264853D01*
X132537119Y-122309706D01*
X132537118Y-122309707D01*
X132498633Y-122338110D01*
X132479632Y-122345049D01*
X132462892Y-122356408D01*
X132447480Y-122356792D01*
X132433003Y-122362080D01*
X132413266Y-122357645D01*
X132393044Y-122358150D01*
X132373339Y-122348675D01*
X132364833Y-122346764D01*
X132360583Y-122344294D01*
X132355833Y-122341406D01*
X132312882Y-122309707D01*
X132291232Y-122302131D01*
X132280083Y-122295353D01*
X132264982Y-122278780D01*
X132246767Y-122265714D01*
X132241908Y-122253455D01*
X132233026Y-122243707D01*
X132229282Y-122221602D01*
X132221022Y-122200761D01*
X132220500Y-122189398D01*
X132220500Y-121947254D01*
X132240185Y-121880215D01*
X132256815Y-121859576D01*
X132278050Y-121838342D01*
X132335646Y-121725304D01*
X132335646Y-121725302D01*
X132335647Y-121725301D01*
X132350499Y-121631524D01*
X132350500Y-121631519D01*
X132350499Y-121368482D01*
X132335646Y-121274696D01*
X132278050Y-121161658D01*
X132278046Y-121161654D01*
X132278045Y-121161652D01*
X132188347Y-121071954D01*
X132188344Y-121071952D01*
X132188342Y-121071950D01*
X132095217Y-121024500D01*
X132075301Y-121014352D01*
X131981524Y-120999500D01*
X131658482Y-120999500D01*
X131564693Y-121014354D01*
X131564690Y-121014355D01*
X131555738Y-121018917D01*
X131487068Y-121031809D01*
X131443155Y-121018914D01*
X131435150Y-121014835D01*
X131435146Y-121014834D01*
X131341486Y-121000000D01*
X131330000Y-121000000D01*
X131330000Y-121194592D01*
X131316486Y-121250885D01*
X131304353Y-121274697D01*
X131304352Y-121274698D01*
X131289500Y-121368475D01*
X131289500Y-121368480D01*
X131289500Y-121368481D01*
X131289501Y-121631518D01*
X131297892Y-121684500D01*
X131304354Y-121725304D01*
X131304355Y-121725306D01*
X131316484Y-121749110D01*
X131330000Y-121805406D01*
X131330000Y-121999999D01*
X131344341Y-122014340D01*
X131362539Y-122019684D01*
X131368466Y-122026524D01*
X131376703Y-122030286D01*
X131390992Y-122052520D01*
X131408294Y-122072488D01*
X131410581Y-122083002D01*
X131414477Y-122089064D01*
X131419499Y-122123995D01*
X131419500Y-122123999D01*
X131419500Y-122154756D01*
X131399815Y-122221795D01*
X131347011Y-122267550D01*
X131277853Y-122277494D01*
X131254547Y-122271798D01*
X131234699Y-122264853D01*
X131204270Y-122262000D01*
X131204266Y-122262000D01*
X131024500Y-122262000D01*
X131015814Y-122259449D01*
X131006853Y-122260738D01*
X130982812Y-122249759D01*
X130957461Y-122242315D01*
X130951533Y-122235474D01*
X130943297Y-122231713D01*
X130929007Y-122209478D01*
X130911706Y-122189511D01*
X130909418Y-122178996D01*
X130905523Y-122172935D01*
X130900500Y-122138000D01*
X130900500Y-122123999D01*
X130920185Y-122056960D01*
X130972989Y-122011205D01*
X131024491Y-121999999D01*
X131030000Y-121999998D01*
X131030000Y-120999999D01*
X131024509Y-121000000D01*
X131015818Y-120997448D01*
X131006853Y-120998738D01*
X130982817Y-120987761D01*
X130957468Y-120980320D01*
X130951536Y-120973475D01*
X130943297Y-120969713D01*
X130929011Y-120947484D01*
X130911709Y-120927519D01*
X130909420Y-120916999D01*
X130905523Y-120910935D01*
X130900500Y-120876000D01*
X130900500Y-120717255D01*
X130920185Y-120650216D01*
X130936819Y-120629574D01*
X132129574Y-119436819D01*
X132190897Y-119403334D01*
X132217255Y-119400500D01*
X134950902Y-119400500D01*
X135017941Y-119420185D01*
G37*
%TD.AperFunction*%
%TA.AperFunction,Conductor*%
G36*
X139509861Y-110219947D02*
G01*
X139514390Y-110219173D01*
X139518601Y-110220409D01*
X139524109Y-110220701D01*
X139539950Y-110223840D01*
X139548607Y-110228073D01*
X139596524Y-110235054D01*
X139599609Y-110235666D01*
X139627879Y-110250430D01*
X139656878Y-110263739D01*
X139658642Y-110266495D01*
X139661542Y-110268010D01*
X139677345Y-110295718D01*
X139694542Y-110322588D01*
X139694535Y-110325859D01*
X139696157Y-110328702D01*
X139699500Y-110357300D01*
X139699500Y-111971637D01*
X139691834Y-112010179D01*
X139692527Y-112010365D01*
X139690423Y-112018214D01*
X139690423Y-112018216D01*
X139649500Y-112170943D01*
X139649500Y-112329057D01*
X139690085Y-112480520D01*
X139690423Y-112481783D01*
X139690426Y-112481790D01*
X139769475Y-112618709D01*
X139769479Y-112618714D01*
X139769480Y-112618716D01*
X139881284Y-112730520D01*
X139881286Y-112730521D01*
X139881290Y-112730524D01*
X140008199Y-112803794D01*
X140018216Y-112809577D01*
X140170943Y-112850500D01*
X140170945Y-112850500D01*
X140329054Y-112850500D01*
X140329057Y-112850500D01*
X140461720Y-112814953D01*
X140493667Y-112815713D01*
X140525609Y-112814875D01*
X140528355Y-112816539D01*
X140531566Y-112816616D01*
X140558031Y-112834527D01*
X140585358Y-112851092D01*
X140587793Y-112854670D01*
X140589429Y-112855778D01*
X140605213Y-112880272D01*
X140606568Y-112883044D01*
X140618324Y-112951918D01*
X140611093Y-112976544D01*
X140612270Y-112976908D01*
X140609425Y-112986111D01*
X140599500Y-113054239D01*
X140599500Y-113220760D01*
X140609425Y-113288888D01*
X140612270Y-113298092D01*
X140609294Y-113299011D01*
X140618323Y-113351925D01*
X140611094Y-113376544D01*
X140612270Y-113376908D01*
X140609425Y-113386111D01*
X140599500Y-113454239D01*
X140599500Y-113620760D01*
X140609425Y-113688888D01*
X140612270Y-113698092D01*
X140609294Y-113699011D01*
X140618323Y-113751925D01*
X140611094Y-113776544D01*
X140612270Y-113776908D01*
X140609425Y-113786111D01*
X140599500Y-113854239D01*
X140599500Y-114020760D01*
X140609425Y-114088888D01*
X140612270Y-114098092D01*
X140609294Y-114099011D01*
X140618323Y-114151925D01*
X140611094Y-114176544D01*
X140612270Y-114176908D01*
X140609425Y-114186111D01*
X140599500Y-114254239D01*
X140599500Y-114420760D01*
X140609425Y-114488888D01*
X140612270Y-114498092D01*
X140609294Y-114499011D01*
X140618323Y-114551925D01*
X140611094Y-114576544D01*
X140612270Y-114576908D01*
X140609425Y-114586111D01*
X140599500Y-114654239D01*
X140599500Y-114820760D01*
X140609425Y-114888888D01*
X140612270Y-114898092D01*
X140609294Y-114899011D01*
X140618323Y-114951925D01*
X140611094Y-114976544D01*
X140612270Y-114976908D01*
X140609425Y-114986111D01*
X140599500Y-115054239D01*
X140599500Y-115220760D01*
X140609425Y-115288888D01*
X140612270Y-115298092D01*
X140609333Y-115298999D01*
X140618394Y-115351308D01*
X140616001Y-115372657D01*
X140609427Y-115386107D01*
X140599500Y-115454240D01*
X140599500Y-115519927D01*
X140598729Y-115526808D01*
X140587783Y-115552901D01*
X140579815Y-115580039D01*
X140574450Y-115584687D01*
X140571702Y-115591239D01*
X140548384Y-115607274D01*
X140527011Y-115625794D01*
X140518880Y-115627562D01*
X140514131Y-115630829D01*
X140502146Y-115631203D01*
X140475500Y-115637000D01*
X140416739Y-115637000D01*
X140348611Y-115646925D01*
X140339408Y-115649770D01*
X140338488Y-115646794D01*
X140285575Y-115655823D01*
X140260955Y-115648594D01*
X140260592Y-115649770D01*
X140251388Y-115646925D01*
X140183261Y-115637000D01*
X140183260Y-115637000D01*
X140016740Y-115637000D01*
X140016739Y-115637000D01*
X139948611Y-115646925D01*
X139939408Y-115649770D01*
X139938488Y-115646794D01*
X139885575Y-115655823D01*
X139860955Y-115648594D01*
X139860592Y-115649770D01*
X139851388Y-115646925D01*
X139783261Y-115637000D01*
X139783260Y-115637000D01*
X139616740Y-115637000D01*
X139616739Y-115637000D01*
X139548611Y-115646925D01*
X139539408Y-115649770D01*
X139538488Y-115646794D01*
X139485575Y-115655823D01*
X139460955Y-115648594D01*
X139460592Y-115649770D01*
X139451388Y-115646925D01*
X139383261Y-115637000D01*
X139383260Y-115637000D01*
X139216740Y-115637000D01*
X139216739Y-115637000D01*
X139148611Y-115646925D01*
X139139408Y-115649770D01*
X139138488Y-115646794D01*
X139085575Y-115655823D01*
X139060955Y-115648594D01*
X139060592Y-115649770D01*
X139051388Y-115646925D01*
X138983261Y-115637000D01*
X138983260Y-115637000D01*
X138816740Y-115637000D01*
X138816739Y-115637000D01*
X138748611Y-115646925D01*
X138739408Y-115649770D01*
X138738488Y-115646794D01*
X138685575Y-115655823D01*
X138660955Y-115648594D01*
X138660592Y-115649770D01*
X138651388Y-115646925D01*
X138583261Y-115637000D01*
X138583260Y-115637000D01*
X138416740Y-115637000D01*
X138416739Y-115637000D01*
X138348611Y-115646925D01*
X138339408Y-115649770D01*
X138338516Y-115646886D01*
X138287030Y-115655985D01*
X138265232Y-115653692D01*
X138251393Y-115646927D01*
X138183260Y-115637000D01*
X138106524Y-115637000D01*
X138100059Y-115636320D01*
X138073518Y-115625398D01*
X138045990Y-115617315D01*
X138037760Y-115610683D01*
X138035446Y-115609731D01*
X138033991Y-115607645D01*
X138025348Y-115600681D01*
X137740689Y-115316022D01*
X137740687Y-115316020D01*
X137695024Y-115289656D01*
X137649363Y-115263293D01*
X137598431Y-115249646D01*
X137547501Y-115236000D01*
X137547500Y-115236000D01*
X137014254Y-115236000D01*
X136947215Y-115216315D01*
X136926573Y-115199681D01*
X136236817Y-114509924D01*
X136203332Y-114448601D01*
X136200498Y-114422243D01*
X136200498Y-112947272D01*
X136198664Y-112940427D01*
X136194024Y-112923110D01*
X136173205Y-112845412D01*
X136120478Y-112754087D01*
X136036818Y-112670427D01*
X136003333Y-112609104D01*
X136000499Y-112582746D01*
X136000499Y-112520946D01*
X136000499Y-112520944D01*
X135959576Y-112368217D01*
X135936967Y-112329056D01*
X135880523Y-112231291D01*
X135880517Y-112231283D01*
X135768716Y-112119482D01*
X135768708Y-112119476D01*
X135631789Y-112040427D01*
X135631785Y-112040425D01*
X135631783Y-112040424D01*
X135479056Y-111999501D01*
X135324500Y-111999501D01*
X135257461Y-111979816D01*
X135211706Y-111927012D01*
X135201740Y-111892994D01*
X135200500Y-111884292D01*
X135200500Y-111854240D01*
X135190573Y-111786107D01*
X135184836Y-111774373D01*
X135182075Y-111754993D01*
X135184392Y-111739019D01*
X135181673Y-111723110D01*
X135188910Y-111698460D01*
X135187730Y-111698096D01*
X135190571Y-111688899D01*
X135190571Y-111688896D01*
X135190573Y-111688893D01*
X135200500Y-111620760D01*
X135200500Y-111454240D01*
X135190573Y-111386107D01*
X135190571Y-111386104D01*
X135190571Y-111386100D01*
X135187730Y-111376904D01*
X135190709Y-111375983D01*
X135181673Y-111323110D01*
X135188910Y-111298460D01*
X135187730Y-111298096D01*
X135190571Y-111288899D01*
X135190571Y-111288896D01*
X135190573Y-111288893D01*
X135200500Y-111220760D01*
X135200500Y-111054240D01*
X135190573Y-110986107D01*
X135190571Y-110986104D01*
X135190571Y-110986100D01*
X135187730Y-110976904D01*
X135190709Y-110975983D01*
X135181673Y-110923110D01*
X135188910Y-110898460D01*
X135187730Y-110898096D01*
X135190571Y-110888899D01*
X135190571Y-110888896D01*
X135190573Y-110888893D01*
X135200500Y-110820760D01*
X135200500Y-110654240D01*
X135190573Y-110586107D01*
X135190571Y-110586104D01*
X135190571Y-110586100D01*
X135187730Y-110576904D01*
X135190672Y-110575994D01*
X135181606Y-110523692D01*
X135183998Y-110502341D01*
X135190573Y-110488893D01*
X135200500Y-110420760D01*
X135200500Y-110355072D01*
X135201271Y-110348192D01*
X135212216Y-110322098D01*
X135220185Y-110294961D01*
X135225549Y-110290312D01*
X135228298Y-110283761D01*
X135251615Y-110267725D01*
X135272989Y-110249206D01*
X135281119Y-110247437D01*
X135285869Y-110244171D01*
X135297853Y-110243796D01*
X135324500Y-110238000D01*
X135383255Y-110238000D01*
X135383260Y-110238000D01*
X135451393Y-110228073D01*
X135451396Y-110228071D01*
X135451399Y-110228071D01*
X135460596Y-110225230D01*
X135461516Y-110228209D01*
X135514390Y-110219173D01*
X135539039Y-110226410D01*
X135539404Y-110225230D01*
X135548600Y-110228071D01*
X135548604Y-110228071D01*
X135548607Y-110228073D01*
X135616740Y-110238000D01*
X135616745Y-110238000D01*
X135783255Y-110238000D01*
X135783260Y-110238000D01*
X135851393Y-110228073D01*
X135851396Y-110228071D01*
X135851399Y-110228071D01*
X135860596Y-110225230D01*
X135861516Y-110228209D01*
X135914390Y-110219173D01*
X135939039Y-110226410D01*
X135939404Y-110225230D01*
X135948600Y-110228071D01*
X135948604Y-110228071D01*
X135948607Y-110228073D01*
X136016740Y-110238000D01*
X136016745Y-110238000D01*
X136183255Y-110238000D01*
X136183260Y-110238000D01*
X136251393Y-110228073D01*
X136251396Y-110228071D01*
X136251399Y-110228071D01*
X136260596Y-110225230D01*
X136261516Y-110228209D01*
X136314390Y-110219173D01*
X136339039Y-110226410D01*
X136339404Y-110225230D01*
X136348600Y-110228071D01*
X136348604Y-110228071D01*
X136348607Y-110228073D01*
X136416740Y-110238000D01*
X136416745Y-110238000D01*
X136583255Y-110238000D01*
X136583260Y-110238000D01*
X136651393Y-110228073D01*
X136651396Y-110228071D01*
X136651399Y-110228071D01*
X136660596Y-110225230D01*
X136661516Y-110228209D01*
X136714390Y-110219173D01*
X136739039Y-110226410D01*
X136739404Y-110225230D01*
X136748600Y-110228071D01*
X136748604Y-110228071D01*
X136748607Y-110228073D01*
X136816740Y-110238000D01*
X136816745Y-110238000D01*
X136983255Y-110238000D01*
X136983260Y-110238000D01*
X137051393Y-110228073D01*
X137051396Y-110228071D01*
X137051399Y-110228071D01*
X137060596Y-110225230D01*
X137061516Y-110228209D01*
X137114390Y-110219173D01*
X137139039Y-110226410D01*
X137139404Y-110225230D01*
X137148600Y-110228071D01*
X137148604Y-110228071D01*
X137148607Y-110228073D01*
X137216740Y-110238000D01*
X137216745Y-110238000D01*
X137383255Y-110238000D01*
X137383260Y-110238000D01*
X137451393Y-110228073D01*
X137451396Y-110228071D01*
X137451399Y-110228071D01*
X137460596Y-110225230D01*
X137461516Y-110228209D01*
X137514390Y-110219173D01*
X137539039Y-110226410D01*
X137539404Y-110225230D01*
X137548600Y-110228071D01*
X137548604Y-110228071D01*
X137548607Y-110228073D01*
X137616740Y-110238000D01*
X137616745Y-110238000D01*
X137783255Y-110238000D01*
X137783260Y-110238000D01*
X137851393Y-110228073D01*
X137851396Y-110228071D01*
X137851399Y-110228071D01*
X137860596Y-110225230D01*
X137861516Y-110228209D01*
X137914390Y-110219173D01*
X137925937Y-110221078D01*
X137940803Y-110224257D01*
X137948607Y-110228073D01*
X137980071Y-110232657D01*
X137984067Y-110233512D01*
X138011324Y-110248273D01*
X138039507Y-110261207D01*
X138041787Y-110264770D01*
X138045506Y-110266784D01*
X138060456Y-110293937D01*
X138077172Y-110320055D01*
X138077164Y-110324284D01*
X138079204Y-110327990D01*
X138077099Y-110358924D01*
X138077042Y-110389925D01*
X138074725Y-110393820D01*
X138074462Y-110397699D01*
X138064250Y-110411438D01*
X138045813Y-110442449D01*
X138019478Y-110468784D01*
X138019475Y-110468788D01*
X137940426Y-110605707D01*
X137940423Y-110605714D01*
X137899500Y-110758441D01*
X137899500Y-110916555D01*
X137937823Y-111059576D01*
X137940423Y-111069281D01*
X137940426Y-111069288D01*
X138019475Y-111206207D01*
X138019479Y-111206212D01*
X138019480Y-111206214D01*
X138131284Y-111318018D01*
X138131286Y-111318019D01*
X138131290Y-111318022D01*
X138249219Y-111386107D01*
X138268216Y-111397075D01*
X138420943Y-111437998D01*
X138420945Y-111437998D01*
X138579055Y-111437998D01*
X138579057Y-111437998D01*
X138731784Y-111397075D01*
X138868716Y-111318018D01*
X138980520Y-111206214D01*
X139059577Y-111069282D01*
X139100500Y-110916555D01*
X139100500Y-110758441D01*
X139059577Y-110605714D01*
X139047260Y-110584380D01*
X139040695Y-110557319D01*
X139030964Y-110531236D01*
X139032572Y-110523838D01*
X139030787Y-110516479D01*
X139039894Y-110490165D01*
X139045810Y-110462962D01*
X139052321Y-110454263D01*
X139053640Y-110450453D01*
X139066959Y-110434706D01*
X139221480Y-110280186D01*
X139221515Y-110280124D01*
X139227313Y-110274326D01*
X139251171Y-110261295D01*
X139273146Y-110245277D01*
X139283936Y-110243400D01*
X139288633Y-110240836D01*
X139295760Y-110241345D01*
X139315001Y-110238000D01*
X139383255Y-110238000D01*
X139383260Y-110238000D01*
X139451393Y-110228073D01*
X139451396Y-110228071D01*
X139451399Y-110228071D01*
X139460596Y-110225230D01*
X139461516Y-110228209D01*
X139467818Y-110227132D01*
X139488864Y-110218836D01*
X139509861Y-110219947D01*
G37*
%TD.AperFunction*%
%TA.AperFunction,Conductor*%
G36*
X153942539Y-86520185D02*
G01*
X153988294Y-86572989D01*
X153999500Y-86624500D01*
X153999500Y-140375500D01*
X153979815Y-140442539D01*
X153927011Y-140488294D01*
X153875500Y-140499500D01*
X151224833Y-140499500D01*
X151157794Y-140479815D01*
X151112039Y-140427011D01*
X151102095Y-140357853D01*
X151131120Y-140294297D01*
X151137152Y-140287819D01*
X151152206Y-140272765D01*
X151197585Y-140169991D01*
X151200500Y-140144865D01*
X151200499Y-137955136D01*
X151200497Y-137955117D01*
X151197586Y-137930012D01*
X151197585Y-137930010D01*
X151197585Y-137930009D01*
X151152206Y-137827235D01*
X151072765Y-137747794D01*
X151072763Y-137747793D01*
X150969992Y-137702415D01*
X150944865Y-137699500D01*
X147855143Y-137699500D01*
X147855117Y-137699502D01*
X147830012Y-137702413D01*
X147830008Y-137702415D01*
X147727235Y-137747793D01*
X147647794Y-137827234D01*
X147602415Y-137930006D01*
X147602415Y-137930008D01*
X147599500Y-137955131D01*
X147599500Y-140144856D01*
X147599502Y-140144882D01*
X147602413Y-140169987D01*
X147602415Y-140169991D01*
X147647793Y-140272764D01*
X147662848Y-140287819D01*
X147696333Y-140349142D01*
X147691349Y-140418834D01*
X147649477Y-140474767D01*
X147584013Y-140499184D01*
X147575167Y-140499500D01*
X123124500Y-140499500D01*
X123057461Y-140479815D01*
X123011706Y-140427011D01*
X123000500Y-140375500D01*
X123000500Y-137635131D01*
X128449500Y-137635131D01*
X128449500Y-139224856D01*
X128449502Y-139224882D01*
X128452413Y-139249987D01*
X128452415Y-139249991D01*
X128497793Y-139352764D01*
X128497794Y-139352765D01*
X128577235Y-139432206D01*
X128680009Y-139477585D01*
X128705135Y-139480500D01*
X130294864Y-139480499D01*
X130294879Y-139480497D01*
X130294882Y-139480497D01*
X130319987Y-139477586D01*
X130319988Y-139477585D01*
X130319991Y-139477585D01*
X130422765Y-139432206D01*
X130502206Y-139352765D01*
X130547585Y-139249991D01*
X130550500Y-139224865D01*
X130550499Y-137635136D01*
X130550499Y-137635135D01*
X130550499Y-137635131D01*
X138689500Y-137635131D01*
X138689500Y-139224856D01*
X138689502Y-139224882D01*
X138692413Y-139249987D01*
X138692415Y-139249991D01*
X138737793Y-139352764D01*
X138737794Y-139352765D01*
X138817235Y-139432206D01*
X138920009Y-139477585D01*
X138945135Y-139480500D01*
X140534864Y-139480499D01*
X140534879Y-139480497D01*
X140534882Y-139480497D01*
X140559987Y-139477586D01*
X140559988Y-139477585D01*
X140559991Y-139477585D01*
X140662765Y-139432206D01*
X140742206Y-139352765D01*
X140787585Y-139249991D01*
X140790500Y-139224865D01*
X140790499Y-137635136D01*
X140790497Y-137635117D01*
X140787586Y-137610012D01*
X140787585Y-137610010D01*
X140787585Y-137610009D01*
X140742206Y-137507235D01*
X140662765Y-137427794D01*
X140662763Y-137427793D01*
X140559992Y-137382415D01*
X140534865Y-137379500D01*
X138945143Y-137379500D01*
X138945117Y-137379502D01*
X138920012Y-137382413D01*
X138920008Y-137382415D01*
X138817235Y-137427793D01*
X138737794Y-137507234D01*
X138692415Y-137610006D01*
X138692415Y-137610008D01*
X138689500Y-137635131D01*
X130550499Y-137635131D01*
X130550499Y-137635130D01*
X130547586Y-137610012D01*
X130547585Y-137610010D01*
X130547585Y-137610009D01*
X130502206Y-137507235D01*
X130422765Y-137427794D01*
X130422763Y-137427793D01*
X130319992Y-137382415D01*
X130294865Y-137379500D01*
X128705143Y-137379500D01*
X128705117Y-137379502D01*
X128680012Y-137382413D01*
X128680008Y-137382415D01*
X128577235Y-137427793D01*
X128497794Y-137507234D01*
X128452415Y-137610006D01*
X128452415Y-137610008D01*
X128449500Y-137635131D01*
X123000500Y-137635131D01*
X123000500Y-133705131D01*
X128449500Y-133705131D01*
X128449500Y-135294856D01*
X128449502Y-135294882D01*
X128452413Y-135319987D01*
X128452415Y-135319991D01*
X128497793Y-135422764D01*
X128497794Y-135422765D01*
X128577235Y-135502206D01*
X128680009Y-135547585D01*
X128705135Y-135550500D01*
X130294864Y-135550499D01*
X130294879Y-135550497D01*
X130294882Y-135550497D01*
X130319987Y-135547586D01*
X130319988Y-135547585D01*
X130319991Y-135547585D01*
X130422765Y-135502206D01*
X130502206Y-135422765D01*
X130547585Y-135319991D01*
X130550500Y-135294865D01*
X130550499Y-133705136D01*
X130550497Y-133705117D01*
X130547586Y-133680012D01*
X130547585Y-133680010D01*
X130547585Y-133680009D01*
X130502206Y-133577235D01*
X130422765Y-133497794D01*
X130422763Y-133497793D01*
X130319992Y-133452415D01*
X130294865Y-133449500D01*
X128705143Y-133449500D01*
X128705117Y-133449502D01*
X128680012Y-133452413D01*
X128680008Y-133452415D01*
X128577235Y-133497793D01*
X128497794Y-133577234D01*
X128452415Y-133680006D01*
X128452415Y-133680008D01*
X128449500Y-133705131D01*
X123000500Y-133705131D01*
X123000500Y-131305000D01*
X129652935Y-131305000D01*
X129664835Y-131380149D01*
X129664837Y-131380155D01*
X129722356Y-131493041D01*
X129722363Y-131493050D01*
X129811949Y-131582636D01*
X129811953Y-131582639D01*
X129924856Y-131640166D01*
X130018504Y-131654998D01*
X130018521Y-131654999D01*
X130030000Y-131654998D01*
X130030000Y-131305000D01*
X129652935Y-131305000D01*
X123000500Y-131305000D01*
X123000500Y-131005000D01*
X129652932Y-131005000D01*
X130030000Y-131005000D01*
X130030000Y-130654999D01*
X130018526Y-130655000D01*
X130018525Y-130655000D01*
X129924850Y-130669835D01*
X129924844Y-130669837D01*
X129811958Y-130727356D01*
X129811949Y-130727363D01*
X129722363Y-130816949D01*
X129722360Y-130816953D01*
X129664833Y-130929855D01*
X129652932Y-131005000D01*
X123000500Y-131005000D01*
X123000500Y-107030131D01*
X127774500Y-107030131D01*
X127774500Y-107969856D01*
X127774502Y-107969882D01*
X127777413Y-107994987D01*
X127777415Y-107994991D01*
X127822793Y-108097764D01*
X127822794Y-108097765D01*
X127902235Y-108177206D01*
X128005009Y-108222585D01*
X128030135Y-108225500D01*
X128969864Y-108225499D01*
X128969879Y-108225497D01*
X128969882Y-108225497D01*
X128994986Y-108222586D01*
X128994987Y-108222585D01*
X128994991Y-108222585D01*
X129097765Y-108177206D01*
X129097766Y-108177204D01*
X129108277Y-108172564D01*
X129109050Y-108174315D01*
X129161995Y-108157055D01*
X129213104Y-108166438D01*
X129288380Y-108197619D01*
X129288384Y-108197619D01*
X129288385Y-108197620D01*
X129428542Y-108225500D01*
X129428545Y-108225500D01*
X129571457Y-108225500D01*
X129665751Y-108206742D01*
X129711620Y-108197619D01*
X129843653Y-108142929D01*
X129931109Y-108084493D01*
X129997786Y-108063615D01*
X130065167Y-108082099D01*
X130068891Y-108084493D01*
X130156340Y-108142925D01*
X130156346Y-108142928D01*
X130156347Y-108142929D01*
X130288380Y-108197619D01*
X130288384Y-108197619D01*
X130288385Y-108197620D01*
X130428542Y-108225500D01*
X130428545Y-108225500D01*
X130571457Y-108225500D01*
X130665751Y-108206742D01*
X130711620Y-108197619D01*
X130843653Y-108142929D01*
X130931109Y-108084493D01*
X130997786Y-108063615D01*
X131065167Y-108082099D01*
X131068891Y-108084493D01*
X131156340Y-108142925D01*
X131156346Y-108142928D01*
X131156347Y-108142929D01*
X131288380Y-108197619D01*
X131288384Y-108197619D01*
X131288385Y-108197620D01*
X131428542Y-108225500D01*
X131428545Y-108225500D01*
X131571457Y-108225500D01*
X131665751Y-108206742D01*
X131711620Y-108197619D01*
X131843653Y-108142929D01*
X131962479Y-108063532D01*
X132063532Y-107962479D01*
X132142929Y-107843653D01*
X132197619Y-107711620D01*
X132225500Y-107571455D01*
X132225500Y-107428545D01*
X132225500Y-107428542D01*
X132197620Y-107288385D01*
X132197619Y-107288384D01*
X132197619Y-107288380D01*
X132142929Y-107156347D01*
X132142928Y-107156346D01*
X132142925Y-107156340D01*
X132063532Y-107037521D01*
X132063529Y-107037517D01*
X131962482Y-106936470D01*
X131962478Y-106936467D01*
X131843659Y-106857074D01*
X131843650Y-106857069D01*
X131711620Y-106802381D01*
X131711614Y-106802379D01*
X131571457Y-106774500D01*
X131571455Y-106774500D01*
X131428545Y-106774500D01*
X131428543Y-106774500D01*
X131288385Y-106802379D01*
X131288379Y-106802381D01*
X131156349Y-106857069D01*
X131156342Y-106857073D01*
X131068890Y-106915507D01*
X131002213Y-106936384D01*
X130934833Y-106917899D01*
X130931110Y-106915507D01*
X130843657Y-106857073D01*
X130843650Y-106857069D01*
X130711620Y-106802381D01*
X130711614Y-106802379D01*
X130571457Y-106774500D01*
X130571455Y-106774500D01*
X130428545Y-106774500D01*
X130428543Y-106774500D01*
X130288385Y-106802379D01*
X130288379Y-106802381D01*
X130156349Y-106857069D01*
X130156342Y-106857073D01*
X130068890Y-106915507D01*
X130002213Y-106936384D01*
X129934833Y-106917899D01*
X129931110Y-106915507D01*
X129843657Y-106857073D01*
X129843650Y-106857069D01*
X129711620Y-106802381D01*
X129711614Y-106802379D01*
X129571457Y-106774500D01*
X129571455Y-106774500D01*
X129428545Y-106774500D01*
X129428543Y-106774500D01*
X129288385Y-106802379D01*
X129288379Y-106802381D01*
X129213110Y-106833559D01*
X129143640Y-106841028D01*
X129108620Y-106826651D01*
X129108275Y-106827435D01*
X129097765Y-106822794D01*
X129051529Y-106802379D01*
X128994992Y-106777415D01*
X128969865Y-106774500D01*
X128030143Y-106774500D01*
X128030117Y-106774502D01*
X128005012Y-106777413D01*
X128005008Y-106777415D01*
X127902235Y-106822793D01*
X127822794Y-106902234D01*
X127777415Y-107005006D01*
X127777415Y-107005008D01*
X127774500Y-107030131D01*
X123000500Y-107030131D01*
X123000500Y-105374785D01*
X123276001Y-105374785D01*
X123276002Y-105374808D01*
X123278908Y-105399869D01*
X123278909Y-105399873D01*
X123324211Y-105502474D01*
X123324214Y-105502479D01*
X123403520Y-105581785D01*
X123403525Y-105581788D01*
X123506123Y-105627089D01*
X123531206Y-105629999D01*
X124175999Y-105629999D01*
X124476000Y-105629999D01*
X125120786Y-105629999D01*
X125120808Y-105629997D01*
X125145869Y-105627091D01*
X125145873Y-105627090D01*
X125248474Y-105581788D01*
X125248479Y-105581785D01*
X125327785Y-105502479D01*
X125327788Y-105502474D01*
X125373089Y-105399877D01*
X125373089Y-105399875D01*
X125375999Y-105374794D01*
X125376000Y-105374791D01*
X125376000Y-105030000D01*
X124476000Y-105030000D01*
X124476000Y-105629999D01*
X124175999Y-105629999D01*
X124176000Y-105629998D01*
X124176000Y-105030000D01*
X123276001Y-105030000D01*
X123276001Y-105374785D01*
X123000500Y-105374785D01*
X123000500Y-92385131D01*
X123275500Y-92385131D01*
X123275500Y-93374856D01*
X123275502Y-93374882D01*
X123278413Y-93399987D01*
X123278415Y-93399991D01*
X123323793Y-93502764D01*
X123363348Y-93542319D01*
X123396833Y-93603642D01*
X123391849Y-93673334D01*
X123363348Y-93717681D01*
X123323794Y-93757234D01*
X123278415Y-93860006D01*
X123278415Y-93860008D01*
X123275500Y-93885131D01*
X123275500Y-94874856D01*
X123275502Y-94874882D01*
X123278413Y-94899987D01*
X123278415Y-94899991D01*
X123323793Y-95002764D01*
X123363348Y-95042319D01*
X123396833Y-95103642D01*
X123391849Y-95173334D01*
X123363348Y-95217681D01*
X123323794Y-95257234D01*
X123278415Y-95360006D01*
X123278415Y-95360008D01*
X123275500Y-95385131D01*
X123275500Y-96374856D01*
X123275502Y-96374882D01*
X123278413Y-96399987D01*
X123278415Y-96399991D01*
X123323793Y-96502764D01*
X123363348Y-96542319D01*
X123396833Y-96603642D01*
X123391849Y-96673334D01*
X123363348Y-96717681D01*
X123323794Y-96757234D01*
X123278415Y-96860006D01*
X123278415Y-96860008D01*
X123275500Y-96885131D01*
X123275500Y-97874856D01*
X123275502Y-97874882D01*
X123278413Y-97899987D01*
X123278415Y-97899991D01*
X123323793Y-98002764D01*
X123363348Y-98042319D01*
X123396833Y-98103642D01*
X123391849Y-98173334D01*
X123363348Y-98217681D01*
X123323794Y-98257234D01*
X123278415Y-98360006D01*
X123278415Y-98360008D01*
X123275500Y-98385131D01*
X123275500Y-99374856D01*
X123275502Y-99374882D01*
X123278413Y-99399987D01*
X123278415Y-99399991D01*
X123323793Y-99502764D01*
X123363348Y-99542319D01*
X123396833Y-99603642D01*
X123391849Y-99673334D01*
X123363348Y-99717681D01*
X123323794Y-99757234D01*
X123278415Y-99860006D01*
X123278415Y-99860008D01*
X123275500Y-99885131D01*
X123275500Y-100874856D01*
X123275502Y-100874882D01*
X123278413Y-100899987D01*
X123278415Y-100899991D01*
X123323793Y-101002764D01*
X123363348Y-101042319D01*
X123396833Y-101103642D01*
X123391849Y-101173334D01*
X123363348Y-101217681D01*
X123323794Y-101257234D01*
X123278415Y-101360006D01*
X123278415Y-101360008D01*
X123275500Y-101385131D01*
X123275500Y-102374856D01*
X123275502Y-102374882D01*
X123278413Y-102399987D01*
X123278415Y-102399991D01*
X123323793Y-102502764D01*
X123363348Y-102542319D01*
X123396833Y-102603642D01*
X123391849Y-102673334D01*
X123363348Y-102717681D01*
X123323794Y-102757234D01*
X123278415Y-102860006D01*
X123278415Y-102860008D01*
X123275500Y-102885131D01*
X123275500Y-103874856D01*
X123275502Y-103874882D01*
X123278413Y-103899987D01*
X123278415Y-103899991D01*
X123323793Y-104002764D01*
X123363701Y-104042672D01*
X123397186Y-104103995D01*
X123392202Y-104173687D01*
X123363701Y-104218034D01*
X123324214Y-104257520D01*
X123324211Y-104257525D01*
X123278910Y-104360122D01*
X123278910Y-104360124D01*
X123276000Y-104385205D01*
X123276000Y-104730000D01*
X125375999Y-104730000D01*
X125375999Y-104385214D01*
X125375997Y-104385191D01*
X125373091Y-104360130D01*
X125373090Y-104360126D01*
X125327788Y-104257525D01*
X125327785Y-104257520D01*
X125288299Y-104218034D01*
X125254814Y-104156711D01*
X125259798Y-104087019D01*
X125288299Y-104042672D01*
X125288652Y-104042319D01*
X125328206Y-104002765D01*
X125373585Y-103899991D01*
X125376500Y-103874865D01*
X125376499Y-102885136D01*
X125375109Y-102873147D01*
X125373586Y-102860012D01*
X125373585Y-102860010D01*
X125373585Y-102860009D01*
X125328206Y-102757235D01*
X125288652Y-102717681D01*
X125255167Y-102656358D01*
X125260151Y-102586666D01*
X125288652Y-102542319D01*
X125328206Y-102502765D01*
X125373585Y-102399991D01*
X125376500Y-102374865D01*
X125376499Y-101385136D01*
X125374720Y-101369792D01*
X125373586Y-101360012D01*
X125373585Y-101360010D01*
X125373585Y-101360009D01*
X125328206Y-101257235D01*
X125288652Y-101217681D01*
X125255167Y-101156358D01*
X125260151Y-101086666D01*
X125288652Y-101042319D01*
X125328206Y-101002765D01*
X125373585Y-100899991D01*
X125376500Y-100874865D01*
X125376499Y-99885136D01*
X125375619Y-99877547D01*
X125373586Y-99860012D01*
X125373585Y-99860010D01*
X125373585Y-99860009D01*
X125328206Y-99757235D01*
X125288652Y-99717681D01*
X125255167Y-99656358D01*
X125260151Y-99586666D01*
X125288652Y-99542319D01*
X125328206Y-99502765D01*
X125373585Y-99399991D01*
X125376500Y-99374865D01*
X125376499Y-98385136D01*
X125375619Y-98377547D01*
X125373586Y-98360012D01*
X125373585Y-98360010D01*
X125373585Y-98360009D01*
X125328206Y-98257235D01*
X125288652Y-98217681D01*
X125255167Y-98156358D01*
X125260151Y-98086666D01*
X125288652Y-98042319D01*
X125328206Y-98002765D01*
X125373585Y-97899991D01*
X125376500Y-97874865D01*
X125376499Y-96885136D01*
X125375619Y-96877547D01*
X125373586Y-96860012D01*
X125373585Y-96860010D01*
X125373585Y-96860009D01*
X125328206Y-96757235D01*
X125288652Y-96717681D01*
X125255167Y-96656358D01*
X125260151Y-96586666D01*
X125288652Y-96542319D01*
X125328206Y-96502765D01*
X125373585Y-96399991D01*
X125376500Y-96374865D01*
X125376499Y-95385136D01*
X125375138Y-95373399D01*
X125373586Y-95360012D01*
X125373585Y-95360010D01*
X125373585Y-95360009D01*
X125328206Y-95257235D01*
X125288652Y-95217681D01*
X125255167Y-95156358D01*
X125260151Y-95086666D01*
X125288652Y-95042319D01*
X125308207Y-95022764D01*
X125328206Y-95002765D01*
X125373585Y-94899991D01*
X125376500Y-94874865D01*
X125376499Y-93885136D01*
X125375583Y-93877235D01*
X125373586Y-93860012D01*
X125373585Y-93860010D01*
X125373585Y-93860009D01*
X125328206Y-93757235D01*
X125288652Y-93717681D01*
X125255167Y-93656358D01*
X125260151Y-93586666D01*
X125288652Y-93542319D01*
X125328206Y-93502765D01*
X125373585Y-93399991D01*
X125376500Y-93374865D01*
X125376499Y-92653499D01*
X125396183Y-92586461D01*
X125448987Y-92540706D01*
X125500499Y-92529500D01*
X140651500Y-92529500D01*
X140718539Y-92549185D01*
X140764294Y-92601989D01*
X140775500Y-92653500D01*
X140775500Y-93374856D01*
X140775502Y-93374882D01*
X140778413Y-93399987D01*
X140778415Y-93399991D01*
X140823793Y-93502764D01*
X140863348Y-93542319D01*
X140896833Y-93603642D01*
X140891849Y-93673334D01*
X140863348Y-93717681D01*
X140823794Y-93757234D01*
X140778415Y-93860006D01*
X140778415Y-93860008D01*
X140775500Y-93885131D01*
X140775500Y-94874856D01*
X140775502Y-94874882D01*
X140778413Y-94899987D01*
X140778415Y-94899991D01*
X140823793Y-95002764D01*
X140863348Y-95042319D01*
X140896833Y-95103642D01*
X140891849Y-95173334D01*
X140863348Y-95217681D01*
X140823794Y-95257234D01*
X140778415Y-95360006D01*
X140778415Y-95360008D01*
X140775500Y-95385131D01*
X140775500Y-96374856D01*
X140775502Y-96374882D01*
X140778413Y-96399987D01*
X140778415Y-96399991D01*
X140823793Y-96502764D01*
X140863348Y-96542319D01*
X140896833Y-96603642D01*
X140891849Y-96673334D01*
X140863348Y-96717681D01*
X140823794Y-96757234D01*
X140778415Y-96860006D01*
X140778415Y-96860008D01*
X140775500Y-96885131D01*
X140775500Y-97874856D01*
X140775502Y-97874882D01*
X140778413Y-97899987D01*
X140778415Y-97899991D01*
X140823793Y-98002764D01*
X140863348Y-98042319D01*
X140896833Y-98103642D01*
X140891849Y-98173334D01*
X140863348Y-98217681D01*
X140823794Y-98257234D01*
X140778415Y-98360006D01*
X140778415Y-98360008D01*
X140775500Y-98385131D01*
X140775500Y-99374856D01*
X140775502Y-99374882D01*
X140778413Y-99399987D01*
X140778415Y-99399991D01*
X140823793Y-99502764D01*
X140863348Y-99542319D01*
X140896833Y-99603642D01*
X140891849Y-99673334D01*
X140863348Y-99717681D01*
X140823794Y-99757234D01*
X140778415Y-99860006D01*
X140778415Y-99860008D01*
X140775500Y-99885131D01*
X140775500Y-100874856D01*
X140775502Y-100874882D01*
X140778413Y-100899987D01*
X140778415Y-100899991D01*
X140823793Y-101002764D01*
X140863348Y-101042319D01*
X140896833Y-101103642D01*
X140891849Y-101173334D01*
X140863348Y-101217681D01*
X140823794Y-101257234D01*
X140778415Y-101360006D01*
X140778415Y-101360008D01*
X140777280Y-101369792D01*
X140749999Y-101434116D01*
X140692273Y-101473480D01*
X140654106Y-101479500D01*
X140567273Y-101479500D01*
X140465410Y-101506793D01*
X140374087Y-101559520D01*
X140374084Y-101559522D01*
X132070426Y-109863181D01*
X132009103Y-109896666D01*
X131982745Y-109899500D01*
X131920943Y-109899500D01*
X131768216Y-109940423D01*
X131768209Y-109940426D01*
X131631290Y-110019475D01*
X131631282Y-110019481D01*
X131519481Y-110131282D01*
X131519475Y-110131290D01*
X131440426Y-110268209D01*
X131440423Y-110268216D01*
X131399500Y-110420943D01*
X131399500Y-110579057D01*
X131400927Y-110584380D01*
X131440423Y-110731783D01*
X131440426Y-110731790D01*
X131519475Y-110868709D01*
X131519479Y-110868714D01*
X131519480Y-110868716D01*
X131631284Y-110980520D01*
X131631286Y-110980521D01*
X131631290Y-110980524D01*
X131768209Y-111059573D01*
X131768216Y-111059577D01*
X131920943Y-111100500D01*
X131920945Y-111100500D01*
X132079055Y-111100500D01*
X132079057Y-111100500D01*
X132231784Y-111059577D01*
X132368716Y-110980520D01*
X132480520Y-110868716D01*
X132559577Y-110731784D01*
X132600500Y-110579057D01*
X132600500Y-110517254D01*
X132620185Y-110450215D01*
X132636814Y-110429578D01*
X132999589Y-110066803D01*
X133002264Y-110065342D01*
X133003853Y-110062737D01*
X133032734Y-110048705D01*
X133060910Y-110033320D01*
X133063953Y-110033537D01*
X133066698Y-110032204D01*
X133098575Y-110036013D01*
X133130602Y-110038304D01*
X133133045Y-110040133D01*
X133136074Y-110040495D01*
X133160835Y-110060937D01*
X133186535Y-110080176D01*
X133187600Y-110083033D01*
X133189955Y-110084977D01*
X133199736Y-110115569D01*
X133210952Y-110145640D01*
X133210583Y-110149497D01*
X133211233Y-110151528D01*
X133207045Y-110186573D01*
X133206300Y-110189354D01*
X133206298Y-110189359D01*
X133200500Y-110210996D01*
X133200500Y-111275500D01*
X133180815Y-111342539D01*
X133128011Y-111388294D01*
X133076500Y-111399500D01*
X132920943Y-111399500D01*
X132768216Y-111440423D01*
X132768211Y-111440425D01*
X132702731Y-111478229D01*
X132636390Y-111494321D01*
X132636390Y-111494500D01*
X132635655Y-111494500D01*
X132634831Y-111494700D01*
X132631648Y-111494500D01*
X132368482Y-111494500D01*
X132287519Y-111507323D01*
X132274696Y-111509354D01*
X132161658Y-111566950D01*
X132161657Y-111566951D01*
X132161652Y-111566954D01*
X132140426Y-111588181D01*
X132079103Y-111621666D01*
X132052745Y-111624500D01*
X130123000Y-111624500D01*
X130055961Y-111604815D01*
X130010206Y-111552011D01*
X129999000Y-111500500D01*
X129998999Y-109895843D01*
X129998999Y-109895836D01*
X129998997Y-109895817D01*
X129996086Y-109870712D01*
X129996085Y-109870710D01*
X129996085Y-109870709D01*
X129950706Y-109767935D01*
X129871265Y-109688494D01*
X129827301Y-109669082D01*
X129768492Y-109643115D01*
X129743365Y-109640200D01*
X128256643Y-109640200D01*
X128256617Y-109640202D01*
X128231512Y-109643113D01*
X128231508Y-109643115D01*
X128128735Y-109688493D01*
X128049294Y-109767934D01*
X128003915Y-109870706D01*
X128003915Y-109870708D01*
X128001000Y-109895831D01*
X128001000Y-113185956D01*
X128001002Y-113185982D01*
X128003913Y-113211087D01*
X128003915Y-113211091D01*
X128049293Y-113313864D01*
X128049294Y-113313865D01*
X128128735Y-113393306D01*
X128231509Y-113438685D01*
X128256635Y-113441600D01*
X129743364Y-113441599D01*
X129743379Y-113441597D01*
X129743382Y-113441597D01*
X129768487Y-113438686D01*
X129768488Y-113438685D01*
X129768491Y-113438685D01*
X129871265Y-113393306D01*
X129950706Y-113313865D01*
X129996085Y-113211091D01*
X129999000Y-113185965D01*
X129999000Y-112549500D01*
X130018685Y-112482461D01*
X130071489Y-112436706D01*
X130123000Y-112425500D01*
X131876000Y-112425500D01*
X131943039Y-112445185D01*
X131988794Y-112497989D01*
X131990407Y-112505407D01*
X132000000Y-112515000D01*
X132194593Y-112515000D01*
X132221611Y-112517979D01*
X132236915Y-112521395D01*
X132274696Y-112540646D01*
X132368481Y-112555500D01*
X132389678Y-112555499D01*
X132403018Y-112558478D01*
X132422103Y-112569035D01*
X132443031Y-112575178D01*
X132452074Y-112585613D01*
X132464158Y-112592297D01*
X132474506Y-112611496D01*
X132488790Y-112627978D01*
X132492445Y-112644780D01*
X132497308Y-112653801D01*
X132496550Y-112663643D01*
X132500000Y-112679499D01*
X132500000Y-112691000D01*
X132492468Y-112716647D01*
X132491944Y-112723465D01*
X132489531Y-112726651D01*
X132480315Y-112758039D01*
X132427511Y-112803794D01*
X132376000Y-112815000D01*
X132000001Y-112815000D01*
X132000001Y-112826479D01*
X132014835Y-112920149D01*
X132046769Y-112982822D01*
X132059665Y-113051491D01*
X132033389Y-113116232D01*
X132023970Y-113126794D01*
X132019479Y-113131284D01*
X132019475Y-113131290D01*
X131940426Y-113268209D01*
X131940423Y-113268216D01*
X131899500Y-113420943D01*
X131899500Y-113579057D01*
X131931397Y-113698096D01*
X131940423Y-113731783D01*
X131940426Y-113731790D01*
X132019475Y-113868709D01*
X132019479Y-113868714D01*
X132019480Y-113868716D01*
X132131284Y-113980520D01*
X132131286Y-113980521D01*
X132131290Y-113980524D01*
X132200982Y-114020760D01*
X132268216Y-114059577D01*
X132420943Y-114100500D01*
X132420945Y-114100500D01*
X132579055Y-114100500D01*
X132579057Y-114100500D01*
X132731784Y-114059577D01*
X132868716Y-113980520D01*
X132912417Y-113936819D01*
X132973740Y-113903334D01*
X133000098Y-113900500D01*
X133052725Y-113900500D01*
X133052727Y-113900500D01*
X133154588Y-113873207D01*
X133245913Y-113820480D01*
X133514286Y-113552106D01*
X133523864Y-113546876D01*
X133530666Y-113538337D01*
X133553987Y-113530427D01*
X133575604Y-113518624D01*
X133586494Y-113519402D01*
X133596834Y-113515896D01*
X133620731Y-113521851D01*
X133645296Y-113523608D01*
X133654036Y-113530151D01*
X133664630Y-113532791D01*
X133681512Y-113550718D01*
X133701230Y-113565479D01*
X133706303Y-113577045D01*
X133712530Y-113583657D01*
X133721222Y-113611055D01*
X133723866Y-113617081D01*
X133724500Y-113620484D01*
X133724500Y-113620760D01*
X133734427Y-113688893D01*
X133738977Y-113698201D01*
X133742068Y-113714791D01*
X133740169Y-113733444D01*
X133743323Y-113751925D01*
X133736094Y-113776544D01*
X133737270Y-113776908D01*
X133734998Y-113784259D01*
X133734994Y-113784302D01*
X133734979Y-113784320D01*
X133734425Y-113786111D01*
X133724500Y-113854239D01*
X133724500Y-114020760D01*
X133734425Y-114088888D01*
X133737270Y-114098092D01*
X133734294Y-114099011D01*
X133743323Y-114151925D01*
X133736094Y-114176544D01*
X133737270Y-114176908D01*
X133734425Y-114186111D01*
X133724500Y-114254239D01*
X133724500Y-114420760D01*
X133734425Y-114488888D01*
X133737270Y-114498092D01*
X133734294Y-114499011D01*
X133743323Y-114551925D01*
X133736094Y-114576544D01*
X133737270Y-114576908D01*
X133734425Y-114586111D01*
X133724500Y-114654239D01*
X133724500Y-114820760D01*
X133734425Y-114888888D01*
X133737270Y-114898092D01*
X133734294Y-114899011D01*
X133743323Y-114951925D01*
X133736094Y-114976544D01*
X133737270Y-114976908D01*
X133734425Y-114986111D01*
X133724500Y-115054239D01*
X133724500Y-115220760D01*
X133734425Y-115288888D01*
X133737270Y-115298092D01*
X133734294Y-115299011D01*
X133743323Y-115351925D01*
X133736094Y-115376544D01*
X133737270Y-115376908D01*
X133734425Y-115386111D01*
X133724500Y-115454239D01*
X133724500Y-115620760D01*
X133734426Y-115688891D01*
X133734427Y-115688893D01*
X133783321Y-115788909D01*
X133785803Y-115793985D01*
X133868514Y-115876696D01*
X133868515Y-115876696D01*
X133868517Y-115876698D01*
X133973607Y-115928073D01*
X134007673Y-115933036D01*
X134041739Y-115938000D01*
X134775500Y-115938000D01*
X134784185Y-115940550D01*
X134793147Y-115939262D01*
X134817187Y-115950240D01*
X134842539Y-115957685D01*
X134848466Y-115964525D01*
X134856703Y-115968287D01*
X134870992Y-115990521D01*
X134888294Y-116010489D01*
X134890581Y-116021003D01*
X134894477Y-116027065D01*
X134899500Y-116062000D01*
X134899500Y-116310500D01*
X134879815Y-116377539D01*
X134827011Y-116423294D01*
X134775500Y-116434500D01*
X132447255Y-116434500D01*
X132380216Y-116414815D01*
X132359574Y-116398181D01*
X132338347Y-116376954D01*
X132338344Y-116376952D01*
X132338342Y-116376950D01*
X132261517Y-116337805D01*
X132225301Y-116319352D01*
X132131524Y-116304500D01*
X131868482Y-116304500D01*
X131787519Y-116317323D01*
X131774696Y-116319354D01*
X131661658Y-116376950D01*
X131661657Y-116376951D01*
X131661652Y-116376954D01*
X131571954Y-116466652D01*
X131571951Y-116466657D01*
X131514352Y-116579698D01*
X131499500Y-116673475D01*
X131499500Y-116673480D01*
X131499500Y-116673481D01*
X131499500Y-116795760D01*
X131499501Y-116893699D01*
X131479817Y-116960739D01*
X131427013Y-117006494D01*
X131375501Y-117017700D01*
X130122999Y-117017700D01*
X130055960Y-116998015D01*
X130010205Y-116945211D01*
X129998999Y-116893700D01*
X129998999Y-115814043D01*
X129998999Y-115814036D01*
X129996674Y-115793985D01*
X129996086Y-115788912D01*
X129996085Y-115788910D01*
X129996085Y-115788909D01*
X129950706Y-115686135D01*
X129871265Y-115606694D01*
X129821424Y-115584687D01*
X129768492Y-115561315D01*
X129743365Y-115558400D01*
X128256643Y-115558400D01*
X128256617Y-115558402D01*
X128231512Y-115561313D01*
X128231508Y-115561315D01*
X128128735Y-115606693D01*
X128049294Y-115686134D01*
X128003915Y-115788906D01*
X128003915Y-115788908D01*
X128001000Y-115814031D01*
X128001000Y-119104156D01*
X128001002Y-119104182D01*
X128003913Y-119129287D01*
X128003915Y-119129291D01*
X128049293Y-119232064D01*
X128049294Y-119232065D01*
X128128735Y-119311506D01*
X128231509Y-119356885D01*
X128256635Y-119359800D01*
X129743364Y-119359799D01*
X129743379Y-119359797D01*
X129743382Y-119359797D01*
X129768487Y-119356886D01*
X129768488Y-119356885D01*
X129768491Y-119356885D01*
X129871265Y-119311506D01*
X129950706Y-119232065D01*
X129996085Y-119129291D01*
X129999000Y-119104165D01*
X129999000Y-117942700D01*
X130018685Y-117875661D01*
X130071489Y-117829906D01*
X130123000Y-117818700D01*
X131495945Y-117818700D01*
X131562984Y-117838385D01*
X131583626Y-117855019D01*
X131661652Y-117933045D01*
X131661654Y-117933046D01*
X131661658Y-117933050D01*
X131774694Y-117990645D01*
X131774698Y-117990647D01*
X131868475Y-118005499D01*
X131868481Y-118005500D01*
X132131518Y-118005499D01*
X132225304Y-117990646D01*
X132338342Y-117933050D01*
X132428050Y-117843342D01*
X132485646Y-117730304D01*
X132485646Y-117730302D01*
X132485647Y-117730301D01*
X132500499Y-117636524D01*
X132500500Y-117636519D01*
X132500499Y-117359499D01*
X132520183Y-117292461D01*
X132572987Y-117246706D01*
X132624499Y-117235500D01*
X134607471Y-117235500D01*
X134674510Y-117255185D01*
X134695152Y-117271819D01*
X134782745Y-117359412D01*
X134782746Y-117359413D01*
X134857313Y-117433980D01*
X134948639Y-117486707D01*
X135050499Y-117514000D01*
X135050501Y-117514000D01*
X137147499Y-117514000D01*
X137147501Y-117514000D01*
X137249362Y-117486707D01*
X137340687Y-117433980D01*
X137620480Y-117154187D01*
X137620480Y-117154186D01*
X137625348Y-117149319D01*
X137646785Y-117137613D01*
X137665841Y-117122330D01*
X137679845Y-117119561D01*
X137686671Y-117115834D01*
X137700059Y-117113680D01*
X137706524Y-117113000D01*
X137783260Y-117113000D01*
X137851393Y-117103073D01*
X137865231Y-117096307D01*
X137887030Y-117094015D01*
X137900696Y-117096513D01*
X137914390Y-117094173D01*
X137939039Y-117101410D01*
X137939404Y-117100230D01*
X137948600Y-117103071D01*
X137948604Y-117103071D01*
X137948607Y-117103073D01*
X138016740Y-117113000D01*
X138016745Y-117113000D01*
X138183255Y-117113000D01*
X138183260Y-117113000D01*
X138251393Y-117103073D01*
X138251396Y-117103071D01*
X138251399Y-117103071D01*
X138260596Y-117100230D01*
X138261516Y-117103209D01*
X138314390Y-117094173D01*
X138339039Y-117101410D01*
X138339404Y-117100230D01*
X138348600Y-117103071D01*
X138348604Y-117103071D01*
X138348607Y-117103073D01*
X138416740Y-117113000D01*
X138416745Y-117113000D01*
X138583255Y-117113000D01*
X138583260Y-117113000D01*
X138651393Y-117103073D01*
X138651396Y-117103071D01*
X138651399Y-117103071D01*
X138660596Y-117100230D01*
X138661516Y-117103209D01*
X138714390Y-117094173D01*
X138739039Y-117101410D01*
X138739404Y-117100230D01*
X138748600Y-117103071D01*
X138748604Y-117103071D01*
X138748607Y-117103073D01*
X138816740Y-117113000D01*
X138816745Y-117113000D01*
X138983255Y-117113000D01*
X138983260Y-117113000D01*
X139051393Y-117103073D01*
X139051396Y-117103071D01*
X139051399Y-117103071D01*
X139060596Y-117100230D01*
X139061516Y-117103209D01*
X139114390Y-117094173D01*
X139139039Y-117101410D01*
X139139404Y-117100230D01*
X139148600Y-117103071D01*
X139148604Y-117103071D01*
X139148607Y-117103073D01*
X139216740Y-117113000D01*
X139216745Y-117113000D01*
X139383255Y-117113000D01*
X139383260Y-117113000D01*
X139451393Y-117103073D01*
X139451396Y-117103071D01*
X139451399Y-117103071D01*
X139460596Y-117100230D01*
X139461516Y-117103209D01*
X139514390Y-117094173D01*
X139539039Y-117101410D01*
X139539404Y-117100230D01*
X139548600Y-117103071D01*
X139548604Y-117103071D01*
X139548607Y-117103073D01*
X139616740Y-117113000D01*
X139616745Y-117113000D01*
X139783255Y-117113000D01*
X139783260Y-117113000D01*
X139851393Y-117103073D01*
X139851396Y-117103071D01*
X139851399Y-117103071D01*
X139860596Y-117100230D01*
X139861516Y-117103209D01*
X139914390Y-117094173D01*
X139939039Y-117101410D01*
X139939404Y-117100230D01*
X139948600Y-117103071D01*
X139948604Y-117103071D01*
X139948607Y-117103073D01*
X140016740Y-117113000D01*
X140016745Y-117113000D01*
X140183255Y-117113000D01*
X140183260Y-117113000D01*
X140251393Y-117103073D01*
X140251396Y-117103071D01*
X140251399Y-117103071D01*
X140260596Y-117100230D01*
X140261516Y-117103209D01*
X140314390Y-117094173D01*
X140339039Y-117101410D01*
X140339404Y-117100230D01*
X140348600Y-117103071D01*
X140348604Y-117103071D01*
X140348607Y-117103073D01*
X140416740Y-117113000D01*
X140416745Y-117113000D01*
X140583261Y-117113000D01*
X140605971Y-117109691D01*
X140651393Y-117103073D01*
X140756483Y-117051698D01*
X140839198Y-116968983D01*
X140890573Y-116863893D01*
X140900500Y-116795760D01*
X140900500Y-116062000D01*
X140920185Y-115994961D01*
X140972989Y-115949206D01*
X141024500Y-115938000D01*
X141758261Y-115938000D01*
X141780971Y-115934691D01*
X141826393Y-115928073D01*
X141931483Y-115876698D01*
X142014198Y-115793983D01*
X142065573Y-115688893D01*
X142075500Y-115620760D01*
X142075500Y-115454240D01*
X142065573Y-115386107D01*
X142065571Y-115386104D01*
X142065571Y-115386100D01*
X142062730Y-115376904D01*
X142065709Y-115375983D01*
X142056673Y-115323110D01*
X142063910Y-115298460D01*
X142062730Y-115298096D01*
X142065571Y-115288899D01*
X142065571Y-115288896D01*
X142065573Y-115288893D01*
X142075500Y-115220760D01*
X142075500Y-115054240D01*
X142065573Y-114986107D01*
X142065571Y-114986104D01*
X142065571Y-114986100D01*
X142062730Y-114976904D01*
X142065709Y-114975983D01*
X142056673Y-114923110D01*
X142063910Y-114898460D01*
X142062730Y-114898096D01*
X142065571Y-114888899D01*
X142065571Y-114888896D01*
X142065573Y-114888893D01*
X142075500Y-114820760D01*
X142075500Y-114654240D01*
X142065573Y-114586107D01*
X142065571Y-114586104D01*
X142065571Y-114586100D01*
X142062730Y-114576904D01*
X142065709Y-114575983D01*
X142056673Y-114523110D01*
X142063910Y-114498460D01*
X142062730Y-114498096D01*
X142065571Y-114488899D01*
X142065571Y-114488896D01*
X142065573Y-114488893D01*
X142075500Y-114420760D01*
X142075500Y-114254240D01*
X142065573Y-114186107D01*
X142065571Y-114186104D01*
X142065571Y-114186100D01*
X142062730Y-114176904D01*
X142065709Y-114175983D01*
X142056673Y-114123110D01*
X142063910Y-114098460D01*
X142062730Y-114098096D01*
X142065571Y-114088899D01*
X142065571Y-114088896D01*
X142065573Y-114088893D01*
X142075500Y-114020760D01*
X142075500Y-113854240D01*
X142065573Y-113786107D01*
X142065571Y-113786104D01*
X142065571Y-113786100D01*
X142062730Y-113776904D01*
X142065709Y-113775983D01*
X142056673Y-113723110D01*
X142063910Y-113698460D01*
X142062730Y-113698096D01*
X142065571Y-113688899D01*
X142065571Y-113688896D01*
X142065573Y-113688893D01*
X142075500Y-113620760D01*
X142075500Y-113454240D01*
X142065573Y-113386107D01*
X142065571Y-113386104D01*
X142065571Y-113386100D01*
X142062730Y-113376904D01*
X142065709Y-113375983D01*
X142056673Y-113323110D01*
X142063910Y-113298460D01*
X142062730Y-113298096D01*
X142065571Y-113288899D01*
X142065571Y-113288896D01*
X142065573Y-113288893D01*
X142075500Y-113220760D01*
X142075500Y-113054240D01*
X142065573Y-112986107D01*
X142065571Y-112986104D01*
X142065571Y-112986100D01*
X142062730Y-112976904D01*
X142065709Y-112975983D01*
X142056673Y-112923110D01*
X142063910Y-112898460D01*
X142062730Y-112898096D01*
X142065571Y-112888899D01*
X142065571Y-112888896D01*
X142065573Y-112888893D01*
X142075500Y-112820760D01*
X142075500Y-112654240D01*
X142065573Y-112586107D01*
X142065571Y-112586104D01*
X142065571Y-112586100D01*
X142062730Y-112576904D01*
X142065709Y-112575983D01*
X142056673Y-112523110D01*
X142063910Y-112498460D01*
X142062730Y-112498096D01*
X142065571Y-112488899D01*
X142065571Y-112488896D01*
X142065573Y-112488893D01*
X142075500Y-112420760D01*
X142075500Y-112254240D01*
X142065573Y-112186107D01*
X142065571Y-112186104D01*
X142065571Y-112186100D01*
X142062730Y-112176904D01*
X142065709Y-112175983D01*
X142056673Y-112123110D01*
X142063910Y-112098460D01*
X142062730Y-112098096D01*
X142065571Y-112088899D01*
X142065571Y-112088896D01*
X142065573Y-112088893D01*
X142075500Y-112020760D01*
X142075500Y-111854240D01*
X142065573Y-111786107D01*
X142065571Y-111786104D01*
X142065571Y-111786100D01*
X142062730Y-111776904D01*
X142065709Y-111775983D01*
X142056673Y-111723110D01*
X142063910Y-111698460D01*
X142062730Y-111698096D01*
X142065571Y-111688899D01*
X142065571Y-111688896D01*
X142065573Y-111688893D01*
X142075500Y-111620760D01*
X142075500Y-111454240D01*
X142065573Y-111386107D01*
X142065571Y-111386104D01*
X142065571Y-111386100D01*
X142062730Y-111376904D01*
X142065709Y-111375983D01*
X142056673Y-111323110D01*
X142063910Y-111298460D01*
X142062730Y-111298096D01*
X142065571Y-111288899D01*
X142065571Y-111288896D01*
X142065573Y-111288893D01*
X142075500Y-111220760D01*
X142075500Y-111054240D01*
X142065573Y-110986107D01*
X142065571Y-110986104D01*
X142065571Y-110986100D01*
X142062730Y-110976904D01*
X142065709Y-110975983D01*
X142056673Y-110923110D01*
X142063910Y-110898460D01*
X142062730Y-110898096D01*
X142065571Y-110888899D01*
X142065571Y-110888896D01*
X142065573Y-110888893D01*
X142075500Y-110820760D01*
X142075500Y-110654240D01*
X142065573Y-110586107D01*
X142065571Y-110586104D01*
X142065571Y-110586100D01*
X142062730Y-110576904D01*
X142065709Y-110575983D01*
X142056673Y-110523110D01*
X142058308Y-110512858D01*
X142061462Y-110497300D01*
X142065573Y-110488893D01*
X142071714Y-110446743D01*
X142072393Y-110443396D01*
X142087162Y-110415413D01*
X142100359Y-110386661D01*
X142103349Y-110384746D01*
X142105008Y-110381605D01*
X142132562Y-110366049D01*
X142159207Y-110348996D01*
X142162758Y-110349002D01*
X142165851Y-110347257D01*
X142197433Y-110349067D01*
X142229077Y-110349126D01*
X142232342Y-110351067D01*
X142235607Y-110351255D01*
X142248878Y-110360899D01*
X142281601Y-110380357D01*
X142563181Y-110661937D01*
X142596666Y-110723260D01*
X142599500Y-110749618D01*
X142599500Y-117282745D01*
X142579815Y-117349784D01*
X142563181Y-117370426D01*
X141370426Y-118563181D01*
X141309103Y-118596666D01*
X141282745Y-118599500D01*
X131947273Y-118599500D01*
X131845413Y-118626793D01*
X131845410Y-118626794D01*
X131754085Y-118679521D01*
X130179522Y-120254084D01*
X130179520Y-120254087D01*
X130126793Y-120345411D01*
X130104611Y-120428198D01*
X130099500Y-120447270D01*
X130099500Y-122777726D01*
X130126793Y-122879589D01*
X130154853Y-122928189D01*
X130179520Y-122970913D01*
X130363182Y-123154574D01*
X130396666Y-123215895D01*
X130399500Y-123242254D01*
X130399500Y-123791769D01*
X130402353Y-123822199D01*
X130402353Y-123822201D01*
X130447206Y-123950380D01*
X130447207Y-123950382D01*
X130527850Y-124059650D01*
X130637118Y-124140293D01*
X130679845Y-124155244D01*
X130765299Y-124185146D01*
X130795730Y-124188000D01*
X130795734Y-124188000D01*
X131204270Y-124188000D01*
X131234699Y-124185146D01*
X131234701Y-124185146D01*
X131298790Y-124162719D01*
X131362882Y-124140293D01*
X131401367Y-124111889D01*
X131466995Y-124087919D01*
X131535165Y-124103234D01*
X131548626Y-124111885D01*
X131587118Y-124140293D01*
X131629845Y-124155244D01*
X131715299Y-124185146D01*
X131745730Y-124188000D01*
X131745734Y-124188000D01*
X131940777Y-124188000D01*
X131970217Y-124196644D01*
X132000204Y-124203168D01*
X132005219Y-124206922D01*
X132007816Y-124207685D01*
X132028458Y-124224319D01*
X132133138Y-124328999D01*
X132166623Y-124390322D01*
X132161639Y-124460014D01*
X132133139Y-124504361D01*
X132100000Y-124537500D01*
X132100000Y-126462499D01*
X132154196Y-126462499D01*
X132184606Y-126459648D01*
X132312644Y-126414846D01*
X132317551Y-126412253D01*
X132386019Y-126398326D01*
X132451147Y-126423627D01*
X132492258Y-126480122D01*
X132499500Y-126521879D01*
X132499500Y-126921714D01*
X132479815Y-126988753D01*
X132427011Y-127034508D01*
X132357853Y-127044452D01*
X132319205Y-127032199D01*
X132225301Y-126984352D01*
X132131524Y-126969500D01*
X132131519Y-126969500D01*
X132087254Y-126969500D01*
X132020215Y-126949815D01*
X131999573Y-126933181D01*
X131740571Y-126674179D01*
X131707086Y-126612856D01*
X131712070Y-126543164D01*
X131753942Y-126487231D01*
X131787953Y-126474545D01*
X131800000Y-126462498D01*
X131800000Y-124537500D01*
X131799999Y-124537499D01*
X131745804Y-124537500D01*
X131715393Y-124540351D01*
X131587354Y-124585153D01*
X131587351Y-124585155D01*
X131549054Y-124613420D01*
X131483425Y-124637391D01*
X131415255Y-124622075D01*
X131401788Y-124613421D01*
X131395371Y-124608685D01*
X131362882Y-124584707D01*
X131362880Y-124584706D01*
X131234700Y-124539853D01*
X131204270Y-124537000D01*
X131204266Y-124537000D01*
X130795734Y-124537000D01*
X130795730Y-124537000D01*
X130765300Y-124539853D01*
X130765298Y-124539853D01*
X130637119Y-124584706D01*
X130637117Y-124584707D01*
X130527850Y-124665350D01*
X130447207Y-124774617D01*
X130447206Y-124774619D01*
X130402353Y-124902798D01*
X130402353Y-124902800D01*
X130399500Y-124933230D01*
X130399500Y-126066769D01*
X130402353Y-126097199D01*
X130402353Y-126097201D01*
X130447206Y-126225380D01*
X130447207Y-126225382D01*
X130527850Y-126334650D01*
X130549132Y-126350357D01*
X130591384Y-126406003D01*
X130599500Y-126450128D01*
X130599500Y-127078448D01*
X130579815Y-127145487D01*
X130575821Y-127151329D01*
X130571953Y-127156653D01*
X130514352Y-127269698D01*
X130499500Y-127363475D01*
X130499500Y-127686517D01*
X130514354Y-127780306D01*
X130514355Y-127780307D01*
X130518635Y-127788707D01*
X130531530Y-127857376D01*
X130518637Y-127901288D01*
X130514353Y-127909695D01*
X130514353Y-127909697D01*
X130499500Y-128003475D01*
X130499500Y-128326517D01*
X130510292Y-128394657D01*
X130514354Y-128420304D01*
X130571950Y-128533342D01*
X130571952Y-128533344D01*
X130571954Y-128533347D01*
X130661652Y-128623045D01*
X130661654Y-128623046D01*
X130661658Y-128623050D01*
X130774696Y-128680646D01*
X130774698Y-128680647D01*
X130868475Y-128695499D01*
X130868481Y-128695500D01*
X130912742Y-128695499D01*
X130979781Y-128715182D01*
X131000425Y-128731818D01*
X131865801Y-129597194D01*
X132588605Y-130319997D01*
X132602093Y-130344698D01*
X132618308Y-130367715D01*
X132618616Y-130374958D01*
X132622090Y-130381320D01*
X132620082Y-130409397D01*
X132621279Y-130437521D01*
X132617623Y-130443779D01*
X132617106Y-130451012D01*
X132600236Y-130473546D01*
X132586039Y-130497853D01*
X132577578Y-130503813D01*
X132575234Y-130506945D01*
X132557186Y-130518179D01*
X132555711Y-130518930D01*
X132487038Y-130531806D01*
X132443155Y-130518914D01*
X132435150Y-130514835D01*
X132435146Y-130514834D01*
X132341486Y-130500000D01*
X132330000Y-130500000D01*
X132330000Y-130694592D01*
X132316486Y-130750885D01*
X132304353Y-130774697D01*
X132304352Y-130774698D01*
X132289500Y-130868475D01*
X132289501Y-131000000D01*
X132289501Y-131131517D01*
X132304354Y-131225304D01*
X132304355Y-131225306D01*
X132316484Y-131249110D01*
X132330000Y-131305406D01*
X132330000Y-131499999D01*
X132344341Y-131514340D01*
X132362539Y-131519684D01*
X132368466Y-131526524D01*
X132376703Y-131530286D01*
X132390992Y-131552520D01*
X132408294Y-131572488D01*
X132410581Y-131583002D01*
X132414477Y-131589064D01*
X132419500Y-131623999D01*
X132419500Y-131804738D01*
X132399815Y-131871777D01*
X132347011Y-131917532D01*
X132327596Y-131924511D01*
X132268216Y-131940423D01*
X132268214Y-131940424D01*
X132261340Y-131942266D01*
X132191490Y-131940603D01*
X132141565Y-131910172D01*
X131943072Y-131711679D01*
X131909587Y-131650356D01*
X131914571Y-131580664D01*
X131956443Y-131524731D01*
X132021907Y-131500314D01*
X132029973Y-131500025D01*
X132030000Y-131499999D01*
X132030000Y-131150000D01*
X131652934Y-131150000D01*
X131615809Y-131193467D01*
X131613378Y-131191391D01*
X131596173Y-131214375D01*
X131592738Y-131215655D01*
X131590377Y-131218461D01*
X131560252Y-131227772D01*
X131530709Y-131238792D01*
X131527125Y-131238012D01*
X131523624Y-131239095D01*
X131493249Y-131230643D01*
X131462436Y-131223940D01*
X131458458Y-131220962D01*
X131456312Y-131220365D01*
X131434182Y-131202789D01*
X131386818Y-131155425D01*
X131353333Y-131094102D01*
X131350499Y-131067744D01*
X131350499Y-131023482D01*
X131346780Y-131000000D01*
X131335646Y-130929696D01*
X131295039Y-130850000D01*
X131652932Y-130850000D01*
X132030000Y-130850000D01*
X132030000Y-130499999D01*
X132018526Y-130500000D01*
X132018525Y-130500000D01*
X131924850Y-130514835D01*
X131924844Y-130514837D01*
X131811958Y-130572356D01*
X131811949Y-130572363D01*
X131722363Y-130661949D01*
X131722360Y-130661953D01*
X131664833Y-130774855D01*
X131652932Y-130850000D01*
X131295039Y-130850000D01*
X131278050Y-130816658D01*
X131278046Y-130816654D01*
X131278045Y-130816652D01*
X131188347Y-130726954D01*
X131188344Y-130726952D01*
X131188342Y-130726950D01*
X131109561Y-130686809D01*
X131075301Y-130669352D01*
X130981524Y-130654500D01*
X130658482Y-130654500D01*
X130564693Y-130669354D01*
X130564690Y-130669355D01*
X130555738Y-130673917D01*
X130487068Y-130686809D01*
X130443155Y-130673914D01*
X130435150Y-130669835D01*
X130435146Y-130669834D01*
X130341486Y-130655000D01*
X130330000Y-130655000D01*
X130330000Y-130849592D01*
X130316486Y-130905885D01*
X130304353Y-130929697D01*
X130304352Y-130929698D01*
X130289500Y-131023475D01*
X130289500Y-131023480D01*
X130289500Y-131023481D01*
X130289501Y-131286518D01*
X130304354Y-131380304D01*
X130315794Y-131402757D01*
X130316484Y-131404110D01*
X130330000Y-131460406D01*
X130330000Y-131654999D01*
X130341479Y-131654999D01*
X130435148Y-131640164D01*
X130443150Y-131636087D01*
X130511819Y-131623187D01*
X130519277Y-131624164D01*
X130538440Y-131627268D01*
X130564696Y-131640646D01*
X130658481Y-131655500D01*
X130712726Y-131655499D01*
X130722571Y-131657094D01*
X130745450Y-131668038D01*
X130769781Y-131675182D01*
X130783507Y-131686243D01*
X130785601Y-131687245D01*
X130786444Y-131688610D01*
X130790425Y-131691818D01*
X131783181Y-132684574D01*
X131816666Y-132745897D01*
X131819500Y-132772255D01*
X131819500Y-132925500D01*
X131799815Y-132992539D01*
X131747011Y-133038294D01*
X131695500Y-133049500D01*
X131075143Y-133049500D01*
X131075117Y-133049502D01*
X131050012Y-133052413D01*
X131050008Y-133052415D01*
X130947235Y-133097793D01*
X130867794Y-133177234D01*
X130822415Y-133280006D01*
X130822415Y-133280008D01*
X130819500Y-133305131D01*
X130819500Y-134544856D01*
X130819502Y-134544882D01*
X130822413Y-134569987D01*
X130822415Y-134569991D01*
X130867793Y-134672764D01*
X130867794Y-134672765D01*
X130947235Y-134752206D01*
X130996871Y-134774122D01*
X131055586Y-134800048D01*
X131108963Y-134845134D01*
X131129490Y-134911920D01*
X131129500Y-134913482D01*
X131129500Y-135079056D01*
X131170423Y-135231783D01*
X131170426Y-135231790D01*
X131249475Y-135368709D01*
X131249479Y-135368714D01*
X131249480Y-135368716D01*
X131361284Y-135480520D01*
X131361286Y-135480521D01*
X131361290Y-135480524D01*
X131477443Y-135547584D01*
X131498216Y-135559577D01*
X131650943Y-135600500D01*
X131650945Y-135600500D01*
X131809055Y-135600500D01*
X131809057Y-135600500D01*
X131961784Y-135559577D01*
X132098716Y-135480520D01*
X132210520Y-135368716D01*
X132289577Y-135231784D01*
X132330500Y-135079057D01*
X132330500Y-134924499D01*
X132332350Y-134918195D01*
X132331159Y-134911736D01*
X132342072Y-134885089D01*
X132350185Y-134857460D01*
X132355149Y-134853158D01*
X132357639Y-134847079D01*
X132381228Y-134830560D01*
X132402989Y-134811705D01*
X132410823Y-134809837D01*
X132414872Y-134807002D01*
X132440034Y-134802872D01*
X132449580Y-134800597D01*
X132452048Y-134800499D01*
X132564864Y-134800499D01*
X132589991Y-134797585D01*
X132596370Y-134794767D01*
X132615080Y-134794025D01*
X132632037Y-134798281D01*
X132640540Y-134798281D01*
X132640745Y-134796510D01*
X132650007Y-134797584D01*
X132650009Y-134797585D01*
X132675135Y-134800500D01*
X133064864Y-134800499D01*
X133064879Y-134800497D01*
X133064882Y-134800497D01*
X133099258Y-134796511D01*
X133099463Y-134798281D01*
X133140540Y-134798281D01*
X133140745Y-134796510D01*
X133150007Y-134797584D01*
X133150009Y-134797585D01*
X133175135Y-134800500D01*
X133564864Y-134800499D01*
X133564879Y-134800497D01*
X133564882Y-134800497D01*
X133599258Y-134796511D01*
X133599463Y-134798281D01*
X133640540Y-134798281D01*
X133640745Y-134796510D01*
X133650007Y-134797584D01*
X133650009Y-134797585D01*
X133675135Y-134800500D01*
X134064864Y-134800499D01*
X134064879Y-134800497D01*
X134064882Y-134800497D01*
X134099258Y-134796511D01*
X134099463Y-134798281D01*
X134140540Y-134798281D01*
X134140745Y-134796510D01*
X134150007Y-134797584D01*
X134150009Y-134797585D01*
X134175135Y-134800500D01*
X134564864Y-134800499D01*
X134564879Y-134800497D01*
X134564882Y-134800497D01*
X134599258Y-134796511D01*
X134599463Y-134798281D01*
X134640540Y-134798281D01*
X134640745Y-134796510D01*
X134650007Y-134797584D01*
X134650009Y-134797585D01*
X134675135Y-134800500D01*
X135064864Y-134800499D01*
X135064879Y-134800497D01*
X135064882Y-134800497D01*
X135099258Y-134796511D01*
X135099463Y-134798281D01*
X135140540Y-134798281D01*
X135140745Y-134796510D01*
X135150007Y-134797584D01*
X135150009Y-134797585D01*
X135175135Y-134800500D01*
X135564864Y-134800499D01*
X135564879Y-134800497D01*
X135564882Y-134800497D01*
X135599258Y-134796511D01*
X135599463Y-134798281D01*
X135640540Y-134798281D01*
X135640745Y-134796510D01*
X135650007Y-134797584D01*
X135650009Y-134797585D01*
X135675135Y-134800500D01*
X136064864Y-134800499D01*
X136064879Y-134800497D01*
X136064882Y-134800497D01*
X136099258Y-134796511D01*
X136099463Y-134798281D01*
X136140540Y-134798281D01*
X136140745Y-134796510D01*
X136150007Y-134797584D01*
X136150009Y-134797585D01*
X136175135Y-134800500D01*
X136564864Y-134800499D01*
X136564879Y-134800497D01*
X136564882Y-134800497D01*
X136599258Y-134796511D01*
X136599306Y-134796932D01*
X136624920Y-134794025D01*
X136643629Y-134794767D01*
X136650009Y-134797585D01*
X136675135Y-134800500D01*
X136787966Y-134800499D01*
X136790420Y-134800597D01*
X136821276Y-134811003D01*
X136852539Y-134820183D01*
X136854209Y-134822111D01*
X136856626Y-134822926D01*
X136876958Y-134848364D01*
X136898294Y-134872987D01*
X136898913Y-134875832D01*
X136900249Y-134877504D01*
X136901131Y-134886029D01*
X136909500Y-134924499D01*
X136909500Y-135079056D01*
X136950423Y-135231783D01*
X136950426Y-135231790D01*
X137029475Y-135368709D01*
X137029479Y-135368714D01*
X137029480Y-135368716D01*
X137141284Y-135480520D01*
X137141286Y-135480521D01*
X137141290Y-135480524D01*
X137257443Y-135547584D01*
X137278216Y-135559577D01*
X137430943Y-135600500D01*
X137430945Y-135600500D01*
X137589055Y-135600500D01*
X137589057Y-135600500D01*
X137741784Y-135559577D01*
X137878716Y-135480520D01*
X137990520Y-135368716D01*
X138069577Y-135231784D01*
X138110500Y-135079057D01*
X138110500Y-134920943D01*
X138110500Y-134912935D01*
X138130185Y-134845896D01*
X138182989Y-134800141D01*
X138184415Y-134799500D01*
X138292475Y-134751788D01*
X138292479Y-134751785D01*
X138371785Y-134672479D01*
X138371788Y-134672474D01*
X138417089Y-134569877D01*
X138417089Y-134569875D01*
X138419999Y-134544794D01*
X138420000Y-134544791D01*
X138420000Y-134075000D01*
X137944000Y-134075000D01*
X137935314Y-134072449D01*
X137926353Y-134073738D01*
X137902312Y-134062759D01*
X137876961Y-134055315D01*
X137871033Y-134048474D01*
X137862797Y-134044713D01*
X137848507Y-134022478D01*
X137831206Y-134002511D01*
X137828918Y-133991996D01*
X137825023Y-133985935D01*
X137820000Y-133951000D01*
X137820000Y-133925000D01*
X137794000Y-133925000D01*
X137726961Y-133905315D01*
X137681206Y-133852511D01*
X137670000Y-133801000D01*
X137670000Y-133775000D01*
X137970000Y-133775000D01*
X138419999Y-133775000D01*
X138419999Y-133705131D01*
X138689500Y-133705131D01*
X138689500Y-135294856D01*
X138689502Y-135294882D01*
X138692413Y-135319987D01*
X138692415Y-135319991D01*
X138737793Y-135422764D01*
X138737794Y-135422765D01*
X138817235Y-135502206D01*
X138920009Y-135547585D01*
X138945135Y-135550500D01*
X140534864Y-135550499D01*
X140534879Y-135550497D01*
X140534882Y-135550497D01*
X140559987Y-135547586D01*
X140559988Y-135547585D01*
X140559991Y-135547585D01*
X140662765Y-135502206D01*
X140742206Y-135422765D01*
X140787585Y-135319991D01*
X140790500Y-135294865D01*
X140790499Y-133705136D01*
X140790497Y-133705117D01*
X140787586Y-133680012D01*
X140787585Y-133680010D01*
X140787585Y-133680009D01*
X140742206Y-133577235D01*
X140662765Y-133497794D01*
X140662763Y-133497793D01*
X140559992Y-133452415D01*
X140534865Y-133449500D01*
X138945143Y-133449500D01*
X138945117Y-133449502D01*
X138920012Y-133452413D01*
X138920008Y-133452415D01*
X138817235Y-133497793D01*
X138737794Y-133577234D01*
X138692415Y-133680006D01*
X138692415Y-133680008D01*
X138689500Y-133705131D01*
X138419999Y-133705131D01*
X138419999Y-133305214D01*
X138419997Y-133305191D01*
X138417091Y-133280130D01*
X138417090Y-133280126D01*
X138371788Y-133177525D01*
X138371785Y-133177520D01*
X138292479Y-133098214D01*
X138292474Y-133098211D01*
X138189876Y-133052910D01*
X138164794Y-133050000D01*
X137970000Y-133050000D01*
X137970000Y-133775000D01*
X137670000Y-133775000D01*
X137670000Y-133050000D01*
X137544500Y-133050000D01*
X137477461Y-133030315D01*
X137431706Y-132977511D01*
X137420500Y-132926000D01*
X137420500Y-132569098D01*
X137440185Y-132502059D01*
X137492989Y-132456304D01*
X137562147Y-132446360D01*
X137625703Y-132475385D01*
X137630905Y-132480228D01*
X137631281Y-132480517D01*
X137631284Y-132480520D01*
X137631287Y-132480521D01*
X137631290Y-132480524D01*
X137768209Y-132559573D01*
X137768216Y-132559577D01*
X137920943Y-132600500D01*
X137920945Y-132600500D01*
X138079055Y-132600500D01*
X138079057Y-132600500D01*
X138231784Y-132559577D01*
X138368716Y-132480520D01*
X138480520Y-132368716D01*
X138517230Y-132305131D01*
X145399500Y-132305131D01*
X145399500Y-133194856D01*
X145399502Y-133194882D01*
X145402413Y-133219986D01*
X145402414Y-133219990D01*
X145402415Y-133219991D01*
X145447794Y-133322765D01*
X145447795Y-133322766D01*
X145448743Y-133324913D01*
X145457814Y-133394191D01*
X145448743Y-133425085D01*
X145402415Y-133530009D01*
X145399500Y-133555131D01*
X145399500Y-134444856D01*
X145399502Y-134444882D01*
X145402413Y-134469986D01*
X145402414Y-134469990D01*
X145402415Y-134469991D01*
X145447794Y-134572765D01*
X145447795Y-134572766D01*
X145448743Y-134574913D01*
X145457814Y-134644191D01*
X145448743Y-134675085D01*
X145402415Y-134780009D01*
X145399500Y-134805131D01*
X145399500Y-135694856D01*
X145399502Y-135694882D01*
X145402413Y-135719986D01*
X145402414Y-135719990D01*
X145402415Y-135719991D01*
X145447794Y-135822765D01*
X145447795Y-135822766D01*
X145448743Y-135824913D01*
X145457814Y-135894191D01*
X145448743Y-135925085D01*
X145402415Y-136030009D01*
X145399500Y-136055131D01*
X145399500Y-136944856D01*
X145399502Y-136944882D01*
X145402413Y-136969987D01*
X145402415Y-136969991D01*
X145447793Y-137072764D01*
X145447794Y-137072765D01*
X145527235Y-137152206D01*
X145630009Y-137197585D01*
X145655135Y-137200500D01*
X147344864Y-137200499D01*
X147344879Y-137200497D01*
X147344882Y-137200497D01*
X147369987Y-137197586D01*
X147369988Y-137197585D01*
X147369991Y-137197585D01*
X147472765Y-137152206D01*
X147552206Y-137072765D01*
X147597585Y-136969991D01*
X147600500Y-136944865D01*
X147600499Y-136055136D01*
X147600497Y-136055117D01*
X147597586Y-136030012D01*
X147597585Y-136030008D01*
X147551257Y-135925086D01*
X147542185Y-135855808D01*
X147551257Y-135824913D01*
X147552204Y-135822766D01*
X147552206Y-135822765D01*
X147597585Y-135719991D01*
X147600500Y-135694865D01*
X147600499Y-134805136D01*
X147600497Y-134805117D01*
X147597586Y-134780012D01*
X147597585Y-134780008D01*
X147551257Y-134675086D01*
X147542185Y-134605808D01*
X147551257Y-134574913D01*
X147552204Y-134572766D01*
X147552206Y-134572765D01*
X147597585Y-134469991D01*
X147600500Y-134444865D01*
X147600499Y-133555136D01*
X147600497Y-133555117D01*
X147597586Y-133530012D01*
X147597585Y-133530008D01*
X147551257Y-133425086D01*
X147542185Y-133355808D01*
X147551257Y-133324913D01*
X147552204Y-133322766D01*
X147552206Y-133322765D01*
X147597585Y-133219991D01*
X147600500Y-133194865D01*
X147600499Y-132305136D01*
X147600497Y-132305117D01*
X147597586Y-132280012D01*
X147597585Y-132280010D01*
X147597585Y-132280009D01*
X147552206Y-132177235D01*
X147472765Y-132097794D01*
X147430330Y-132079057D01*
X147369992Y-132052415D01*
X147344865Y-132049500D01*
X145655143Y-132049500D01*
X145655117Y-132049502D01*
X145630012Y-132052413D01*
X145630008Y-132052415D01*
X145527235Y-132097793D01*
X145447794Y-132177234D01*
X145402415Y-132280006D01*
X145402415Y-132280008D01*
X145399500Y-132305131D01*
X138517230Y-132305131D01*
X138559577Y-132231784D01*
X138600500Y-132079057D01*
X138600500Y-131920943D01*
X138559577Y-131768216D01*
X138512829Y-131687245D01*
X138480524Y-131631290D01*
X138480518Y-131631282D01*
X138436819Y-131587583D01*
X138403334Y-131526260D01*
X138400500Y-131499902D01*
X138400500Y-130182125D01*
X138420185Y-130115086D01*
X138436819Y-130094444D01*
X138555480Y-129975783D01*
X138608207Y-129884458D01*
X138635500Y-129782597D01*
X138635500Y-129677143D01*
X138635500Y-129105131D01*
X147599500Y-129105131D01*
X147599500Y-131294856D01*
X147599502Y-131294882D01*
X147602413Y-131319987D01*
X147602415Y-131319991D01*
X147647793Y-131422764D01*
X147647794Y-131422765D01*
X147727235Y-131502206D01*
X147830009Y-131547585D01*
X147855135Y-131550500D01*
X150944864Y-131550499D01*
X150944879Y-131550497D01*
X150944882Y-131550497D01*
X150969987Y-131547586D01*
X150969988Y-131547585D01*
X150969991Y-131547585D01*
X151072765Y-131502206D01*
X151152206Y-131422765D01*
X151197585Y-131319991D01*
X151200500Y-131294865D01*
X151200499Y-129105136D01*
X151200497Y-129105117D01*
X151197586Y-129080012D01*
X151197585Y-129080010D01*
X151197585Y-129080009D01*
X151152206Y-128977235D01*
X151072765Y-128897794D01*
X151026493Y-128877363D01*
X150969992Y-128852415D01*
X150944865Y-128849500D01*
X147855143Y-128849500D01*
X147855117Y-128849502D01*
X147830012Y-128852413D01*
X147830008Y-128852415D01*
X147727235Y-128897793D01*
X147647794Y-128977234D01*
X147602415Y-129080006D01*
X147602415Y-129080008D01*
X147599500Y-129105131D01*
X138635500Y-129105131D01*
X138635500Y-128787730D01*
X138635501Y-128787727D01*
X138635501Y-128682273D01*
X138635500Y-128682269D01*
X138635500Y-126802978D01*
X138655185Y-126735939D01*
X138707989Y-126690184D01*
X138777147Y-126680240D01*
X138811905Y-126690596D01*
X138839332Y-126703385D01*
X138839331Y-126703385D01*
X138889565Y-126709998D01*
X138889583Y-126710000D01*
X139035000Y-126710000D01*
X139035000Y-124760000D01*
X139335000Y-124760000D01*
X139335000Y-126710000D01*
X139480417Y-126710000D01*
X139480434Y-126709998D01*
X139530668Y-126703385D01*
X139530669Y-126703385D01*
X139607001Y-126667790D01*
X139676078Y-126657297D01*
X139711807Y-126667787D01*
X139789199Y-126703876D01*
X139839513Y-126710500D01*
X139839514Y-126710500D01*
X140430487Y-126710500D01*
X140447257Y-126708292D01*
X140480801Y-126703876D01*
X140591228Y-126652383D01*
X140677383Y-126566228D01*
X140728876Y-126455801D01*
X140735500Y-126405486D01*
X140735500Y-125064514D01*
X140728876Y-125014199D01*
X140677383Y-124903772D01*
X140591228Y-124817617D01*
X140480801Y-124766124D01*
X140480799Y-124766123D01*
X140480800Y-124766123D01*
X140430487Y-124759500D01*
X140430486Y-124759500D01*
X139839514Y-124759500D01*
X139839513Y-124759500D01*
X139789199Y-124766123D01*
X139789198Y-124766123D01*
X139711811Y-124802210D01*
X139642734Y-124812702D01*
X139607002Y-124802210D01*
X139530667Y-124766614D01*
X139530668Y-124766614D01*
X139480434Y-124760001D01*
X139480417Y-124760000D01*
X139335000Y-124760000D01*
X139035000Y-124760000D01*
X138889583Y-124760000D01*
X138889565Y-124760001D01*
X138839331Y-124766614D01*
X138762997Y-124802210D01*
X138693919Y-124812702D01*
X138658188Y-124802210D01*
X138580801Y-124766124D01*
X138580799Y-124766123D01*
X138580800Y-124766123D01*
X138530487Y-124759500D01*
X138530486Y-124759500D01*
X137939514Y-124759500D01*
X137939513Y-124759500D01*
X137889200Y-124766123D01*
X137778771Y-124817617D01*
X137692617Y-124903771D01*
X137637115Y-125022797D01*
X137633738Y-125021222D01*
X137605876Y-125064753D01*
X137542374Y-125093896D01*
X137473198Y-125084081D01*
X137420309Y-125038424D01*
X137400500Y-124971421D01*
X137400500Y-124562729D01*
X137400501Y-124562716D01*
X137400501Y-124447276D01*
X137400501Y-124447274D01*
X137373207Y-124345413D01*
X137366546Y-124333876D01*
X137320480Y-124254087D01*
X137245913Y-124179520D01*
X137245911Y-124179518D01*
X136934413Y-123868020D01*
X136888750Y-123841656D01*
X136843089Y-123815293D01*
X136755293Y-123791769D01*
X136741227Y-123788000D01*
X136741226Y-123788000D01*
X133624500Y-123788000D01*
X133557461Y-123768315D01*
X133511706Y-123715511D01*
X133500500Y-123664000D01*
X133500500Y-123242255D01*
X133520185Y-123175216D01*
X133536819Y-123154574D01*
X134678052Y-122013341D01*
X135820480Y-120870913D01*
X135873207Y-120779588D01*
X135900500Y-120677727D01*
X135900500Y-120572273D01*
X135900500Y-120500098D01*
X135920185Y-120433059D01*
X135936819Y-120412417D01*
X135980520Y-120368716D01*
X136059577Y-120231784D01*
X136100500Y-120079057D01*
X136100500Y-119920943D01*
X136059577Y-119768216D01*
X136059573Y-119768209D01*
X135980524Y-119631290D01*
X135980518Y-119631282D01*
X135961417Y-119612181D01*
X135927932Y-119550858D01*
X135932916Y-119481166D01*
X135974788Y-119425233D01*
X136040252Y-119400816D01*
X136049098Y-119400500D01*
X137678389Y-119400500D01*
X137745428Y-119420185D01*
X137791183Y-119472989D01*
X137801127Y-119542147D01*
X137772102Y-119605703D01*
X137766575Y-119611637D01*
X137766473Y-119611778D01*
X137705279Y-119731878D01*
X137689500Y-119831506D01*
X137689500Y-121168493D01*
X137705279Y-121268121D01*
X137705280Y-121268124D01*
X137705281Y-121268126D01*
X137756415Y-121368482D01*
X137766473Y-121388221D01*
X137766475Y-121388224D01*
X137798180Y-121419928D01*
X137831666Y-121481250D01*
X137834500Y-121507610D01*
X137834500Y-122344045D01*
X137814815Y-122411084D01*
X137781629Y-122445616D01*
X137778772Y-122447616D01*
X137692617Y-122533771D01*
X137641123Y-122644200D01*
X137634500Y-122694513D01*
X137634500Y-124035486D01*
X137641123Y-124085799D01*
X137666534Y-124140292D01*
X137692617Y-124196228D01*
X137778772Y-124282383D01*
X137889199Y-124333876D01*
X137939513Y-124340500D01*
X137939514Y-124340500D01*
X138530487Y-124340500D01*
X138547257Y-124338292D01*
X138580801Y-124333876D01*
X138691228Y-124282383D01*
X138777383Y-124196228D01*
X138828876Y-124085801D01*
X138835500Y-124035486D01*
X138835500Y-122694514D01*
X138835500Y-122694513D01*
X139534500Y-122694513D01*
X139534500Y-124035486D01*
X139541123Y-124085799D01*
X139566534Y-124140292D01*
X139592617Y-124196228D01*
X139678772Y-124282383D01*
X139789199Y-124333876D01*
X139839513Y-124340500D01*
X139839514Y-124340500D01*
X140430487Y-124340500D01*
X140447257Y-124338292D01*
X140480801Y-124333876D01*
X140591228Y-124282383D01*
X140677383Y-124196228D01*
X140728876Y-124085801D01*
X140735500Y-124035486D01*
X140735500Y-123938464D01*
X147599500Y-123938464D01*
X147599500Y-126128189D01*
X147599502Y-126128215D01*
X147602413Y-126153320D01*
X147602415Y-126153324D01*
X147647793Y-126256097D01*
X147647794Y-126256098D01*
X147727235Y-126335539D01*
X147830009Y-126380918D01*
X147855135Y-126383833D01*
X150944864Y-126383832D01*
X150944879Y-126383830D01*
X150944882Y-126383830D01*
X150969987Y-126380919D01*
X150969988Y-126380918D01*
X150969991Y-126380918D01*
X151072765Y-126335539D01*
X151152206Y-126256098D01*
X151197585Y-126153324D01*
X151200500Y-126128198D01*
X151200499Y-123938469D01*
X151200497Y-123938450D01*
X151197586Y-123913345D01*
X151197585Y-123913343D01*
X151197585Y-123913342D01*
X151152206Y-123810568D01*
X151072765Y-123731127D01*
X151037398Y-123715511D01*
X150969992Y-123685748D01*
X150944865Y-123682833D01*
X147855143Y-123682833D01*
X147855117Y-123682835D01*
X147830012Y-123685746D01*
X147830008Y-123685748D01*
X147727235Y-123731126D01*
X147647794Y-123810567D01*
X147602415Y-123913339D01*
X147602415Y-123913341D01*
X147599500Y-123938464D01*
X140735500Y-123938464D01*
X140735500Y-122694514D01*
X140728876Y-122644199D01*
X140677383Y-122533772D01*
X140591228Y-122447617D01*
X140480801Y-122396124D01*
X140480799Y-122396123D01*
X140480800Y-122396123D01*
X140430487Y-122389500D01*
X140430486Y-122389500D01*
X139839514Y-122389500D01*
X139839513Y-122389500D01*
X139789200Y-122396123D01*
X139678771Y-122447617D01*
X139592617Y-122533771D01*
X139541123Y-122644200D01*
X139534500Y-122694513D01*
X138835500Y-122694513D01*
X138828876Y-122644199D01*
X138777383Y-122533772D01*
X138691228Y-122447617D01*
X138691227Y-122447616D01*
X138688371Y-122445616D01*
X138684963Y-122441352D01*
X138683557Y-122439946D01*
X138683713Y-122439789D01*
X138644749Y-122391037D01*
X138635500Y-122344045D01*
X138635500Y-121684500D01*
X138655185Y-121617461D01*
X138707989Y-121571706D01*
X138759500Y-121560500D01*
X138898493Y-121560500D01*
X138998121Y-121544720D01*
X138998121Y-121544719D01*
X138998126Y-121544719D01*
X139118220Y-121483528D01*
X139213528Y-121388220D01*
X139274719Y-121268126D01*
X139286366Y-121194592D01*
X139290500Y-121168493D01*
X139290500Y-119831506D01*
X139274720Y-119731878D01*
X139274719Y-119731876D01*
X139274719Y-119731874D01*
X139213528Y-119611780D01*
X139213526Y-119611778D01*
X139207789Y-119603881D01*
X139208940Y-119603044D01*
X139180445Y-119550858D01*
X139185429Y-119481166D01*
X139227301Y-119425233D01*
X139292765Y-119400816D01*
X139301611Y-119400500D01*
X139698389Y-119400500D01*
X139765428Y-119420185D01*
X139811183Y-119472989D01*
X139821127Y-119542147D01*
X139792102Y-119605703D01*
X139786575Y-119611637D01*
X139786473Y-119611778D01*
X139725279Y-119731878D01*
X139709500Y-119831506D01*
X139709500Y-121168493D01*
X139725279Y-121268121D01*
X139725280Y-121268124D01*
X139725281Y-121268126D01*
X139776415Y-121368482D01*
X139786473Y-121388221D01*
X139786476Y-121388225D01*
X139881774Y-121483523D01*
X139881778Y-121483526D01*
X139881780Y-121483528D01*
X140001874Y-121544719D01*
X140001876Y-121544719D01*
X140001878Y-121544720D01*
X140101507Y-121560500D01*
X140101512Y-121560500D01*
X140918493Y-121560500D01*
X141018121Y-121544720D01*
X141018121Y-121544719D01*
X141018126Y-121544719D01*
X141138220Y-121483528D01*
X141233528Y-121388220D01*
X141294719Y-121268126D01*
X141306366Y-121194592D01*
X141310500Y-121168493D01*
X141310500Y-121024500D01*
X141330185Y-120957461D01*
X141382989Y-120911706D01*
X141434500Y-120900500D01*
X141552725Y-120900500D01*
X141552727Y-120900500D01*
X141654588Y-120873207D01*
X141745913Y-120820480D01*
X144277929Y-118288464D01*
X145399500Y-118288464D01*
X145399500Y-119178189D01*
X145399502Y-119178215D01*
X145402413Y-119203319D01*
X145402414Y-119203323D01*
X145402415Y-119203324D01*
X145447794Y-119306098D01*
X145447795Y-119306099D01*
X145448743Y-119308246D01*
X145457814Y-119377524D01*
X145448743Y-119408418D01*
X145402415Y-119513342D01*
X145399500Y-119538464D01*
X145399500Y-120428189D01*
X145399502Y-120428215D01*
X145402413Y-120453319D01*
X145402414Y-120453323D01*
X145402415Y-120453324D01*
X145447794Y-120556098D01*
X145447795Y-120556099D01*
X145448743Y-120558246D01*
X145457814Y-120627524D01*
X145448743Y-120658418D01*
X145402415Y-120763342D01*
X145399500Y-120788464D01*
X145399500Y-121678189D01*
X145399502Y-121678215D01*
X145402413Y-121703319D01*
X145402414Y-121703323D01*
X145402415Y-121703324D01*
X145447794Y-121806098D01*
X145447795Y-121806099D01*
X145448743Y-121808246D01*
X145457814Y-121877524D01*
X145448743Y-121908418D01*
X145402415Y-122013342D01*
X145399500Y-122038464D01*
X145399500Y-122928189D01*
X145399502Y-122928215D01*
X145402413Y-122953320D01*
X145402415Y-122953324D01*
X145447793Y-123056097D01*
X145447794Y-123056098D01*
X145527235Y-123135539D01*
X145630009Y-123180918D01*
X145655135Y-123183833D01*
X147344864Y-123183832D01*
X147344879Y-123183830D01*
X147344882Y-123183830D01*
X147369987Y-123180919D01*
X147369988Y-123180918D01*
X147369991Y-123180918D01*
X147472765Y-123135539D01*
X147552206Y-123056098D01*
X147597585Y-122953324D01*
X147600500Y-122928198D01*
X147600499Y-122038469D01*
X147599114Y-122026524D01*
X147597586Y-122013345D01*
X147597585Y-122013341D01*
X147551257Y-121908419D01*
X147542185Y-121839141D01*
X147551257Y-121808246D01*
X147552204Y-121806099D01*
X147552206Y-121806098D01*
X147597585Y-121703324D01*
X147600500Y-121678198D01*
X147600499Y-120788469D01*
X147600497Y-120788450D01*
X147597586Y-120763345D01*
X147597585Y-120763341D01*
X147551257Y-120658419D01*
X147542185Y-120589141D01*
X147551257Y-120558246D01*
X147552204Y-120556099D01*
X147552206Y-120556098D01*
X147597585Y-120453324D01*
X147600500Y-120428198D01*
X147600499Y-119538469D01*
X147598297Y-119519480D01*
X147597586Y-119513345D01*
X147597585Y-119513341D01*
X147551257Y-119408419D01*
X147542185Y-119339141D01*
X147551257Y-119308246D01*
X147552204Y-119306099D01*
X147552206Y-119306098D01*
X147597585Y-119203324D01*
X147600500Y-119178198D01*
X147600499Y-118288469D01*
X147600497Y-118288450D01*
X147597586Y-118263345D01*
X147597585Y-118263343D01*
X147597585Y-118263342D01*
X147552206Y-118160568D01*
X147472765Y-118081127D01*
X147472763Y-118081126D01*
X147369992Y-118035748D01*
X147344865Y-118032833D01*
X145655143Y-118032833D01*
X145655117Y-118032835D01*
X145630012Y-118035746D01*
X145630008Y-118035748D01*
X145527235Y-118081126D01*
X145447794Y-118160567D01*
X145402415Y-118263339D01*
X145402415Y-118263341D01*
X145399500Y-118288464D01*
X144277929Y-118288464D01*
X144320480Y-118245913D01*
X144373207Y-118154588D01*
X144400500Y-118052727D01*
X144400500Y-117947273D01*
X144400500Y-115088464D01*
X147599500Y-115088464D01*
X147599500Y-117278189D01*
X147599502Y-117278215D01*
X147602413Y-117303320D01*
X147602415Y-117303324D01*
X147647793Y-117406097D01*
X147647794Y-117406098D01*
X147727235Y-117485539D01*
X147830009Y-117530918D01*
X147855135Y-117533833D01*
X150944864Y-117533832D01*
X150944879Y-117533830D01*
X150944882Y-117533830D01*
X150969987Y-117530919D01*
X150969988Y-117530918D01*
X150969991Y-117530918D01*
X151072765Y-117485539D01*
X151152206Y-117406098D01*
X151197585Y-117303324D01*
X151200500Y-117278198D01*
X151200499Y-115088469D01*
X151200497Y-115088450D01*
X151197586Y-115063345D01*
X151197585Y-115063343D01*
X151197585Y-115063342D01*
X151152206Y-114960568D01*
X151072765Y-114881127D01*
X151072763Y-114881126D01*
X150969992Y-114835748D01*
X150944865Y-114832833D01*
X147855143Y-114832833D01*
X147855117Y-114832835D01*
X147830012Y-114835746D01*
X147830008Y-114835748D01*
X147727235Y-114881126D01*
X147647794Y-114960567D01*
X147602415Y-115063339D01*
X147602415Y-115063341D01*
X147599500Y-115088464D01*
X144400500Y-115088464D01*
X144400500Y-113000098D01*
X144420185Y-112933059D01*
X144436819Y-112912417D01*
X144451140Y-112898096D01*
X144480520Y-112868716D01*
X144559577Y-112731784D01*
X144600500Y-112579057D01*
X144600500Y-112420943D01*
X144559577Y-112268216D01*
X144512168Y-112186100D01*
X144480524Y-112131290D01*
X144480518Y-112131282D01*
X144368717Y-112019481D01*
X144368709Y-112019475D01*
X144231790Y-111940426D01*
X144231786Y-111940424D01*
X144231784Y-111940423D01*
X144079057Y-111899500D01*
X144079056Y-111899500D01*
X144024500Y-111899500D01*
X143957461Y-111879815D01*
X143911706Y-111827011D01*
X143900500Y-111775500D01*
X143900500Y-109921798D01*
X147599500Y-109921798D01*
X147599500Y-112111523D01*
X147599502Y-112111549D01*
X147602413Y-112136654D01*
X147602415Y-112136658D01*
X147647793Y-112239431D01*
X147647794Y-112239432D01*
X147727235Y-112318873D01*
X147830009Y-112364252D01*
X147855135Y-112367167D01*
X150944864Y-112367166D01*
X150944879Y-112367164D01*
X150944882Y-112367164D01*
X150969987Y-112364253D01*
X150969988Y-112364252D01*
X150969991Y-112364252D01*
X151072765Y-112318873D01*
X151152206Y-112239432D01*
X151197585Y-112136658D01*
X151200500Y-112111532D01*
X151200499Y-109921803D01*
X151197913Y-109899500D01*
X151197586Y-109896679D01*
X151197585Y-109896677D01*
X151197585Y-109896676D01*
X151152206Y-109793902D01*
X151072765Y-109714461D01*
X151072763Y-109714460D01*
X150969992Y-109669082D01*
X150944865Y-109666167D01*
X147855143Y-109666167D01*
X147855117Y-109666169D01*
X147830012Y-109669080D01*
X147830008Y-109669082D01*
X147727235Y-109714460D01*
X147647794Y-109793901D01*
X147602415Y-109896673D01*
X147602415Y-109896675D01*
X147599500Y-109921798D01*
X143900500Y-109921798D01*
X143900500Y-104271798D01*
X145399500Y-104271798D01*
X145399500Y-105161523D01*
X145399502Y-105161549D01*
X145402413Y-105186653D01*
X145402414Y-105186657D01*
X145402415Y-105186658D01*
X145447794Y-105289432D01*
X145447795Y-105289433D01*
X145448743Y-105291580D01*
X145457814Y-105360858D01*
X145448743Y-105391752D01*
X145402415Y-105496676D01*
X145399500Y-105521798D01*
X145399500Y-106411523D01*
X145399502Y-106411549D01*
X145402413Y-106436653D01*
X145402414Y-106436657D01*
X145402415Y-106436658D01*
X145447794Y-106539432D01*
X145447795Y-106539433D01*
X145448743Y-106541580D01*
X145457814Y-106610858D01*
X145448743Y-106641752D01*
X145402415Y-106746676D01*
X145399500Y-106771798D01*
X145399500Y-107661523D01*
X145399502Y-107661549D01*
X145402413Y-107686653D01*
X145402414Y-107686657D01*
X145402415Y-107686658D01*
X145447794Y-107789432D01*
X145447795Y-107789433D01*
X145448743Y-107791580D01*
X145457814Y-107860858D01*
X145448743Y-107891752D01*
X145402415Y-107996676D01*
X145399500Y-108021798D01*
X145399500Y-108911523D01*
X145399502Y-108911549D01*
X145402413Y-108936654D01*
X145402415Y-108936658D01*
X145447793Y-109039431D01*
X145447794Y-109039432D01*
X145527235Y-109118873D01*
X145630009Y-109164252D01*
X145655135Y-109167167D01*
X147344864Y-109167166D01*
X147344879Y-109167164D01*
X147344882Y-109167164D01*
X147369987Y-109164253D01*
X147369988Y-109164252D01*
X147369991Y-109164252D01*
X147472765Y-109118873D01*
X147552206Y-109039432D01*
X147597585Y-108936658D01*
X147600500Y-108911532D01*
X147600499Y-108021803D01*
X147600497Y-108021784D01*
X147597586Y-107996679D01*
X147597585Y-107996675D01*
X147551257Y-107891753D01*
X147542185Y-107822475D01*
X147551257Y-107791580D01*
X147552204Y-107789433D01*
X147552206Y-107789432D01*
X147597585Y-107686658D01*
X147600500Y-107661532D01*
X147600499Y-106771803D01*
X147600497Y-106771784D01*
X147597586Y-106746679D01*
X147597585Y-106746675D01*
X147551257Y-106641753D01*
X147542185Y-106572475D01*
X147551257Y-106541580D01*
X147552204Y-106539433D01*
X147552206Y-106539432D01*
X147597585Y-106436658D01*
X147600500Y-106411532D01*
X147600499Y-105521803D01*
X147600497Y-105521784D01*
X147597586Y-105496679D01*
X147597585Y-105496675D01*
X147561607Y-105415194D01*
X147552206Y-105393902D01*
X147552205Y-105393901D01*
X147551257Y-105391753D01*
X147542185Y-105322475D01*
X147551257Y-105291580D01*
X147552204Y-105289433D01*
X147552206Y-105289432D01*
X147597585Y-105186658D01*
X147600500Y-105161532D01*
X147600499Y-104271803D01*
X147600497Y-104271784D01*
X147597586Y-104246679D01*
X147597585Y-104246677D01*
X147597585Y-104246676D01*
X147552206Y-104143902D01*
X147472765Y-104064461D01*
X147472763Y-104064460D01*
X147369992Y-104019082D01*
X147344865Y-104016167D01*
X145655143Y-104016167D01*
X145655117Y-104016169D01*
X145630012Y-104019080D01*
X145630008Y-104019082D01*
X145527235Y-104064460D01*
X145447794Y-104143901D01*
X145402415Y-104246673D01*
X145402415Y-104246675D01*
X145399500Y-104271798D01*
X143900500Y-104271798D01*
X143900500Y-101071798D01*
X147599500Y-101071798D01*
X147599500Y-103261523D01*
X147599502Y-103261549D01*
X147602413Y-103286654D01*
X147602415Y-103286658D01*
X147647793Y-103389431D01*
X147647794Y-103389432D01*
X147727235Y-103468873D01*
X147830009Y-103514252D01*
X147855135Y-103517167D01*
X150944864Y-103517166D01*
X150944879Y-103517164D01*
X150944882Y-103517164D01*
X150969987Y-103514253D01*
X150969988Y-103514252D01*
X150969991Y-103514252D01*
X151072765Y-103468873D01*
X151152206Y-103389432D01*
X151197585Y-103286658D01*
X151200500Y-103261532D01*
X151200499Y-101071803D01*
X151200497Y-101071784D01*
X151197586Y-101046679D01*
X151197585Y-101046677D01*
X151197585Y-101046676D01*
X151152206Y-100943902D01*
X151072765Y-100864461D01*
X151044942Y-100852176D01*
X150969992Y-100819082D01*
X150944865Y-100816167D01*
X147855143Y-100816167D01*
X147855117Y-100816169D01*
X147830012Y-100819080D01*
X147830008Y-100819082D01*
X147727235Y-100864460D01*
X147647794Y-100943901D01*
X147602415Y-101046673D01*
X147602415Y-101046675D01*
X147599500Y-101071798D01*
X143900500Y-101071798D01*
X143900500Y-95905131D01*
X147599500Y-95905131D01*
X147599500Y-98094856D01*
X147599502Y-98094882D01*
X147602413Y-98119987D01*
X147602415Y-98119991D01*
X147647793Y-98222764D01*
X147647794Y-98222765D01*
X147727235Y-98302206D01*
X147830009Y-98347585D01*
X147855135Y-98350500D01*
X150944864Y-98350499D01*
X150944879Y-98350497D01*
X150944882Y-98350497D01*
X150969987Y-98347586D01*
X150969988Y-98347585D01*
X150969991Y-98347585D01*
X151072765Y-98302206D01*
X151152206Y-98222765D01*
X151197585Y-98119991D01*
X151200500Y-98094865D01*
X151200499Y-95905136D01*
X151200497Y-95905117D01*
X151197586Y-95880012D01*
X151197585Y-95880010D01*
X151197585Y-95880009D01*
X151152206Y-95777235D01*
X151072765Y-95697794D01*
X151072763Y-95697793D01*
X150969992Y-95652415D01*
X150944865Y-95649500D01*
X147855143Y-95649500D01*
X147855117Y-95649502D01*
X147830012Y-95652413D01*
X147830008Y-95652415D01*
X147727235Y-95697793D01*
X147647794Y-95777234D01*
X147602415Y-95880006D01*
X147602415Y-95880008D01*
X147599500Y-95905131D01*
X143900500Y-95905131D01*
X143900500Y-92699275D01*
X143900500Y-92699273D01*
X143873207Y-92597412D01*
X143820480Y-92506087D01*
X143122913Y-91808520D01*
X143077250Y-91782156D01*
X143031589Y-91755793D01*
X142980657Y-91742146D01*
X142929727Y-91728500D01*
X125024273Y-91728500D01*
X124922413Y-91755793D01*
X124922410Y-91755794D01*
X124831090Y-91808517D01*
X124831085Y-91808521D01*
X124546425Y-92093181D01*
X124485102Y-92126666D01*
X124458744Y-92129500D01*
X123531143Y-92129500D01*
X123531117Y-92129502D01*
X123506012Y-92132413D01*
X123506008Y-92132415D01*
X123403235Y-92177793D01*
X123323794Y-92257234D01*
X123278415Y-92360006D01*
X123278415Y-92360008D01*
X123275500Y-92385131D01*
X123000500Y-92385131D01*
X123000500Y-90255131D01*
X145399500Y-90255131D01*
X145399500Y-91144856D01*
X145399502Y-91144882D01*
X145402413Y-91169986D01*
X145402414Y-91169990D01*
X145402415Y-91169991D01*
X145447794Y-91272765D01*
X145447795Y-91272766D01*
X145448743Y-91274913D01*
X145457814Y-91344191D01*
X145448743Y-91375085D01*
X145402415Y-91480009D01*
X145399500Y-91505131D01*
X145399500Y-92394856D01*
X145399502Y-92394882D01*
X145402413Y-92419986D01*
X145402414Y-92419990D01*
X145402415Y-92419991D01*
X145447794Y-92522765D01*
X145447795Y-92522766D01*
X145448743Y-92524913D01*
X145457814Y-92594191D01*
X145448743Y-92625085D01*
X145402415Y-92730009D01*
X145399500Y-92755131D01*
X145399500Y-93644856D01*
X145399502Y-93644882D01*
X145402413Y-93669986D01*
X145402414Y-93669990D01*
X145402415Y-93669991D01*
X145447794Y-93772765D01*
X145447795Y-93772766D01*
X145448743Y-93774913D01*
X145457814Y-93844191D01*
X145448743Y-93875085D01*
X145402415Y-93980009D01*
X145399500Y-94005131D01*
X145399500Y-94894856D01*
X145399502Y-94894882D01*
X145402413Y-94919987D01*
X145402415Y-94919991D01*
X145447793Y-95022764D01*
X145447794Y-95022765D01*
X145527235Y-95102206D01*
X145630009Y-95147585D01*
X145655135Y-95150500D01*
X147344864Y-95150499D01*
X147344879Y-95150497D01*
X147344882Y-95150497D01*
X147369987Y-95147586D01*
X147369988Y-95147585D01*
X147369991Y-95147585D01*
X147472765Y-95102206D01*
X147552206Y-95022765D01*
X147597585Y-94919991D01*
X147600500Y-94894865D01*
X147600499Y-94005136D01*
X147600497Y-94005117D01*
X147597586Y-93980012D01*
X147597585Y-93980008D01*
X147551257Y-93875086D01*
X147542185Y-93805808D01*
X147551257Y-93774913D01*
X147552204Y-93772766D01*
X147552206Y-93772765D01*
X147597585Y-93669991D01*
X147600500Y-93644865D01*
X147600499Y-92755136D01*
X147600497Y-92755117D01*
X147597586Y-92730012D01*
X147597585Y-92730008D01*
X147551257Y-92625086D01*
X147542185Y-92555808D01*
X147551257Y-92524913D01*
X147552204Y-92522766D01*
X147552206Y-92522765D01*
X147597585Y-92419991D01*
X147600500Y-92394865D01*
X147600499Y-91505136D01*
X147600497Y-91505117D01*
X147597586Y-91480012D01*
X147597585Y-91480008D01*
X147551257Y-91375086D01*
X147542185Y-91305808D01*
X147551257Y-91274913D01*
X147552204Y-91272766D01*
X147552206Y-91272765D01*
X147597585Y-91169991D01*
X147600500Y-91144865D01*
X147600499Y-90255136D01*
X147600497Y-90255117D01*
X147597586Y-90230012D01*
X147597585Y-90230010D01*
X147597585Y-90230009D01*
X147552206Y-90127235D01*
X147472765Y-90047794D01*
X147472763Y-90047793D01*
X147369992Y-90002415D01*
X147344865Y-89999500D01*
X145655143Y-89999500D01*
X145655117Y-89999502D01*
X145630012Y-90002413D01*
X145630008Y-90002415D01*
X145527235Y-90047793D01*
X145447794Y-90127234D01*
X145402415Y-90230006D01*
X145402415Y-90230008D01*
X145399500Y-90255131D01*
X123000500Y-90255131D01*
X123000500Y-87055131D01*
X147599500Y-87055131D01*
X147599500Y-89244856D01*
X147599502Y-89244882D01*
X147602413Y-89269987D01*
X147602415Y-89269991D01*
X147647793Y-89372764D01*
X147647794Y-89372765D01*
X147727235Y-89452206D01*
X147830009Y-89497585D01*
X147855135Y-89500500D01*
X150944864Y-89500499D01*
X150944879Y-89500497D01*
X150944882Y-89500497D01*
X150969987Y-89497586D01*
X150969988Y-89497585D01*
X150969991Y-89497585D01*
X151072765Y-89452206D01*
X151152206Y-89372765D01*
X151197585Y-89269991D01*
X151200500Y-89244865D01*
X151200499Y-87055136D01*
X151200497Y-87055117D01*
X151197586Y-87030012D01*
X151197585Y-87030010D01*
X151197585Y-87030009D01*
X151152206Y-86927235D01*
X151072765Y-86847794D01*
X151072763Y-86847793D01*
X150969992Y-86802415D01*
X150944865Y-86799500D01*
X147855143Y-86799500D01*
X147855117Y-86799502D01*
X147830012Y-86802413D01*
X147830008Y-86802415D01*
X147727235Y-86847793D01*
X147647794Y-86927234D01*
X147602415Y-87030006D01*
X147602415Y-87030008D01*
X147599500Y-87055131D01*
X123000500Y-87055131D01*
X123000500Y-86624500D01*
X123020185Y-86557461D01*
X123072989Y-86511706D01*
X123124500Y-86500500D01*
X153875500Y-86500500D01*
X153942539Y-86520185D01*
G37*
%TD.AperFunction*%
%TD*%
M02*
