%TF.GenerationSoftware,KiCad,Pcbnew,9.0.7-9.0.7~ubuntu24.04.1*%
%TF.CreationDate,2026-02-24T20:43:50+01:00*%
%TF.ProjectId,boutons,626f7574-6f6e-4732-9e6b-696361645f70,rev?*%
%TF.SameCoordinates,Original*%
%TF.FileFunction,Copper,L1,Top*%
%TF.FilePolarity,Positive*%
%FSLAX46Y46*%
G04 Gerber Fmt 4.6, Leading zero omitted, Abs format (unit mm)*
G04 Created by KiCad (PCBNEW 9.0.7-9.0.7~ubuntu24.04.1) date 2026-02-24 20:43:50*
%MOMM*%
%LPD*%
G01*
G04 APERTURE LIST*
G04 Aperture macros list*
%AMRoundRect*
0 Rectangle with rounded corners*
0 $1 Rounding radius*
0 $2 $3 $4 $5 $6 $7 $8 $9 X,Y pos of 4 corners*
0 Add a 4 corners polygon primitive as box body*
4,1,4,$2,$3,$4,$5,$6,$7,$8,$9,$2,$3,0*
0 Add four circle primitives for the rounded corners*
1,1,$1+$1,$2,$3*
1,1,$1+$1,$4,$5*
1,1,$1+$1,$6,$7*
1,1,$1+$1,$8,$9*
0 Add four rect primitives between the rounded corners*
20,1,$1+$1,$2,$3,$4,$5,0*
20,1,$1+$1,$4,$5,$6,$7,0*
20,1,$1+$1,$6,$7,$8,$9,0*
20,1,$1+$1,$8,$9,$2,$3,0*%
G04 Aperture macros list end*
%TA.AperFunction,SMDPad,CuDef*%
%ADD10R,1.701800X0.812800*%
%TD*%
%TA.AperFunction,SMDPad,CuDef*%
%ADD11R,3.098800X2.209800*%
%TD*%
%TA.AperFunction,SMDPad,CuDef*%
%ADD12RoundRect,0.250000X-0.475000X0.250000X-0.475000X-0.250000X0.475000X-0.250000X0.475000X0.250000X0*%
%TD*%
%TA.AperFunction,ComponentPad*%
%ADD13C,2.000000*%
%TD*%
%TA.AperFunction,SMDPad,CuDef*%
%ADD14RoundRect,0.225000X-0.250000X0.225000X-0.250000X-0.225000X0.250000X-0.225000X0.250000X0.225000X0*%
%TD*%
%TA.AperFunction,SMDPad,CuDef*%
%ADD15RoundRect,0.200000X-0.200000X-0.275000X0.200000X-0.275000X0.200000X0.275000X-0.200000X0.275000X0*%
%TD*%
%TA.AperFunction,SMDPad,CuDef*%
%ADD16RoundRect,0.075000X-0.075000X0.437500X-0.075000X-0.437500X0.075000X-0.437500X0.075000X0.437500X0*%
%TD*%
%TA.AperFunction,SMDPad,CuDef*%
%ADD17RoundRect,0.075000X-0.437500X0.075000X-0.437500X-0.075000X0.437500X-0.075000X0.437500X0.075000X0*%
%TD*%
%TA.AperFunction,HeatsinkPad*%
%ADD18R,4.250000X4.250000*%
%TD*%
%TA.AperFunction,ViaPad*%
%ADD19C,0.600000*%
%TD*%
%TA.AperFunction,Conductor*%
%ADD20C,0.200000*%
%TD*%
G04 APERTURE END LIST*
D10*
%TO.P,REF\u002A\u002A,1*%
%TO.N,GND*%
X103904500Y-62500000D03*
%TO.P,REF\u002A\u002A,2*%
%TO.N,3.3V*%
X103904500Y-63750000D03*
%TO.P,REF\u002A\u002A,3*%
%TO.N,SCK (SCL)*%
X103904500Y-65000000D03*
%TO.P,REF\u002A\u002A,4*%
%TO.N,SDA*%
X103904500Y-66250000D03*
%TO.P,REF\u002A\u002A,5*%
%TO.N,N/C*%
X103904500Y-67500000D03*
D11*
%TO.P,REF\u002A\u002A,6*%
X101004501Y-70050000D03*
%TO.P,REF\u002A\u002A,7*%
X101004501Y-59950000D03*
%TD*%
D12*
%TO.P,C2,1*%
%TO.N,GND*%
X107000000Y-61500000D03*
%TO.P,C2,2*%
%TO.N,3.3V*%
X107000000Y-63400000D03*
%TD*%
D13*
%TO.P,S4,1,COM*%
%TO.N,Net-(S4-COM)*%
X137750000Y-53750000D03*
X144250000Y-53750000D03*
%TO.P,S4,2,NO*%
%TO.N,GND*%
X137750000Y-58250000D03*
X144250000Y-58250000D03*
%TD*%
%TO.P,S2,1,COM*%
%TO.N,Net-(S2-COM)*%
X137750000Y-65250000D03*
X144250000Y-65250000D03*
%TO.P,S2,2,NO*%
%TO.N,GND*%
X137750000Y-69750000D03*
X144250000Y-69750000D03*
%TD*%
D14*
%TO.P,C1,1*%
%TO.N,GND*%
X113000000Y-58700000D03*
%TO.P,C1,2*%
%TO.N,3.3V*%
X113000000Y-60250000D03*
%TD*%
D15*
%TO.P,R1,1*%
%TO.N,3.3V*%
X107100000Y-67000000D03*
%TO.P,R1,2*%
%TO.N,Net-(U1-~{RESET})*%
X108750000Y-67000000D03*
%TD*%
D13*
%TO.P,S1,1,COM*%
%TO.N,Net-(S1-COM)*%
X124250000Y-65250000D03*
X130750000Y-65250000D03*
%TO.P,S1,2,NO*%
%TO.N,GND*%
X124250000Y-69750000D03*
X130750000Y-69750000D03*
%TD*%
%TO.P,S3,1,COM*%
%TO.N,Net-(S3-COM)*%
X124250000Y-53750000D03*
X130750000Y-53750000D03*
%TO.P,S3,2,NO*%
%TO.N,GND*%
X124250000Y-58250000D03*
X130750000Y-58250000D03*
%TD*%
D16*
%TO.P,U1,1,GPB4*%
%TO.N,unconnected-(U1-GPB4-Pad1)*%
X115530000Y-62162500D03*
%TO.P,U1,2,GPB5*%
%TO.N,unconnected-(U1-GPB5-Pad2)*%
X114880000Y-62162500D03*
%TO.P,U1,3,GPB6*%
%TO.N,unconnected-(U1-GPB6-Pad3)*%
X114230000Y-62162500D03*
%TO.P,U1,4,GPB7*%
%TO.N,unconnected-(U1-GPB7-Pad4)*%
X113580000Y-62162500D03*
%TO.P,U1,5,VDD*%
%TO.N,3.3V*%
X112930000Y-62162500D03*
%TO.P,U1,6,VSS*%
%TO.N,GND*%
X112280000Y-62162500D03*
%TO.P,U1,7,NC*%
%TO.N,unconnected-(U1-NC-Pad7)*%
X111630000Y-62162500D03*
D17*
%TO.P,U1,8,SCK*%
%TO.N,SCK (SCL)*%
X110742500Y-63050000D03*
%TO.P,U1,9,SDA*%
%TO.N,SDA*%
X110742500Y-63700000D03*
%TO.P,U1,10,NC*%
%TO.N,unconnected-(U1-NC-Pad10)*%
X110742500Y-64350000D03*
%TO.P,U1,11,A0*%
%TO.N,GND*%
X110742500Y-65000000D03*
%TO.P,U1,12,A1*%
X110742500Y-65650000D03*
%TO.P,U1,13,A2*%
X110742500Y-66300000D03*
%TO.P,U1,14,~{RESET}*%
%TO.N,Net-(U1-~{RESET})*%
X110742500Y-66950000D03*
D16*
%TO.P,U1,15,INTB*%
%TO.N,unconnected-(U1-INTB-Pad15)*%
X111630000Y-67837500D03*
%TO.P,U1,16,INTA*%
%TO.N,INT*%
X112280000Y-67837500D03*
%TO.P,U1,17,GPA0*%
%TO.N,unconnected-(U1-GPA0-Pad17)*%
X112930000Y-67837500D03*
%TO.P,U1,18,GPA1*%
%TO.N,unconnected-(U1-GPA1-Pad18)*%
X113580000Y-67837500D03*
%TO.P,U1,19,GPA2*%
%TO.N,unconnected-(U1-GPA2-Pad19)*%
X114230000Y-67837500D03*
%TO.P,U1,20,GPA3*%
%TO.N,unconnected-(U1-GPA3-Pad20)*%
X114880000Y-67837500D03*
%TO.P,U1,21,GPA4*%
%TO.N,unconnected-(U1-GPA4-Pad21)*%
X115530000Y-67837500D03*
D17*
%TO.P,U1,22,GPA5*%
%TO.N,unconnected-(U1-GPA5-Pad22)*%
X116417500Y-66950000D03*
%TO.P,U1,23,GPA6*%
%TO.N,unconnected-(U1-GPA6-Pad23)*%
X116417500Y-66300000D03*
%TO.P,U1,24,GPA7*%
%TO.N,unconnected-(U1-GPA7-Pad24)*%
X116417500Y-65650000D03*
%TO.P,U1,25,GPB0*%
%TO.N,Net-(S1-COM)*%
X116417500Y-65000000D03*
%TO.P,U1,26,GPB1*%
%TO.N,Net-(S2-COM)*%
X116417500Y-64350000D03*
%TO.P,U1,27,GPB2*%
%TO.N,Net-(S4-COM)*%
X116417500Y-63700000D03*
%TO.P,U1,28,GPB3*%
%TO.N,Net-(S3-COM)*%
X116417500Y-63050000D03*
D18*
%TO.P,U1,29,EP*%
%TO.N,GND*%
X113580000Y-65000000D03*
%TD*%
D19*
%TO.N,3.3V*%
X106000000Y-67000000D03*
X101500000Y-64500000D03*
%TD*%
D20*
%TO.N,3.3V*%
X103904500Y-63750000D02*
X106650000Y-63750000D01*
X101500000Y-64500000D02*
X102250000Y-63750000D01*
X113000000Y-60250000D02*
X110150000Y-60250000D01*
X102250000Y-63750000D02*
X103904500Y-63750000D01*
X113000000Y-60250000D02*
X113000000Y-62092500D01*
X106650000Y-63750000D02*
X107000000Y-63400000D01*
X110150000Y-60250000D02*
X107000000Y-63400000D01*
X113000000Y-62092500D02*
X112930000Y-62162500D01*
X107100000Y-67000000D02*
X106000000Y-67000000D01*
%TO.N,GND*%
X112532500Y-67000000D02*
X112582500Y-66950000D01*
%TO.N,Net-(U1-~{RESET})*%
X110692500Y-67000000D02*
X110742500Y-66950000D01*
X108750000Y-67000000D02*
X110692500Y-67000000D01*
%TO.N,Net-(S2-COM)*%
X117269999Y-64350000D02*
X116757500Y-64350000D01*
X137750000Y-65250000D02*
X134949000Y-62449000D01*
X119170999Y-62449000D02*
X117269999Y-64350000D01*
X134949000Y-62449000D02*
X119170999Y-62449000D01*
%TO.N,Net-(S4-COM)*%
X119469999Y-61500000D02*
X117269999Y-63700000D01*
X137750000Y-53750000D02*
X137460108Y-53750000D01*
X130000000Y-61500000D02*
X119469999Y-61500000D01*
X117269999Y-63700000D02*
X116757500Y-63700000D01*
X137750000Y-53750000D02*
X130000000Y-61500000D01*
%TO.N,Net-(S1-COM)*%
X124250000Y-65250000D02*
X124000000Y-65000000D01*
X124000000Y-65000000D02*
X116757500Y-65000000D01*
%TO.N,Net-(S3-COM)*%
X116417500Y-63050000D02*
X124250000Y-55217500D01*
X124250000Y-55217500D02*
X124250000Y-53750000D01*
%TO.N,SCK (SCL)*%
X110742500Y-63050000D02*
X109950000Y-63050000D01*
X109950000Y-63050000D02*
X108000000Y-65000000D01*
X103904500Y-65000000D02*
X108000000Y-65000000D01*
%TO.N,SDA*%
X110230001Y-63700000D02*
X110742500Y-63700000D01*
X103904500Y-66250000D02*
X104447100Y-65707400D01*
X104447100Y-65707400D02*
X108222601Y-65707400D01*
X108222601Y-65707400D02*
X110230001Y-63700000D01*
%TD*%
%TA.AperFunction,Conductor*%
%TO.N,GND*%
G36*
X112368719Y-62913068D02*
G01*
X112378368Y-62924203D01*
X112444549Y-63010451D01*
X112564767Y-63102698D01*
X112704764Y-63160687D01*
X112817280Y-63175500D01*
X112817287Y-63175500D01*
X113042713Y-63175500D01*
X113042720Y-63175500D01*
X113155236Y-63160687D01*
X113207550Y-63139017D01*
X113277015Y-63131549D01*
X113302443Y-63139014D01*
X113354764Y-63160687D01*
X113467280Y-63175500D01*
X113467287Y-63175500D01*
X113692713Y-63175500D01*
X113692720Y-63175500D01*
X113805236Y-63160687D01*
X113857550Y-63139017D01*
X113927015Y-63131549D01*
X113952443Y-63139014D01*
X114004764Y-63160687D01*
X114117280Y-63175500D01*
X114117287Y-63175500D01*
X114342713Y-63175500D01*
X114342720Y-63175500D01*
X114455236Y-63160687D01*
X114507550Y-63139017D01*
X114577015Y-63131549D01*
X114602443Y-63139014D01*
X114654764Y-63160687D01*
X114767280Y-63175500D01*
X114767287Y-63175500D01*
X114992713Y-63175500D01*
X114992720Y-63175500D01*
X115105236Y-63160687D01*
X115157550Y-63139017D01*
X115184318Y-63136139D01*
X115210462Y-63129699D01*
X115221479Y-63132144D01*
X115227015Y-63131549D01*
X115245142Y-63136256D01*
X115248825Y-63137516D01*
X115304764Y-63160687D01*
X115323916Y-63163208D01*
X115335609Y-63167209D01*
X115354448Y-63180524D01*
X115375545Y-63189856D01*
X115382439Y-63200308D01*
X115392666Y-63207536D01*
X115401316Y-63228924D01*
X115414018Y-63248179D01*
X115418406Y-63268346D01*
X115419313Y-63275235D01*
X115440981Y-63327549D01*
X115448448Y-63397019D01*
X115440981Y-63422451D01*
X115419313Y-63474763D01*
X115419313Y-63474764D01*
X115404500Y-63587272D01*
X115404500Y-63812727D01*
X115419313Y-63925235D01*
X115419313Y-63925236D01*
X115440981Y-63977549D01*
X115448448Y-64047019D01*
X115440981Y-64072451D01*
X115419313Y-64124763D01*
X115419313Y-64124764D01*
X115404500Y-64237272D01*
X115404500Y-64462727D01*
X115419313Y-64575235D01*
X115419313Y-64575236D01*
X115440981Y-64627549D01*
X115448448Y-64697019D01*
X115440981Y-64722451D01*
X115419313Y-64774763D01*
X115419313Y-64774764D01*
X115404500Y-64887272D01*
X115404500Y-65112727D01*
X115419313Y-65225235D01*
X115419313Y-65225236D01*
X115440981Y-65277549D01*
X115448448Y-65347019D01*
X115440981Y-65372451D01*
X115419313Y-65424763D01*
X115419313Y-65424764D01*
X115404500Y-65537272D01*
X115404500Y-65762727D01*
X115419313Y-65875235D01*
X115419313Y-65875236D01*
X115440981Y-65927549D01*
X115448448Y-65997019D01*
X115440981Y-66022451D01*
X115419313Y-66074763D01*
X115419313Y-66074764D01*
X115404500Y-66187272D01*
X115404500Y-66412727D01*
X115419313Y-66525235D01*
X115419313Y-66525236D01*
X115440981Y-66577549D01*
X115443858Y-66604315D01*
X115450299Y-66630461D01*
X115447853Y-66641483D01*
X115448448Y-66647019D01*
X115443742Y-66665140D01*
X115442471Y-66668854D01*
X115419313Y-66724764D01*
X115416792Y-66743908D01*
X115412790Y-66755607D01*
X115399474Y-66774446D01*
X115390139Y-66795550D01*
X115379688Y-66802442D01*
X115372464Y-66812665D01*
X115351073Y-66821316D01*
X115331814Y-66834020D01*
X115311655Y-66838405D01*
X115304764Y-66839313D01*
X115252451Y-66860981D01*
X115182981Y-66868448D01*
X115157549Y-66860981D01*
X115130646Y-66849838D01*
X115105236Y-66839313D01*
X115089733Y-66837272D01*
X114992727Y-66824500D01*
X114992720Y-66824500D01*
X114767280Y-66824500D01*
X114767272Y-66824500D01*
X114654764Y-66839313D01*
X114654763Y-66839313D01*
X114602451Y-66860981D01*
X114532981Y-66868448D01*
X114507549Y-66860981D01*
X114480646Y-66849838D01*
X114455236Y-66839313D01*
X114439733Y-66837272D01*
X114342727Y-66824500D01*
X114342720Y-66824500D01*
X114117280Y-66824500D01*
X114117272Y-66824500D01*
X114004764Y-66839313D01*
X114004763Y-66839313D01*
X113952451Y-66860981D01*
X113882981Y-66868448D01*
X113857549Y-66860981D01*
X113830646Y-66849838D01*
X113805236Y-66839313D01*
X113789733Y-66837272D01*
X113692727Y-66824500D01*
X113692720Y-66824500D01*
X113467280Y-66824500D01*
X113467272Y-66824500D01*
X113354764Y-66839313D01*
X113354763Y-66839313D01*
X113302451Y-66860981D01*
X113232981Y-66868448D01*
X113207549Y-66860981D01*
X113180646Y-66849838D01*
X113155236Y-66839313D01*
X113139733Y-66837272D01*
X113042727Y-66824500D01*
X113042720Y-66824500D01*
X112817280Y-66824500D01*
X112817272Y-66824500D01*
X112704764Y-66839313D01*
X112704763Y-66839313D01*
X112652451Y-66860981D01*
X112582981Y-66868448D01*
X112557549Y-66860981D01*
X112530646Y-66849838D01*
X112505236Y-66839313D01*
X112489733Y-66837272D01*
X112392727Y-66824500D01*
X112392720Y-66824500D01*
X112167280Y-66824500D01*
X112167272Y-66824500D01*
X112054764Y-66839313D01*
X112054763Y-66839313D01*
X112002451Y-66860981D01*
X111975682Y-66863858D01*
X111949540Y-66870299D01*
X111938517Y-66867852D01*
X111932981Y-66868448D01*
X111914860Y-66863742D01*
X111911145Y-66862471D01*
X111855236Y-66839313D01*
X111836089Y-66836792D01*
X111824392Y-66832790D01*
X111805550Y-66819473D01*
X111784450Y-66810139D01*
X111777557Y-66799689D01*
X111767334Y-66792464D01*
X111758682Y-66771074D01*
X111745979Y-66751815D01*
X111741594Y-66731660D01*
X111740687Y-66724764D01*
X111682698Y-66584767D01*
X111590451Y-66464549D01*
X111470233Y-66372302D01*
X111470229Y-66372300D01*
X111406801Y-66346027D01*
X111330236Y-66314313D01*
X111316171Y-66312461D01*
X111217727Y-66299500D01*
X111217720Y-66299500D01*
X110267280Y-66299500D01*
X110267272Y-66299500D01*
X110154764Y-66314313D01*
X110154763Y-66314313D01*
X110014769Y-66372300D01*
X110014765Y-66372303D01*
X110012718Y-66373874D01*
X110010679Y-66374662D01*
X110007732Y-66376364D01*
X110007466Y-66375904D01*
X109947550Y-66399070D01*
X109937230Y-66399500D01*
X109641715Y-66399500D01*
X109574676Y-66379815D01*
X109535598Y-66339650D01*
X109505472Y-66289815D01*
X109505470Y-66289813D01*
X109505469Y-66289811D01*
X109385188Y-66169530D01*
X109239606Y-66081522D01*
X109077193Y-66030913D01*
X109039387Y-66027478D01*
X108974404Y-66001806D01*
X108933616Y-65945078D01*
X108929973Y-65875303D01*
X108962927Y-65816307D01*
X109845514Y-64933720D01*
X109906835Y-64900237D01*
X109976526Y-64905221D01*
X110008679Y-64923026D01*
X110014767Y-64927698D01*
X110154764Y-64985687D01*
X110267280Y-65000500D01*
X110267287Y-65000500D01*
X111217713Y-65000500D01*
X111217720Y-65000500D01*
X111330236Y-64985687D01*
X111470233Y-64927698D01*
X111590451Y-64835451D01*
X111682698Y-64715233D01*
X111740687Y-64575236D01*
X111755500Y-64462720D01*
X111755500Y-64237280D01*
X111740687Y-64124764D01*
X111719017Y-64072449D01*
X111711549Y-64002985D01*
X111719014Y-63977556D01*
X111740687Y-63925236D01*
X111755500Y-63812720D01*
X111755500Y-63587280D01*
X111740687Y-63474764D01*
X111719017Y-63422449D01*
X111716139Y-63395681D01*
X111709699Y-63369538D01*
X111712144Y-63358520D01*
X111711549Y-63352985D01*
X111716256Y-63334859D01*
X111717518Y-63331169D01*
X111740687Y-63275236D01*
X111743208Y-63256083D01*
X111747209Y-63244391D01*
X111760522Y-63225553D01*
X111769855Y-63204455D01*
X111780308Y-63197559D01*
X111787536Y-63187333D01*
X111808922Y-63178683D01*
X111828178Y-63165981D01*
X111848339Y-63161594D01*
X111855236Y-63160687D01*
X111995233Y-63102698D01*
X112115451Y-63010451D01*
X112181625Y-62924210D01*
X112238052Y-62883010D01*
X112307799Y-62878855D01*
X112368719Y-62913068D01*
G37*
%TD.AperFunction*%
%TA.AperFunction,Conductor*%
G36*
X150942539Y-48520185D02*
G01*
X150988294Y-48572989D01*
X150999500Y-48624500D01*
X150999500Y-74375500D01*
X150979815Y-74442539D01*
X150927011Y-74488294D01*
X150875500Y-74499500D01*
X97124500Y-74499500D01*
X97057461Y-74479815D01*
X97011706Y-74427011D01*
X97000500Y-74375500D01*
X97000500Y-68004701D01*
X98502799Y-68004701D01*
X98502799Y-68995301D01*
X98830601Y-68995301D01*
X98897640Y-69014986D01*
X98943395Y-69067790D01*
X98954601Y-69119301D01*
X98954601Y-71202770D01*
X98954602Y-71202776D01*
X98961009Y-71262383D01*
X99011303Y-71397228D01*
X99011307Y-71397235D01*
X99097553Y-71512444D01*
X99097556Y-71512447D01*
X99212765Y-71598693D01*
X99212772Y-71598697D01*
X99347618Y-71648991D01*
X99347617Y-71648991D01*
X99354545Y-71649735D01*
X99407228Y-71655400D01*
X102601773Y-71655399D01*
X102661384Y-71648991D01*
X102796232Y-71598696D01*
X102911447Y-71512446D01*
X102997697Y-71397231D01*
X103047992Y-71262383D01*
X103054401Y-71202773D01*
X103054400Y-69119300D01*
X103074085Y-69052262D01*
X103126888Y-69006507D01*
X103178400Y-68995301D01*
X103506200Y-68995301D01*
X103506200Y-68530899D01*
X103525885Y-68463860D01*
X103578689Y-68418105D01*
X103630200Y-68406899D01*
X104803271Y-68406899D01*
X104803272Y-68406899D01*
X104862883Y-68400491D01*
X104997731Y-68350196D01*
X105112946Y-68263946D01*
X105199196Y-68148731D01*
X105249491Y-68013883D01*
X105255900Y-67954273D01*
X105255899Y-67687337D01*
X105275583Y-67620301D01*
X105328387Y-67574546D01*
X105397546Y-67564602D01*
X105461101Y-67593627D01*
X105467580Y-67599659D01*
X105489707Y-67621786D01*
X105489711Y-67621789D01*
X105620814Y-67709390D01*
X105620827Y-67709397D01*
X105766498Y-67769735D01*
X105766503Y-67769737D01*
X105921153Y-67800499D01*
X105921156Y-67800500D01*
X105921158Y-67800500D01*
X106078844Y-67800500D01*
X106078845Y-67800499D01*
X106233497Y-67769737D01*
X106277571Y-67751480D01*
X106347037Y-67744012D01*
X106409517Y-67775286D01*
X106412703Y-67778361D01*
X106464811Y-67830469D01*
X106464813Y-67830470D01*
X106464815Y-67830472D01*
X106610394Y-67918478D01*
X106772804Y-67969086D01*
X106843384Y-67975500D01*
X106843387Y-67975500D01*
X107356613Y-67975500D01*
X107356616Y-67975500D01*
X107427196Y-67969086D01*
X107589606Y-67918478D01*
X107735185Y-67830472D01*
X107765158Y-67800499D01*
X107837319Y-67728339D01*
X107898642Y-67694854D01*
X107968334Y-67699838D01*
X108012681Y-67728339D01*
X108114811Y-67830469D01*
X108114813Y-67830470D01*
X108114815Y-67830472D01*
X108260394Y-67918478D01*
X108422804Y-67969086D01*
X108493384Y-67975500D01*
X108493387Y-67975500D01*
X109006613Y-67975500D01*
X109006616Y-67975500D01*
X109077196Y-67969086D01*
X109239606Y-67918478D01*
X109385185Y-67830472D01*
X109505472Y-67710185D01*
X109535598Y-67660349D01*
X109587126Y-67613162D01*
X109641715Y-67600500D01*
X110267280Y-67600500D01*
X110613439Y-67600500D01*
X110613443Y-67600501D01*
X110771557Y-67600501D01*
X110771561Y-67600500D01*
X110855500Y-67600500D01*
X110922539Y-67620185D01*
X110968294Y-67672989D01*
X110979500Y-67724500D01*
X110979500Y-68312727D01*
X110987319Y-68372111D01*
X110994313Y-68425236D01*
X111052302Y-68565233D01*
X111144549Y-68685451D01*
X111264767Y-68777698D01*
X111404764Y-68835687D01*
X111517280Y-68850500D01*
X111517287Y-68850500D01*
X111742713Y-68850500D01*
X111742720Y-68850500D01*
X111855236Y-68835687D01*
X111907550Y-68814017D01*
X111977015Y-68806549D01*
X112002443Y-68814014D01*
X112054764Y-68835687D01*
X112167280Y-68850500D01*
X112167287Y-68850500D01*
X112392713Y-68850500D01*
X112392720Y-68850500D01*
X112505236Y-68835687D01*
X112557550Y-68814017D01*
X112627015Y-68806549D01*
X112652443Y-68814014D01*
X112704764Y-68835687D01*
X112817280Y-68850500D01*
X112817287Y-68850500D01*
X113042713Y-68850500D01*
X113042720Y-68850500D01*
X113155236Y-68835687D01*
X113207550Y-68814017D01*
X113277015Y-68806549D01*
X113302443Y-68814014D01*
X113354764Y-68835687D01*
X113467280Y-68850500D01*
X113467287Y-68850500D01*
X113692713Y-68850500D01*
X113692720Y-68850500D01*
X113805236Y-68835687D01*
X113857550Y-68814017D01*
X113927015Y-68806549D01*
X113952443Y-68814014D01*
X114004764Y-68835687D01*
X114117280Y-68850500D01*
X114117287Y-68850500D01*
X114342713Y-68850500D01*
X114342720Y-68850500D01*
X114455236Y-68835687D01*
X114507550Y-68814017D01*
X114577015Y-68806549D01*
X114602443Y-68814014D01*
X114654764Y-68835687D01*
X114767280Y-68850500D01*
X114767287Y-68850500D01*
X114992713Y-68850500D01*
X114992720Y-68850500D01*
X115105236Y-68835687D01*
X115157550Y-68814017D01*
X115227015Y-68806549D01*
X115252443Y-68814014D01*
X115304764Y-68835687D01*
X115417280Y-68850500D01*
X115417287Y-68850500D01*
X115642713Y-68850500D01*
X115642720Y-68850500D01*
X115755236Y-68835687D01*
X115895233Y-68777698D01*
X116015451Y-68685451D01*
X116107698Y-68565233D01*
X116165687Y-68425236D01*
X116180500Y-68312720D01*
X116180500Y-67724500D01*
X116200185Y-67657461D01*
X116252989Y-67611706D01*
X116304500Y-67600500D01*
X116892713Y-67600500D01*
X116892720Y-67600500D01*
X117005236Y-67585687D01*
X117145233Y-67527698D01*
X117265451Y-67435451D01*
X117357698Y-67315233D01*
X117415687Y-67175236D01*
X117430500Y-67062720D01*
X117430500Y-66837280D01*
X117415687Y-66724764D01*
X117394017Y-66672449D01*
X117386549Y-66602985D01*
X117394014Y-66577556D01*
X117415687Y-66525236D01*
X117430500Y-66412720D01*
X117430500Y-66187280D01*
X117415687Y-66074764D01*
X117394017Y-66022449D01*
X117386549Y-65952985D01*
X117394014Y-65927556D01*
X117415687Y-65875236D01*
X117430500Y-65762720D01*
X117430500Y-65724500D01*
X117450185Y-65657461D01*
X117502989Y-65611706D01*
X117554500Y-65600500D01*
X122696074Y-65600500D01*
X122763113Y-65620185D01*
X122808868Y-65672989D01*
X122814003Y-65686179D01*
X122859432Y-65825992D01*
X122966657Y-66036433D01*
X123105483Y-66227510D01*
X123272490Y-66394517D01*
X123463567Y-66533343D01*
X123550320Y-66577546D01*
X123674003Y-66640566D01*
X123674005Y-66640566D01*
X123674008Y-66640568D01*
X123749633Y-66665140D01*
X123898631Y-66713553D01*
X124131903Y-66750500D01*
X124131908Y-66750500D01*
X124368097Y-66750500D01*
X124601368Y-66713553D01*
X124825992Y-66640568D01*
X125036433Y-66533343D01*
X125227510Y-66394517D01*
X125394517Y-66227510D01*
X125533343Y-66036433D01*
X125640568Y-65825992D01*
X125713553Y-65601368D01*
X125716673Y-65581667D01*
X125750500Y-65368097D01*
X125750500Y-65131902D01*
X129249500Y-65131902D01*
X129249500Y-65368097D01*
X129286446Y-65601368D01*
X129359433Y-65825996D01*
X129459533Y-66022451D01*
X129466657Y-66036433D01*
X129605483Y-66227510D01*
X129772490Y-66394517D01*
X129963567Y-66533343D01*
X130050320Y-66577546D01*
X130174003Y-66640566D01*
X130174005Y-66640566D01*
X130174008Y-66640568D01*
X130249633Y-66665140D01*
X130398631Y-66713553D01*
X130631903Y-66750500D01*
X130631908Y-66750500D01*
X130868097Y-66750500D01*
X131101368Y-66713553D01*
X131325992Y-66640568D01*
X131536433Y-66533343D01*
X131727510Y-66394517D01*
X131894517Y-66227510D01*
X132033343Y-66036433D01*
X132140568Y-65825992D01*
X132213553Y-65601368D01*
X132216673Y-65581667D01*
X132250500Y-65368097D01*
X132250500Y-65131902D01*
X132213553Y-64898631D01*
X132172548Y-64772433D01*
X132140568Y-64674008D01*
X132140566Y-64674005D01*
X132140566Y-64674003D01*
X132061014Y-64517875D01*
X132033343Y-64463567D01*
X131894517Y-64272490D01*
X131727510Y-64105483D01*
X131536433Y-63966657D01*
X131455140Y-63925236D01*
X131325996Y-63859433D01*
X131101368Y-63786446D01*
X130868097Y-63749500D01*
X130868092Y-63749500D01*
X130631908Y-63749500D01*
X130631903Y-63749500D01*
X130398631Y-63786446D01*
X130174003Y-63859433D01*
X129963566Y-63966657D01*
X129854550Y-64045862D01*
X129772490Y-64105483D01*
X129772488Y-64105485D01*
X129772487Y-64105485D01*
X129605485Y-64272487D01*
X129605485Y-64272488D01*
X129605483Y-64272490D01*
X129605481Y-64272493D01*
X129466657Y-64463566D01*
X129359433Y-64674003D01*
X129286446Y-64898631D01*
X129249500Y-65131902D01*
X125750500Y-65131902D01*
X125713553Y-64898631D01*
X125672548Y-64772433D01*
X125640568Y-64674008D01*
X125640566Y-64674005D01*
X125640566Y-64674003D01*
X125561014Y-64517875D01*
X125533343Y-64463567D01*
X125394517Y-64272490D01*
X125227510Y-64105483D01*
X125036433Y-63966657D01*
X124955140Y-63925236D01*
X124825996Y-63859433D01*
X124601368Y-63786446D01*
X124368097Y-63749500D01*
X124368092Y-63749500D01*
X124131908Y-63749500D01*
X124131903Y-63749500D01*
X123898631Y-63786446D01*
X123674003Y-63859433D01*
X123463566Y-63966657D01*
X123354550Y-64045862D01*
X123272490Y-64105483D01*
X123272488Y-64105485D01*
X123272487Y-64105485D01*
X123105485Y-64272487D01*
X123105480Y-64272493D01*
X123050342Y-64348385D01*
X122995012Y-64391051D01*
X122950024Y-64399500D01*
X118369096Y-64399500D01*
X118302057Y-64379815D01*
X118256302Y-64327011D01*
X118246358Y-64257853D01*
X118275383Y-64194297D01*
X118281415Y-64187819D01*
X119383415Y-63085819D01*
X119444738Y-63052334D01*
X119471096Y-63049500D01*
X134648903Y-63049500D01*
X134715942Y-63069185D01*
X134736584Y-63085819D01*
X136297200Y-64646435D01*
X136330685Y-64707758D01*
X136327450Y-64772433D01*
X136286447Y-64898628D01*
X136249500Y-65131902D01*
X136249500Y-65368097D01*
X136286446Y-65601368D01*
X136359433Y-65825996D01*
X136459533Y-66022451D01*
X136466657Y-66036433D01*
X136605483Y-66227510D01*
X136772490Y-66394517D01*
X136963567Y-66533343D01*
X137050320Y-66577546D01*
X137174003Y-66640566D01*
X137174005Y-66640566D01*
X137174008Y-66640568D01*
X137249633Y-66665140D01*
X137398631Y-66713553D01*
X137631903Y-66750500D01*
X137631908Y-66750500D01*
X137868097Y-66750500D01*
X138101368Y-66713553D01*
X138325992Y-66640568D01*
X138536433Y-66533343D01*
X138727510Y-66394517D01*
X138894517Y-66227510D01*
X139033343Y-66036433D01*
X139140568Y-65825992D01*
X139213553Y-65601368D01*
X139216673Y-65581667D01*
X139250500Y-65368097D01*
X139250500Y-65131902D01*
X142749500Y-65131902D01*
X142749500Y-65368097D01*
X142786446Y-65601368D01*
X142859433Y-65825996D01*
X142959533Y-66022451D01*
X142966657Y-66036433D01*
X143105483Y-66227510D01*
X143272490Y-66394517D01*
X143463567Y-66533343D01*
X143550320Y-66577546D01*
X143674003Y-66640566D01*
X143674005Y-66640566D01*
X143674008Y-66640568D01*
X143749633Y-66665140D01*
X143898631Y-66713553D01*
X144131903Y-66750500D01*
X144131908Y-66750500D01*
X144368097Y-66750500D01*
X144601368Y-66713553D01*
X144825992Y-66640568D01*
X145036433Y-66533343D01*
X145227510Y-66394517D01*
X145394517Y-66227510D01*
X145533343Y-66036433D01*
X145640568Y-65825992D01*
X145713553Y-65601368D01*
X145716673Y-65581667D01*
X145750500Y-65368097D01*
X145750500Y-65131902D01*
X145713553Y-64898631D01*
X145672548Y-64772433D01*
X145640568Y-64674008D01*
X145640566Y-64674005D01*
X145640566Y-64674003D01*
X145561014Y-64517875D01*
X145533343Y-64463567D01*
X145394517Y-64272490D01*
X145227510Y-64105483D01*
X145036433Y-63966657D01*
X144955140Y-63925236D01*
X144825996Y-63859433D01*
X144601368Y-63786446D01*
X144368097Y-63749500D01*
X144368092Y-63749500D01*
X144131908Y-63749500D01*
X144131903Y-63749500D01*
X143898631Y-63786446D01*
X143674003Y-63859433D01*
X143463566Y-63966657D01*
X143354550Y-64045862D01*
X143272490Y-64105483D01*
X143272488Y-64105485D01*
X143272487Y-64105485D01*
X143105485Y-64272487D01*
X143105485Y-64272488D01*
X143105483Y-64272490D01*
X143105481Y-64272493D01*
X142966657Y-64463566D01*
X142859433Y-64674003D01*
X142786446Y-64898631D01*
X142749500Y-65131902D01*
X139250500Y-65131902D01*
X139213553Y-64898631D01*
X139172548Y-64772433D01*
X139140568Y-64674008D01*
X139140566Y-64674005D01*
X139140566Y-64674003D01*
X139061014Y-64517875D01*
X139033343Y-64463567D01*
X138894517Y-64272490D01*
X138727510Y-64105483D01*
X138536433Y-63966657D01*
X138455140Y-63925236D01*
X138325996Y-63859433D01*
X138101368Y-63786446D01*
X137868097Y-63749500D01*
X137868092Y-63749500D01*
X137631908Y-63749500D01*
X137631903Y-63749500D01*
X137398628Y-63786447D01*
X137272433Y-63827450D01*
X137202592Y-63829445D01*
X137146435Y-63797200D01*
X135436590Y-62087355D01*
X135436588Y-62087352D01*
X135317717Y-61968481D01*
X135317716Y-61968480D01*
X135230904Y-61918360D01*
X135230904Y-61918359D01*
X135230900Y-61918358D01*
X135180785Y-61889423D01*
X135028057Y-61848499D01*
X134869943Y-61848499D01*
X134862347Y-61848499D01*
X134862331Y-61848500D01*
X130800097Y-61848500D01*
X130733058Y-61828815D01*
X130687303Y-61776011D01*
X130677359Y-61706853D01*
X130706384Y-61643297D01*
X130712416Y-61636819D01*
X131825890Y-60523345D01*
X137146437Y-55202796D01*
X137207758Y-55169313D01*
X137272433Y-55172547D01*
X137398632Y-55213553D01*
X137486110Y-55227408D01*
X137631903Y-55250500D01*
X137631908Y-55250500D01*
X137868097Y-55250500D01*
X138101368Y-55213553D01*
X138134468Y-55202798D01*
X138325992Y-55140568D01*
X138536433Y-55033343D01*
X138727510Y-54894517D01*
X138894517Y-54727510D01*
X139033343Y-54536433D01*
X139140568Y-54325992D01*
X139213553Y-54101368D01*
X139250500Y-53868097D01*
X139250500Y-53631902D01*
X142749500Y-53631902D01*
X142749500Y-53868097D01*
X142786446Y-54101368D01*
X142859433Y-54325996D01*
X142966657Y-54536433D01*
X143105483Y-54727510D01*
X143272490Y-54894517D01*
X143463567Y-55033343D01*
X143504896Y-55054401D01*
X143674003Y-55140566D01*
X143674005Y-55140566D01*
X143674008Y-55140568D01*
X143762476Y-55169313D01*
X143898631Y-55213553D01*
X144131903Y-55250500D01*
X144131908Y-55250500D01*
X144368097Y-55250500D01*
X144601368Y-55213553D01*
X144634468Y-55202798D01*
X144825992Y-55140568D01*
X145036433Y-55033343D01*
X145227510Y-54894517D01*
X145394517Y-54727510D01*
X145533343Y-54536433D01*
X145640568Y-54325992D01*
X145713553Y-54101368D01*
X145750500Y-53868097D01*
X145750500Y-53631902D01*
X145713553Y-53398631D01*
X145640566Y-53174003D01*
X145533342Y-52963566D01*
X145394517Y-52772490D01*
X145227510Y-52605483D01*
X145036433Y-52466657D01*
X144825996Y-52359433D01*
X144601368Y-52286446D01*
X144368097Y-52249500D01*
X144368092Y-52249500D01*
X144131908Y-52249500D01*
X144131903Y-52249500D01*
X143898631Y-52286446D01*
X143674003Y-52359433D01*
X143463566Y-52466657D01*
X143354550Y-52545862D01*
X143272490Y-52605483D01*
X143272488Y-52605485D01*
X143272487Y-52605485D01*
X143105485Y-52772487D01*
X143105485Y-52772488D01*
X143105483Y-52772490D01*
X143045862Y-52854550D01*
X142966657Y-52963566D01*
X142859433Y-53174003D01*
X142786446Y-53398631D01*
X142749500Y-53631902D01*
X139250500Y-53631902D01*
X139213553Y-53398631D01*
X139140566Y-53174003D01*
X139033342Y-52963566D01*
X138894517Y-52772490D01*
X138727510Y-52605483D01*
X138536433Y-52466657D01*
X138325996Y-52359433D01*
X138101368Y-52286446D01*
X137868097Y-52249500D01*
X137868092Y-52249500D01*
X137631908Y-52249500D01*
X137631903Y-52249500D01*
X137398631Y-52286446D01*
X137174003Y-52359433D01*
X136963566Y-52466657D01*
X136854550Y-52545862D01*
X136772490Y-52605483D01*
X136772488Y-52605485D01*
X136772487Y-52605485D01*
X136605485Y-52772487D01*
X136605485Y-52772488D01*
X136605483Y-52772490D01*
X136545862Y-52854550D01*
X136466657Y-52963566D01*
X136359433Y-53174003D01*
X136286446Y-53398631D01*
X136249500Y-53631902D01*
X136249500Y-53868097D01*
X136286447Y-54101369D01*
X136286447Y-54101372D01*
X136327450Y-54227564D01*
X136329445Y-54297405D01*
X136297200Y-54353563D01*
X129787584Y-60863181D01*
X129726261Y-60896666D01*
X129699903Y-60899500D01*
X119716597Y-60899500D01*
X119649558Y-60879815D01*
X119603803Y-60827011D01*
X119593859Y-60757853D01*
X119622884Y-60694297D01*
X119628916Y-60687819D01*
X121972135Y-58344600D01*
X124730520Y-55586216D01*
X124809577Y-55449284D01*
X124850501Y-55296557D01*
X124850501Y-55204067D01*
X124870186Y-55137028D01*
X124918207Y-55093582D01*
X125036431Y-55033344D01*
X125036430Y-55033344D01*
X125036433Y-55033343D01*
X125227510Y-54894517D01*
X125394517Y-54727510D01*
X125533343Y-54536433D01*
X125640568Y-54325992D01*
X125713553Y-54101368D01*
X125750500Y-53868097D01*
X125750500Y-53631902D01*
X129249500Y-53631902D01*
X129249500Y-53868097D01*
X129286446Y-54101368D01*
X129359433Y-54325996D01*
X129466657Y-54536433D01*
X129605483Y-54727510D01*
X129772490Y-54894517D01*
X129963567Y-55033343D01*
X130004896Y-55054401D01*
X130174003Y-55140566D01*
X130174005Y-55140566D01*
X130174008Y-55140568D01*
X130262476Y-55169313D01*
X130398631Y-55213553D01*
X130631903Y-55250500D01*
X130631908Y-55250500D01*
X130868097Y-55250500D01*
X131101368Y-55213553D01*
X131134468Y-55202798D01*
X131325992Y-55140568D01*
X131536433Y-55033343D01*
X131727510Y-54894517D01*
X131894517Y-54727510D01*
X132033343Y-54536433D01*
X132140568Y-54325992D01*
X132213553Y-54101368D01*
X132250500Y-53868097D01*
X132250500Y-53631902D01*
X132213553Y-53398631D01*
X132140566Y-53174003D01*
X132033342Y-52963566D01*
X131894517Y-52772490D01*
X131727510Y-52605483D01*
X131536433Y-52466657D01*
X131325996Y-52359433D01*
X131101368Y-52286446D01*
X130868097Y-52249500D01*
X130868092Y-52249500D01*
X130631908Y-52249500D01*
X130631903Y-52249500D01*
X130398631Y-52286446D01*
X130174003Y-52359433D01*
X129963566Y-52466657D01*
X129854550Y-52545862D01*
X129772490Y-52605483D01*
X129772488Y-52605485D01*
X129772487Y-52605485D01*
X129605485Y-52772487D01*
X129605485Y-52772488D01*
X129605483Y-52772490D01*
X129545862Y-52854550D01*
X129466657Y-52963566D01*
X129359433Y-53174003D01*
X129286446Y-53398631D01*
X129249500Y-53631902D01*
X125750500Y-53631902D01*
X125713553Y-53398631D01*
X125640566Y-53174003D01*
X125533342Y-52963566D01*
X125394517Y-52772490D01*
X125227510Y-52605483D01*
X125036433Y-52466657D01*
X124825996Y-52359433D01*
X124601368Y-52286446D01*
X124368097Y-52249500D01*
X124368092Y-52249500D01*
X124131908Y-52249500D01*
X124131903Y-52249500D01*
X123898631Y-52286446D01*
X123674003Y-52359433D01*
X123463566Y-52466657D01*
X123354550Y-52545862D01*
X123272490Y-52605483D01*
X123272488Y-52605485D01*
X123272487Y-52605485D01*
X123105485Y-52772487D01*
X123105485Y-52772488D01*
X123105483Y-52772490D01*
X123045862Y-52854550D01*
X122966657Y-52963566D01*
X122859433Y-53174003D01*
X122786446Y-53398631D01*
X122749500Y-53631902D01*
X122749500Y-53868097D01*
X122786446Y-54101368D01*
X122859433Y-54325996D01*
X122966657Y-54536433D01*
X123105483Y-54727510D01*
X123272490Y-54894517D01*
X123272493Y-54894519D01*
X123416396Y-54999071D01*
X123459062Y-55054401D01*
X123465041Y-55124014D01*
X123432435Y-55185809D01*
X123431192Y-55187070D01*
X116392181Y-62226083D01*
X116330858Y-62259568D01*
X116261166Y-62254584D01*
X116205233Y-62212712D01*
X116180816Y-62147248D01*
X116180500Y-62138402D01*
X116180500Y-61687286D01*
X116180499Y-61687272D01*
X116179462Y-61679399D01*
X116165687Y-61574764D01*
X116107698Y-61434767D01*
X116015451Y-61314549D01*
X115895233Y-61222302D01*
X115895229Y-61222300D01*
X115825574Y-61193448D01*
X115755236Y-61164313D01*
X115741171Y-61162461D01*
X115642727Y-61149500D01*
X115642720Y-61149500D01*
X115417280Y-61149500D01*
X115417272Y-61149500D01*
X115304764Y-61164313D01*
X115304763Y-61164313D01*
X115252451Y-61185981D01*
X115182981Y-61193448D01*
X115157549Y-61185981D01*
X115122157Y-61171322D01*
X115105236Y-61164313D01*
X115091171Y-61162461D01*
X114992727Y-61149500D01*
X114992720Y-61149500D01*
X114767280Y-61149500D01*
X114767272Y-61149500D01*
X114654764Y-61164313D01*
X114654763Y-61164313D01*
X114602451Y-61185981D01*
X114532981Y-61193448D01*
X114507549Y-61185981D01*
X114472157Y-61171322D01*
X114455236Y-61164313D01*
X114441171Y-61162461D01*
X114342727Y-61149500D01*
X114342720Y-61149500D01*
X114117280Y-61149500D01*
X114117272Y-61149500D01*
X114004764Y-61164313D01*
X114004763Y-61164313D01*
X113952451Y-61185981D01*
X113921949Y-61189259D01*
X113891746Y-61194709D01*
X113885672Y-61193158D01*
X113882981Y-61193448D01*
X113857548Y-61185980D01*
X113822160Y-61171322D01*
X113767756Y-61127481D01*
X113745691Y-61061187D01*
X113762970Y-60993488D01*
X113781928Y-60969083D01*
X113822968Y-60928044D01*
X113912003Y-60783697D01*
X113965349Y-60622708D01*
X113975500Y-60523345D01*
X113975499Y-59976656D01*
X113965349Y-59877292D01*
X113912003Y-59716303D01*
X113911999Y-59716297D01*
X113911998Y-59716294D01*
X113822970Y-59571959D01*
X113822967Y-59571955D01*
X113703044Y-59452032D01*
X113703040Y-59452029D01*
X113558705Y-59363001D01*
X113558699Y-59362998D01*
X113558697Y-59362997D01*
X113558694Y-59362996D01*
X113397709Y-59309651D01*
X113298346Y-59299500D01*
X112701662Y-59299500D01*
X112701644Y-59299501D01*
X112602292Y-59309650D01*
X112602289Y-59309651D01*
X112441305Y-59362996D01*
X112441294Y-59363001D01*
X112296959Y-59452029D01*
X112296955Y-59452032D01*
X112177031Y-59571956D01*
X112165535Y-59590596D01*
X112113588Y-59637321D01*
X112059996Y-59649500D01*
X110236670Y-59649500D01*
X110236654Y-59649499D01*
X110229058Y-59649499D01*
X110070943Y-59649499D01*
X109994579Y-59669961D01*
X109918214Y-59690423D01*
X109918209Y-59690426D01*
X109781290Y-59769475D01*
X109781282Y-59769481D01*
X107187582Y-62363181D01*
X107126259Y-62396666D01*
X107099901Y-62399500D01*
X106474998Y-62399500D01*
X106474980Y-62399501D01*
X106372203Y-62410000D01*
X106372200Y-62410001D01*
X106205668Y-62465185D01*
X106205663Y-62465187D01*
X106056342Y-62557289D01*
X105932289Y-62681342D01*
X105840187Y-62830663D01*
X105840185Y-62830668D01*
X105817276Y-62899804D01*
X105788696Y-62986054D01*
X105785001Y-62997204D01*
X105785000Y-62997205D01*
X105780823Y-63038102D01*
X105754427Y-63102793D01*
X105697247Y-63142945D01*
X105657465Y-63149500D01*
X105297371Y-63149500D01*
X105230332Y-63129815D01*
X105198105Y-63099812D01*
X105112946Y-62986054D01*
X105090109Y-62968958D01*
X104997735Y-62899806D01*
X104997728Y-62899802D01*
X104862882Y-62849508D01*
X104862883Y-62849508D01*
X104803283Y-62843101D01*
X104803281Y-62843100D01*
X104803273Y-62843100D01*
X104803264Y-62843100D01*
X103005729Y-62843100D01*
X103005723Y-62843101D01*
X102946116Y-62849508D01*
X102811271Y-62899802D01*
X102811264Y-62899806D01*
X102696056Y-62986052D01*
X102696055Y-62986053D01*
X102696054Y-62986054D01*
X102610894Y-63099811D01*
X102554962Y-63141682D01*
X102511629Y-63149500D01*
X102329057Y-63149500D01*
X102170943Y-63149500D01*
X102018215Y-63190423D01*
X102018214Y-63190423D01*
X102018212Y-63190424D01*
X102018211Y-63190424D01*
X101976427Y-63214549D01*
X101881287Y-63269477D01*
X101881282Y-63269481D01*
X101485339Y-63665425D01*
X101424016Y-63698910D01*
X101421850Y-63699361D01*
X101266508Y-63730261D01*
X101266498Y-63730264D01*
X101120827Y-63790602D01*
X101120814Y-63790609D01*
X100989711Y-63878210D01*
X100989707Y-63878213D01*
X100878213Y-63989707D01*
X100878210Y-63989711D01*
X100790609Y-64120814D01*
X100790602Y-64120827D01*
X100730264Y-64266498D01*
X100730261Y-64266510D01*
X100699500Y-64421153D01*
X100699500Y-64578846D01*
X100730261Y-64733489D01*
X100730264Y-64733501D01*
X100790602Y-64879172D01*
X100790609Y-64879185D01*
X100878210Y-65010288D01*
X100878213Y-65010292D01*
X100989707Y-65121786D01*
X100989711Y-65121789D01*
X101120814Y-65209390D01*
X101120827Y-65209397D01*
X101266498Y-65269735D01*
X101266503Y-65269737D01*
X101421153Y-65300499D01*
X101421156Y-65300500D01*
X101421158Y-65300500D01*
X101578844Y-65300500D01*
X101578845Y-65300499D01*
X101733497Y-65269737D01*
X101879179Y-65209394D01*
X102010289Y-65121789D01*
X102121789Y-65010289D01*
X102209394Y-64879179D01*
X102269737Y-64733497D01*
X102290812Y-64627549D01*
X102300638Y-64578150D01*
X102309402Y-64561393D01*
X102313423Y-64542914D01*
X102332167Y-64517875D01*
X102333023Y-64516239D01*
X102334518Y-64514716D01*
X102341421Y-64507813D01*
X102402742Y-64474330D01*
X102472434Y-64479314D01*
X102528367Y-64521186D01*
X102552784Y-64586650D01*
X102553100Y-64595496D01*
X102553100Y-65454270D01*
X102553101Y-65454276D01*
X102559508Y-65513883D01*
X102584790Y-65581667D01*
X102589774Y-65651358D01*
X102584790Y-65668331D01*
X102559509Y-65736114D01*
X102559508Y-65736116D01*
X102553101Y-65795716D01*
X102553100Y-65795735D01*
X102553100Y-66704270D01*
X102553101Y-66704276D01*
X102559508Y-66763883D01*
X102584790Y-66831667D01*
X102589774Y-66901358D01*
X102584790Y-66918331D01*
X102559509Y-66986114D01*
X102559508Y-66986116D01*
X102553101Y-67045716D01*
X102553100Y-67045735D01*
X102553101Y-67880701D01*
X102533417Y-67947740D01*
X102480613Y-67993495D01*
X102429101Y-68004701D01*
X101702800Y-68004701D01*
X101702800Y-68320600D01*
X101683115Y-68387639D01*
X101630311Y-68433394D01*
X101578800Y-68444600D01*
X100430199Y-68444600D01*
X100363160Y-68424915D01*
X100317405Y-68372111D01*
X100306199Y-68320600D01*
X100306199Y-68004701D01*
X98502799Y-68004701D01*
X97000500Y-68004701D01*
X97000500Y-61004699D01*
X98502799Y-61004699D01*
X98502799Y-61995299D01*
X100306199Y-61995299D01*
X100306199Y-61679399D01*
X100325884Y-61612360D01*
X100378688Y-61566605D01*
X100430199Y-61555399D01*
X101578800Y-61555399D01*
X101645839Y-61575084D01*
X101691594Y-61627888D01*
X101702800Y-61679399D01*
X101702800Y-61995299D01*
X103506200Y-61995299D01*
X103506200Y-61004699D01*
X103178401Y-61004699D01*
X103111362Y-60985014D01*
X103065607Y-60932210D01*
X103054401Y-60880699D01*
X103054400Y-58797229D01*
X103054399Y-58797223D01*
X103054398Y-58797216D01*
X103047992Y-58737617D01*
X102997697Y-58602769D01*
X102997696Y-58602768D01*
X102997694Y-58602764D01*
X102911448Y-58487555D01*
X102911445Y-58487552D01*
X102796236Y-58401306D01*
X102796229Y-58401302D01*
X102661383Y-58351008D01*
X102661384Y-58351008D01*
X102601784Y-58344601D01*
X102601782Y-58344600D01*
X102601774Y-58344600D01*
X102601765Y-58344600D01*
X99407230Y-58344600D01*
X99407224Y-58344601D01*
X99347617Y-58351008D01*
X99212772Y-58401302D01*
X99212765Y-58401306D01*
X99097556Y-58487552D01*
X99097553Y-58487555D01*
X99011307Y-58602764D01*
X99011303Y-58602771D01*
X98961009Y-58737617D01*
X98954602Y-58797216D01*
X98954601Y-58797227D01*
X98954601Y-59877292D01*
X98954602Y-60880699D01*
X98934917Y-60947738D01*
X98882114Y-60993493D01*
X98830602Y-61004699D01*
X98502799Y-61004699D01*
X97000500Y-61004699D01*
X97000500Y-48624500D01*
X97020185Y-48557461D01*
X97072989Y-48511706D01*
X97124500Y-48500500D01*
X150875500Y-48500500D01*
X150942539Y-48520185D01*
G37*
%TD.AperFunction*%
%TD*%
M02*
