%TF.GenerationSoftware,KiCad,Pcbnew,9.0.7-9.0.7~ubuntu24.04.1*%
%TF.CreationDate,2026-02-24T20:43:51+01:00*%
%TF.ProjectId,boutons,626f7574-6f6e-4732-9e6b-696361645f70,rev?*%
%TF.SameCoordinates,Original*%
%TF.FileFunction,Copper,L2,Bot*%
%TF.FilePolarity,Positive*%
%FSLAX46Y46*%
G04 Gerber Fmt 4.6, Leading zero omitted, Abs format (unit mm)*
G04 Created by KiCad (PCBNEW 9.0.7-9.0.7~ubuntu24.04.1) date 2026-02-24 20:43:51*
%MOMM*%
%LPD*%
G01*
G04 APERTURE LIST*
%TA.AperFunction,ComponentPad*%
%ADD10C,2.000000*%
%TD*%
%TA.AperFunction,ViaPad*%
%ADD11C,0.600000*%
%TD*%
%TA.AperFunction,Conductor*%
%ADD12C,0.200000*%
%TD*%
G04 APERTURE END LIST*
D10*
%TO.P,S4,1,COM*%
%TO.N,Net-(S4-COM)*%
X137750000Y-53750000D03*
X144250000Y-53750000D03*
%TO.P,S4,2,NO*%
%TO.N,GND*%
X137750000Y-58250000D03*
X144250000Y-58250000D03*
%TD*%
%TO.P,S2,1,COM*%
%TO.N,Net-(S2-COM)*%
X137750000Y-65250000D03*
X144250000Y-65250000D03*
%TO.P,S2,2,NO*%
%TO.N,GND*%
X137750000Y-69750000D03*
X144250000Y-69750000D03*
%TD*%
%TO.P,S1,1,COM*%
%TO.N,Net-(S1-COM)*%
X124250000Y-65250000D03*
X130750000Y-65250000D03*
%TO.P,S1,2,NO*%
%TO.N,GND*%
X124250000Y-69750000D03*
X130750000Y-69750000D03*
%TD*%
%TO.P,S3,1,COM*%
%TO.N,Net-(S3-COM)*%
X124250000Y-53750000D03*
X130750000Y-53750000D03*
%TO.P,S3,2,NO*%
%TO.N,GND*%
X124250000Y-58250000D03*
X130750000Y-58250000D03*
%TD*%
D11*
%TO.N,3.3V*%
X106000000Y-67000000D03*
X101500000Y-64500000D03*
%TD*%
D12*
%TO.N,3.3V*%
X106000000Y-67000000D02*
X104000000Y-67000000D01*
X104000000Y-67000000D02*
X101500000Y-64500000D01*
%TD*%
%TA.AperFunction,Conductor*%
%TO.N,GND*%
G36*
X150942539Y-48520185D02*
G01*
X150988294Y-48572989D01*
X150999500Y-48624500D01*
X150999500Y-74375500D01*
X150979815Y-74442539D01*
X150927011Y-74488294D01*
X150875500Y-74499500D01*
X97124500Y-74499500D01*
X97057461Y-74479815D01*
X97011706Y-74427011D01*
X97000500Y-74375500D01*
X97000500Y-64421153D01*
X100699500Y-64421153D01*
X100699500Y-64578846D01*
X100730261Y-64733489D01*
X100730264Y-64733501D01*
X100790602Y-64879172D01*
X100790609Y-64879185D01*
X100878210Y-65010288D01*
X100878213Y-65010292D01*
X100989707Y-65121786D01*
X100989711Y-65121789D01*
X101120814Y-65209390D01*
X101120827Y-65209397D01*
X101266498Y-65269735D01*
X101266503Y-65269737D01*
X101331147Y-65282595D01*
X101421849Y-65300638D01*
X101483760Y-65333023D01*
X101485339Y-65334574D01*
X103515139Y-67364374D01*
X103515149Y-67364385D01*
X103519479Y-67368715D01*
X103519480Y-67368716D01*
X103631284Y-67480520D01*
X103682845Y-67510288D01*
X103718095Y-67530639D01*
X103718097Y-67530641D01*
X103756151Y-67552611D01*
X103768215Y-67559577D01*
X103920943Y-67600501D01*
X103920946Y-67600501D01*
X104086653Y-67600501D01*
X104086669Y-67600500D01*
X105420234Y-67600500D01*
X105487273Y-67620185D01*
X105489125Y-67621398D01*
X105620814Y-67709390D01*
X105620827Y-67709397D01*
X105766498Y-67769735D01*
X105766503Y-67769737D01*
X105921153Y-67800499D01*
X105921156Y-67800500D01*
X105921158Y-67800500D01*
X106078844Y-67800500D01*
X106078845Y-67800499D01*
X106233497Y-67769737D01*
X106379179Y-67709394D01*
X106510289Y-67621789D01*
X106621789Y-67510289D01*
X106709394Y-67379179D01*
X106769737Y-67233497D01*
X106800500Y-67078842D01*
X106800500Y-66921158D01*
X106800500Y-66921155D01*
X106800499Y-66921153D01*
X106769738Y-66766510D01*
X106769737Y-66766503D01*
X106769735Y-66766498D01*
X106709397Y-66620827D01*
X106709390Y-66620814D01*
X106621789Y-66489711D01*
X106621786Y-66489707D01*
X106510292Y-66378213D01*
X106510288Y-66378210D01*
X106379185Y-66290609D01*
X106379172Y-66290602D01*
X106233501Y-66230264D01*
X106233489Y-66230261D01*
X106078845Y-66199500D01*
X106078842Y-66199500D01*
X105921158Y-66199500D01*
X105921155Y-66199500D01*
X105766510Y-66230261D01*
X105766498Y-66230264D01*
X105620827Y-66290602D01*
X105620814Y-66290609D01*
X105489125Y-66378602D01*
X105422447Y-66399480D01*
X105420234Y-66399500D01*
X104300097Y-66399500D01*
X104233058Y-66379815D01*
X104212416Y-66363181D01*
X102981137Y-65131902D01*
X122749500Y-65131902D01*
X122749500Y-65368097D01*
X122786446Y-65601368D01*
X122859433Y-65825996D01*
X122966657Y-66036433D01*
X123105483Y-66227510D01*
X123272490Y-66394517D01*
X123463567Y-66533343D01*
X123562991Y-66584002D01*
X123674003Y-66640566D01*
X123674005Y-66640566D01*
X123674008Y-66640568D01*
X123794412Y-66679689D01*
X123898631Y-66713553D01*
X124131903Y-66750500D01*
X124131908Y-66750500D01*
X124368097Y-66750500D01*
X124601368Y-66713553D01*
X124825992Y-66640568D01*
X125036433Y-66533343D01*
X125227510Y-66394517D01*
X125394517Y-66227510D01*
X125533343Y-66036433D01*
X125640568Y-65825992D01*
X125713553Y-65601368D01*
X125750500Y-65368097D01*
X125750500Y-65131902D01*
X129249500Y-65131902D01*
X129249500Y-65368097D01*
X129286446Y-65601368D01*
X129359433Y-65825996D01*
X129466657Y-66036433D01*
X129605483Y-66227510D01*
X129772490Y-66394517D01*
X129963567Y-66533343D01*
X130062991Y-66584002D01*
X130174003Y-66640566D01*
X130174005Y-66640566D01*
X130174008Y-66640568D01*
X130294412Y-66679689D01*
X130398631Y-66713553D01*
X130631903Y-66750500D01*
X130631908Y-66750500D01*
X130868097Y-66750500D01*
X131101368Y-66713553D01*
X131325992Y-66640568D01*
X131536433Y-66533343D01*
X131727510Y-66394517D01*
X131894517Y-66227510D01*
X132033343Y-66036433D01*
X132140568Y-65825992D01*
X132213553Y-65601368D01*
X132250500Y-65368097D01*
X132250500Y-65131902D01*
X136249500Y-65131902D01*
X136249500Y-65368097D01*
X136286446Y-65601368D01*
X136359433Y-65825996D01*
X136466657Y-66036433D01*
X136605483Y-66227510D01*
X136772490Y-66394517D01*
X136963567Y-66533343D01*
X137062991Y-66584002D01*
X137174003Y-66640566D01*
X137174005Y-66640566D01*
X137174008Y-66640568D01*
X137294412Y-66679689D01*
X137398631Y-66713553D01*
X137631903Y-66750500D01*
X137631908Y-66750500D01*
X137868097Y-66750500D01*
X138101368Y-66713553D01*
X138325992Y-66640568D01*
X138536433Y-66533343D01*
X138727510Y-66394517D01*
X138894517Y-66227510D01*
X139033343Y-66036433D01*
X139140568Y-65825992D01*
X139213553Y-65601368D01*
X139250500Y-65368097D01*
X139250500Y-65131902D01*
X142749500Y-65131902D01*
X142749500Y-65368097D01*
X142786446Y-65601368D01*
X142859433Y-65825996D01*
X142966657Y-66036433D01*
X143105483Y-66227510D01*
X143272490Y-66394517D01*
X143463567Y-66533343D01*
X143562991Y-66584002D01*
X143674003Y-66640566D01*
X143674005Y-66640566D01*
X143674008Y-66640568D01*
X143794412Y-66679689D01*
X143898631Y-66713553D01*
X144131903Y-66750500D01*
X144131908Y-66750500D01*
X144368097Y-66750500D01*
X144601368Y-66713553D01*
X144825992Y-66640568D01*
X145036433Y-66533343D01*
X145227510Y-66394517D01*
X145394517Y-66227510D01*
X145533343Y-66036433D01*
X145640568Y-65825992D01*
X145713553Y-65601368D01*
X145750500Y-65368097D01*
X145750500Y-65131902D01*
X145713553Y-64898631D01*
X145679689Y-64794412D01*
X145640568Y-64674008D01*
X145640566Y-64674005D01*
X145640566Y-64674003D01*
X145533342Y-64463566D01*
X145504607Y-64424016D01*
X145394517Y-64272490D01*
X145227510Y-64105483D01*
X145036433Y-63966657D01*
X144825996Y-63859433D01*
X144601368Y-63786446D01*
X144368097Y-63749500D01*
X144368092Y-63749500D01*
X144131908Y-63749500D01*
X144131903Y-63749500D01*
X143898631Y-63786446D01*
X143674003Y-63859433D01*
X143463566Y-63966657D01*
X143354550Y-64045862D01*
X143272490Y-64105483D01*
X143272488Y-64105485D01*
X143272487Y-64105485D01*
X143105485Y-64272487D01*
X143105485Y-64272488D01*
X143105483Y-64272490D01*
X143045862Y-64354550D01*
X142966657Y-64463566D01*
X142859433Y-64674003D01*
X142786446Y-64898631D01*
X142749500Y-65131902D01*
X139250500Y-65131902D01*
X139213553Y-64898631D01*
X139179689Y-64794412D01*
X139140568Y-64674008D01*
X139140566Y-64674005D01*
X139140566Y-64674003D01*
X139033342Y-64463566D01*
X139004607Y-64424016D01*
X138894517Y-64272490D01*
X138727510Y-64105483D01*
X138536433Y-63966657D01*
X138325996Y-63859433D01*
X138101368Y-63786446D01*
X137868097Y-63749500D01*
X137868092Y-63749500D01*
X137631908Y-63749500D01*
X137631903Y-63749500D01*
X137398631Y-63786446D01*
X137174003Y-63859433D01*
X136963566Y-63966657D01*
X136854550Y-64045862D01*
X136772490Y-64105483D01*
X136772488Y-64105485D01*
X136772487Y-64105485D01*
X136605485Y-64272487D01*
X136605485Y-64272488D01*
X136605483Y-64272490D01*
X136545862Y-64354550D01*
X136466657Y-64463566D01*
X136359433Y-64674003D01*
X136286446Y-64898631D01*
X136249500Y-65131902D01*
X132250500Y-65131902D01*
X132213553Y-64898631D01*
X132179689Y-64794412D01*
X132140568Y-64674008D01*
X132140566Y-64674005D01*
X132140566Y-64674003D01*
X132033342Y-64463566D01*
X132004607Y-64424016D01*
X131894517Y-64272490D01*
X131727510Y-64105483D01*
X131536433Y-63966657D01*
X131325996Y-63859433D01*
X131101368Y-63786446D01*
X130868097Y-63749500D01*
X130868092Y-63749500D01*
X130631908Y-63749500D01*
X130631903Y-63749500D01*
X130398631Y-63786446D01*
X130174003Y-63859433D01*
X129963566Y-63966657D01*
X129854550Y-64045862D01*
X129772490Y-64105483D01*
X129772488Y-64105485D01*
X129772487Y-64105485D01*
X129605485Y-64272487D01*
X129605485Y-64272488D01*
X129605483Y-64272490D01*
X129545862Y-64354550D01*
X129466657Y-64463566D01*
X129359433Y-64674003D01*
X129286446Y-64898631D01*
X129249500Y-65131902D01*
X125750500Y-65131902D01*
X125713553Y-64898631D01*
X125679689Y-64794412D01*
X125640568Y-64674008D01*
X125640566Y-64674005D01*
X125640566Y-64674003D01*
X125533342Y-64463566D01*
X125504607Y-64424016D01*
X125394517Y-64272490D01*
X125227510Y-64105483D01*
X125036433Y-63966657D01*
X124825996Y-63859433D01*
X124601368Y-63786446D01*
X124368097Y-63749500D01*
X124368092Y-63749500D01*
X124131908Y-63749500D01*
X124131903Y-63749500D01*
X123898631Y-63786446D01*
X123674003Y-63859433D01*
X123463566Y-63966657D01*
X123354550Y-64045862D01*
X123272490Y-64105483D01*
X123272488Y-64105485D01*
X123272487Y-64105485D01*
X123105485Y-64272487D01*
X123105485Y-64272488D01*
X123105483Y-64272490D01*
X123045862Y-64354550D01*
X122966657Y-64463566D01*
X122859433Y-64674003D01*
X122786446Y-64898631D01*
X122749500Y-65131902D01*
X102981137Y-65131902D01*
X102334574Y-64485339D01*
X102301089Y-64424016D01*
X102300638Y-64421849D01*
X102269738Y-64266510D01*
X102269737Y-64266503D01*
X102269735Y-64266498D01*
X102209397Y-64120827D01*
X102209390Y-64120814D01*
X102121789Y-63989711D01*
X102121786Y-63989707D01*
X102010292Y-63878213D01*
X102010288Y-63878210D01*
X101879185Y-63790609D01*
X101879172Y-63790602D01*
X101733501Y-63730264D01*
X101733489Y-63730261D01*
X101578845Y-63699500D01*
X101578842Y-63699500D01*
X101421158Y-63699500D01*
X101421155Y-63699500D01*
X101266510Y-63730261D01*
X101266498Y-63730264D01*
X101120827Y-63790602D01*
X101120814Y-63790609D01*
X100989711Y-63878210D01*
X100989707Y-63878213D01*
X100878213Y-63989707D01*
X100878210Y-63989711D01*
X100790609Y-64120814D01*
X100790602Y-64120827D01*
X100730264Y-64266498D01*
X100730261Y-64266510D01*
X100699500Y-64421153D01*
X97000500Y-64421153D01*
X97000500Y-53631902D01*
X122749500Y-53631902D01*
X122749500Y-53868097D01*
X122786446Y-54101368D01*
X122859433Y-54325996D01*
X122966657Y-54536433D01*
X123105483Y-54727510D01*
X123272490Y-54894517D01*
X123463567Y-55033343D01*
X123562991Y-55084002D01*
X123674003Y-55140566D01*
X123674005Y-55140566D01*
X123674008Y-55140568D01*
X123794412Y-55179689D01*
X123898631Y-55213553D01*
X124131903Y-55250500D01*
X124131908Y-55250500D01*
X124368097Y-55250500D01*
X124601368Y-55213553D01*
X124825992Y-55140568D01*
X125036433Y-55033343D01*
X125227510Y-54894517D01*
X125394517Y-54727510D01*
X125533343Y-54536433D01*
X125640568Y-54325992D01*
X125713553Y-54101368D01*
X125750500Y-53868097D01*
X125750500Y-53631902D01*
X129249500Y-53631902D01*
X129249500Y-53868097D01*
X129286446Y-54101368D01*
X129359433Y-54325996D01*
X129466657Y-54536433D01*
X129605483Y-54727510D01*
X129772490Y-54894517D01*
X129963567Y-55033343D01*
X130062991Y-55084002D01*
X130174003Y-55140566D01*
X130174005Y-55140566D01*
X130174008Y-55140568D01*
X130294412Y-55179689D01*
X130398631Y-55213553D01*
X130631903Y-55250500D01*
X130631908Y-55250500D01*
X130868097Y-55250500D01*
X131101368Y-55213553D01*
X131325992Y-55140568D01*
X131536433Y-55033343D01*
X131727510Y-54894517D01*
X131894517Y-54727510D01*
X132033343Y-54536433D01*
X132140568Y-54325992D01*
X132213553Y-54101368D01*
X132250500Y-53868097D01*
X132250500Y-53631902D01*
X136249500Y-53631902D01*
X136249500Y-53868097D01*
X136286446Y-54101368D01*
X136359433Y-54325996D01*
X136466657Y-54536433D01*
X136605483Y-54727510D01*
X136772490Y-54894517D01*
X136963567Y-55033343D01*
X137062991Y-55084002D01*
X137174003Y-55140566D01*
X137174005Y-55140566D01*
X137174008Y-55140568D01*
X137294412Y-55179689D01*
X137398631Y-55213553D01*
X137631903Y-55250500D01*
X137631908Y-55250500D01*
X137868097Y-55250500D01*
X138101368Y-55213553D01*
X138325992Y-55140568D01*
X138536433Y-55033343D01*
X138727510Y-54894517D01*
X138894517Y-54727510D01*
X139033343Y-54536433D01*
X139140568Y-54325992D01*
X139213553Y-54101368D01*
X139250500Y-53868097D01*
X139250500Y-53631902D01*
X142749500Y-53631902D01*
X142749500Y-53868097D01*
X142786446Y-54101368D01*
X142859433Y-54325996D01*
X142966657Y-54536433D01*
X143105483Y-54727510D01*
X143272490Y-54894517D01*
X143463567Y-55033343D01*
X143562991Y-55084002D01*
X143674003Y-55140566D01*
X143674005Y-55140566D01*
X143674008Y-55140568D01*
X143794412Y-55179689D01*
X143898631Y-55213553D01*
X144131903Y-55250500D01*
X144131908Y-55250500D01*
X144368097Y-55250500D01*
X144601368Y-55213553D01*
X144825992Y-55140568D01*
X145036433Y-55033343D01*
X145227510Y-54894517D01*
X145394517Y-54727510D01*
X145533343Y-54536433D01*
X145640568Y-54325992D01*
X145713553Y-54101368D01*
X145750500Y-53868097D01*
X145750500Y-53631902D01*
X145713553Y-53398631D01*
X145640566Y-53174003D01*
X145533342Y-52963566D01*
X145394517Y-52772490D01*
X145227510Y-52605483D01*
X145036433Y-52466657D01*
X144825996Y-52359433D01*
X144601368Y-52286446D01*
X144368097Y-52249500D01*
X144368092Y-52249500D01*
X144131908Y-52249500D01*
X144131903Y-52249500D01*
X143898631Y-52286446D01*
X143674003Y-52359433D01*
X143463566Y-52466657D01*
X143354550Y-52545862D01*
X143272490Y-52605483D01*
X143272488Y-52605485D01*
X143272487Y-52605485D01*
X143105485Y-52772487D01*
X143105485Y-52772488D01*
X143105483Y-52772490D01*
X143045862Y-52854550D01*
X142966657Y-52963566D01*
X142859433Y-53174003D01*
X142786446Y-53398631D01*
X142749500Y-53631902D01*
X139250500Y-53631902D01*
X139213553Y-53398631D01*
X139140566Y-53174003D01*
X139033342Y-52963566D01*
X138894517Y-52772490D01*
X138727510Y-52605483D01*
X138536433Y-52466657D01*
X138325996Y-52359433D01*
X138101368Y-52286446D01*
X137868097Y-52249500D01*
X137868092Y-52249500D01*
X137631908Y-52249500D01*
X137631903Y-52249500D01*
X137398631Y-52286446D01*
X137174003Y-52359433D01*
X136963566Y-52466657D01*
X136854550Y-52545862D01*
X136772490Y-52605483D01*
X136772488Y-52605485D01*
X136772487Y-52605485D01*
X136605485Y-52772487D01*
X136605485Y-52772488D01*
X136605483Y-52772490D01*
X136545862Y-52854550D01*
X136466657Y-52963566D01*
X136359433Y-53174003D01*
X136286446Y-53398631D01*
X136249500Y-53631902D01*
X132250500Y-53631902D01*
X132213553Y-53398631D01*
X132140566Y-53174003D01*
X132033342Y-52963566D01*
X131894517Y-52772490D01*
X131727510Y-52605483D01*
X131536433Y-52466657D01*
X131325996Y-52359433D01*
X131101368Y-52286446D01*
X130868097Y-52249500D01*
X130868092Y-52249500D01*
X130631908Y-52249500D01*
X130631903Y-52249500D01*
X130398631Y-52286446D01*
X130174003Y-52359433D01*
X129963566Y-52466657D01*
X129854550Y-52545862D01*
X129772490Y-52605483D01*
X129772488Y-52605485D01*
X129772487Y-52605485D01*
X129605485Y-52772487D01*
X129605485Y-52772488D01*
X129605483Y-52772490D01*
X129545862Y-52854550D01*
X129466657Y-52963566D01*
X129359433Y-53174003D01*
X129286446Y-53398631D01*
X129249500Y-53631902D01*
X125750500Y-53631902D01*
X125713553Y-53398631D01*
X125640566Y-53174003D01*
X125533342Y-52963566D01*
X125394517Y-52772490D01*
X125227510Y-52605483D01*
X125036433Y-52466657D01*
X124825996Y-52359433D01*
X124601368Y-52286446D01*
X124368097Y-52249500D01*
X124368092Y-52249500D01*
X124131908Y-52249500D01*
X124131903Y-52249500D01*
X123898631Y-52286446D01*
X123674003Y-52359433D01*
X123463566Y-52466657D01*
X123354550Y-52545862D01*
X123272490Y-52605483D01*
X123272488Y-52605485D01*
X123272487Y-52605485D01*
X123105485Y-52772487D01*
X123105485Y-52772488D01*
X123105483Y-52772490D01*
X123045862Y-52854550D01*
X122966657Y-52963566D01*
X122859433Y-53174003D01*
X122786446Y-53398631D01*
X122749500Y-53631902D01*
X97000500Y-53631902D01*
X97000500Y-48624500D01*
X97020185Y-48557461D01*
X97072989Y-48511706D01*
X97124500Y-48500500D01*
X150875500Y-48500500D01*
X150942539Y-48520185D01*
G37*
%TD.AperFunction*%
%TD*%
M02*
